ComicNeue_Bold_Oblique.ufo
<glyph name="exclam" format="1">
  <advance width="222"/>
  <unicode hex="0021"/>
  <outline>
    <contour>
      <point x="46" y="217" type="curve" smooth="yes"/>
      <point x="132" y="625" type="line" smooth="yes"/>
      <point x="138" y="651"/>
      <point x="165" y="675"/>
      <point x="192" y="675" type="curve" smooth="yes"/>
      <point x="216.056" y="675"/>
      <point x="231.254" y="657.286"/>
      <point x="231.254" y="635.808" type="curve" smooth="yes"/>
      <point x="231.254" y="632.286"/>
      <point x="230.845" y="628.663"/>
      <point x="230" y="625" type="curve" smooth="yes"/>
      <point x="144" y="217" type="line" smooth="yes"/>
      <point x="138" y="190"/>
      <point x="112" y="168"/>
      <point x="84" y="168" type="curve" smooth="yes"/>
      <point x="60.6621" y="168"/>
      <point x="44.7955" y="184.437"/>
      <point x="44.7955" y="206.332" type="curve" smooth="yes"/>
      <point x="44.7955" y="209.768"/>
      <point x="45.1862" y="213.338"/>
    </contour>
    <contour>
      <point x="113" y="65" type="curve" smooth="yes"/>
      <point x="105" y="28"/>
      <point x="70" y="0"/>
      <point x="41" y="0" type="curve" smooth="yes"/>
      <point x="14.3232" y="0"/>
      <point x="-1.24563" y="18.5133"/>
      <point x="-1.24563" y="43.432" type="curve" smooth="yes"/>
      <point x="-1.24563" y="47.4703"/>
      <point x="-0.83675" y="51.6768"/>
      <point x="0" y="56" type="curve"/>
      <point x="8" y="90"/>
      <point x="43" y="121"/>
      <point x="73" y="121" type="curve" smooth="yes"/>
      <point x="99.4934" y="121"/>
      <point x="114.301" y="101.28"/>
      <point x="114.301" y="77.4438" type="curve" smooth="yes"/>
      <point x="114.301" y="73.3894"/>
      <point x="113.872" y="69.2158"/>
    </contour>
  </outline>
</glyph>
<glyph name="quotedbl" format="1">
  <advance width="339"/>
  <unicode hex="0022"/>
  <outline>
    <contour>
      <point x="134" y="454" type="curve" smooth="yes"/>
      <point x="110.662" y="454"/>
      <point x="94.7955" y="469.69"/>
      <point x="94.7955" y="491.382" type="curve" smooth="yes"/>
      <point x="94.7955" y="494.786"/>
      <point x="95.1862" y="498.338"/>
      <point x="96" y="502" type="curve" smooth="yes"/>
      <point x="122" y="624" type="line" smooth="yes"/>
      <point x="128" y="650"/>
      <point x="153" y="672"/>
      <point x="180" y="672" type="curve" smooth="yes"/>
      <point x="202.602" y="672"/>
      <point x="219.158" y="655.375"/>
      <point x="219.158" y="633.949" type="curve" smooth="yes"/>
      <point x="219.158" y="630.728"/>
      <point x="218.784" y="627.398"/>
      <point x="218" y="624" type="curve" smooth="yes"/>
      <point x="192" y="502" type="line" smooth="yes"/>
      <point x="186" y="475"/>
      <point x="160" y="454"/>
    </contour>
    <contour>
      <point x="282" y="454" type="curve" smooth="yes"/>
      <point x="258.662" y="454"/>
      <point x="242.796" y="469.69"/>
      <point x="242.796" y="491.382" type="curve" smooth="yes"/>
      <point x="242.796" y="494.786"/>
      <point x="243.186" y="498.338"/>
      <point x="244" y="502" type="curve" smooth="yes"/>
      <point x="270" y="624" type="line" smooth="yes"/>
      <point x="276" y="650"/>
      <point x="301" y="672"/>
      <point x="328" y="672" type="curve" smooth="yes"/>
      <point x="350.732" y="672"/>
      <point x="368.113" y="655.183"/>
      <point x="368.113" y="633.578" type="curve" smooth="yes"/>
      <point x="368.113" y="630.473"/>
      <point x="367.754" y="627.268"/>
      <point x="367" y="624" type="curve" smooth="yes"/>
      <point x="341" y="502" type="line" smooth="yes"/>
      <point x="335" y="475"/>
      <point x="308" y="454"/>
    </contour>
  </outline>
</glyph>
<glyph name="numbersign" format="1">
  <advance width="772"/>
  <unicode hex="0023"/>
  <outline>
    <contour>
      <point x="303" y="72" type="curve" smooth="yes"/>
      <point x="363" y="191" type="line"/>
      <point x="272" y="191" type="line"/>
      <point x="194" y="34" type="line" smooth="yes"/>
      <point x="182" y="11"/>
      <point x="159" y="0"/>
      <point x="140" y="0" type="curve" smooth="yes"/>
      <point x="114.696" y="0"/>
      <point x="100.05" y="17.5115"/>
      <point x="100.05" y="37.2545" type="curve" smooth="yes"/>
      <point x="100.05" y="40.1379"/>
      <point x="100.363" y="43.069"/>
      <point x="101" y="46" type="curve" smooth="yes"/>
      <point x="103" y="55"/>
      <point x="106" y="61"/>
      <point x="112" y="71" type="curve"/>
      <point x="171" y="191" type="line"/>
      <point x="96" y="191" type="line" smooth="yes"/>
      <point x="72.311" y="191"/>
      <point x="57.0895" y="207.165"/>
      <point x="57.0895" y="229.365" type="curve" smooth="yes"/>
      <point x="57.0895" y="232.468"/>
      <point x="57.3869" y="235.689"/>
      <point x="58" y="239" type="curve"/>
      <point x="64" y="264"/>
      <point x="90" y="287"/>
      <point x="117" y="287" type="curve" smooth="yes"/>
      <point x="220" y="287" type="line"/>
      <point x="239" y="327"/>
      <point x="250" y="345"/>
      <point x="271" y="390" type="curve"/>
      <point x="179" y="390" type="line" smooth="yes"/>
      <point x="155.817" y="390"/>
      <point x="140.743" y="405.483"/>
      <point x="140.743" y="426.952" type="curve" smooth="yes"/>
      <point x="140.743" y="430.486"/>
      <point x="141.152" y="434.183"/>
      <point x="142" y="438" type="curve" smooth="yes"/>
      <point x="147" y="463"/>
      <point x="173" y="486"/>
      <point x="200" y="486" type="curve" smooth="yes"/>
      <point x="321" y="486" type="line"/>
      <point x="396" y="637" type="line" smooth="yes"/>
      <point x="406" y="658"/>
      <point x="430" y="671"/>
      <point x="450" y="671" type="curve" smooth="yes"/>
      <point x="475.13" y="671"/>
      <point x="488.996" y="654.48"/>
      <point x="488.996" y="633.804" type="curve" smooth="yes"/>
      <point x="488.996" y="630.619"/>
      <point x="488.667" y="627.336"/>
      <point x="488" y="624" type="curve" smooth="yes"/>
      <point x="486" y="615"/>
      <point x="483" y="610"/>
      <point x="479" y="602" type="curve" smooth="yes"/>
      <point x="421" y="486" type="line"/>
      <point x="512" y="486" type="line"/>
      <point x="588" y="637" type="line" smooth="yes"/>
      <point x="598" y="658"/>
      <point x="621" y="671"/>
      <point x="641" y="671" type="curve" smooth="yes"/>
      <point x="666.13" y="671"/>
      <point x="679.996" y="652.978"/>
      <point x="679.996" y="632.552" type="curve" smooth="yes"/>
      <point x="679.996" y="629.406"/>
      <point x="679.667" y="626.203"/>
      <point x="679" y="623" type="curve" smooth="yes"/>
      <point x="678" y="619"/>
      <point x="675" y="610"/>
      <point x="672" y="603" type="curve" smooth="yes"/>
      <point x="612" y="486" type="line"/>
      <point x="674" y="486" type="line" smooth="yes"/>
      <point x="696.171" y="486"/>
      <point x="712.837" y="467.91"/>
      <point x="712.837" y="446.379" type="curve" smooth="yes"/>
      <point x="712.837" y="443.632"/>
      <point x="712.566" y="440.829"/>
      <point x="712" y="438" type="curve" smooth="yes"/>
      <point x="706" y="411"/>
      <point x="678" y="390"/>
      <point x="653" y="390" type="curve" smooth="yes"/>
      <point x="563" y="390" type="line"/>
      <point x="513" y="287" type="line"/>
      <point x="591" y="287" type="line" smooth="yes"/>
      <point x="613.462" y="287"/>
      <point x="629.207" y="269.833"/>
      <point x="629.207" y="249.041" type="curve" smooth="yes"/>
      <point x="629.207" y="245.766"/>
      <point x="628.816" y="242.402"/>
      <point x="628" y="239" type="curve"/>
      <point x="623" y="212"/>
      <point x="596" y="191"/>
      <point x="570" y="191" type="curve" smooth="yes"/>
      <point x="464" y="191" type="line"/>
      <point x="385" y="34" type="line" smooth="yes"/>
      <point x="373" y="10"/>
      <point x="351" y="0"/>
      <point x="332" y="0" type="curve" smooth="yes"/>
      <point x="307.246" y="0"/>
      <point x="292.693" y="16.7573"/>
      <point x="292.693" y="37.2123" type="curve" smooth="yes"/>
      <point x="292.693" y="40.7213"/>
      <point x="293.121" y="44.3392"/>
      <point x="294" y="48" type="curve" smooth="yes"/>
      <point x="295" y="53"/>
      <point x="298" y="62"/>
    </contour>
    <contour>
      <point x="412" y="287" type="line"/>
      <point x="463" y="390" type="line"/>
      <point x="371" y="390" type="line"/>
      <point x="321" y="287" type="line"/>
    </contour>
  </outline>
</glyph>
<glyph name="dollar" format="1">
  <advance width="630"/>
  <unicode hex="0024"/>
  <outline>
    <contour>
      <point x="496.822" y="506.803" type="curve" smooth="yes"/>
      <point x="496.822" y="509.714"/>
      <point x="497.239" y="512.855"/>
      <point x="497.239" y="515.708" type="curve" smooth="yes"/>
      <point x="497.239" y="552.113"/>
      <point x="452.751" y="565.201"/>
      <point x="423" y="570" type="curve"/>
      <point x="384" y="386" type="line"/>
      <point x="482.483" y="351.745"/>
      <point x="531.096" y="300.623"/>
      <point x="531.096" y="232.004" type="curve" smooth="yes"/>
      <point x="531.096" y="220.496"/>
      <point x="529.729" y="208.496"/>
      <point x="527" y="196" type="curve" smooth="yes"/>
      <point x="505" y="92"/>
      <point x="417" y="24"/>
      <point x="302" y="4" type="curve"/>
      <point x="297" y="-19" type="line" smooth="yes"/>
      <point x="292" y="-45"/>
      <point x="264" y="-67"/>
      <point x="238" y="-67" type="curve" smooth="yes"/>
      <point x="215.198" y="-67"/>
      <point x="200.088" y="-50.0796"/>
      <point x="200.088" y="-28.3797" type="curve" smooth="yes"/>
      <point x="200.088" y="-25.336"/>
      <point x="200.385" y="-22.1983"/>
      <point x="201" y="-19" type="curve" smooth="yes"/>
      <point x="206" y="3" type="line"/>
      <point x="117" y="16"/>
      <point x="54" y="68"/>
      <point x="41" y="144" type="curve"/>
      <point x="41" y="148"/>
      <point x="39" y="152"/>
      <point x="42" y="166" type="curve" smooth="yes"/>
      <point x="46" y="184"/>
      <point x="72" y="213"/>
      <point x="103" y="213" type="curve" smooth="yes"/>
      <point x="126" y="213"/>
      <point x="141" y="198"/>
      <point x="143" y="177" type="curve"/>
      <point x="149" y="134"/>
      <point x="183" y="108"/>
      <point x="226" y="98" type="curve"/>
      <point x="272" y="312" type="line"/>
      <point x="203.057" y="337.633"/>
      <point x="139.582" y="382.016"/>
      <point x="139.582" y="455.507" type="curve" smooth="yes"/>
      <point x="139.582" y="465.161"/>
      <point x="140.678" y="475.318"/>
      <point x="143" y="486" type="curve" smooth="yes"/>
      <point x="167" y="599"/>
      <point x="257" y="648"/>
      <point x="346" y="659" type="curve"/>
      <point x="350" y="680" type="line" smooth="yes"/>
      <point x="355" y="705"/>
      <point x="381" y="728"/>
      <point x="407" y="728" type="curve" smooth="yes"/>
      <point x="430.066" y="728"/>
      <point x="446.836" y="709.898"/>
      <point x="446.836" y="688.357" type="curve" smooth="yes"/>
      <point x="446.836" y="685.617"/>
      <point x="446.564" y="682.821"/>
      <point x="446" y="680" type="curve" smooth="yes"/>
      <point x="442" y="662" type="line"/>
      <point x="517.193" y="657.524"/>
      <point x="596.393" y="625.804"/>
      <point x="596.393" y="545.32" type="curve" smooth="yes"/>
      <point x="596.393" y="535.894"/>
      <point x="595.307" y="525.799"/>
      <point x="593" y="515" type="curve" smooth="yes"/>
      <point x="588" y="490"/>
      <point x="561" y="470"/>
      <point x="537" y="470" type="curve" smooth="yes"/>
      <point x="511.602" y="470"/>
      <point x="496.822" y="485.042"/>
    </contour>
    <contour>
      <point x="245" y="483" type="curve" smooth="yes"/>
      <point x="244.43" y="480.38"/>
      <point x="244.146" y="477.772"/>
      <point x="244.146" y="475.181" type="curve" smooth="yes"/>
      <point x="244.146" y="455.026"/>
      <point x="261.329" y="435.835"/>
      <point x="295" y="419" type="curve"/>
      <point x="325" y="564" type="line"/>
      <point x="269" y="549"/>
      <point x="252" y="513"/>
    </contour>
    <contour>
      <point x="361" y="282" type="curve"/>
      <point x="323" y="101" type="line"/>
      <point x="373" y="114"/>
      <point x="414" y="145"/>
      <point x="426" y="202" type="curve" smooth="yes"/>
      <point x="426.776" y="205.299"/>
      <point x="427.402" y="209.163"/>
      <point x="427.402" y="213.474" type="curve" smooth="yes"/>
      <point x="427.402" y="231.382"/>
      <point x="416.611" y="257.016"/>
    </contour>
  </outline>
</glyph>
<glyph name="percent" format="1">
  <advance width="754"/>
  <unicode hex="0025"/>
  <outline>
    <contour>
      <point x="234" y="383" type="curve" smooth="yes"/>
      <point x="164.245" y="383"/>
      <point x="115.778" y="433.178"/>
      <point x="115.778" y="499.726" type="curve" smooth="yes"/>
      <point x="115.778" y="509.5"/>
      <point x="116.823" y="519.627"/>
      <point x="119" y="530" type="curve" smooth="yes"/>
      <point x="136" y="610"/>
      <point x="216" y="676"/>
      <point x="296" y="676" type="curve" smooth="yes"/>
      <point x="366.637" y="676"/>
      <point x="415.22" y="625.807"/>
      <point x="415.22" y="559.907" type="curve" smooth="yes"/>
      <point x="415.22" y="550.24"/>
      <point x="414.175" y="540.235"/>
      <point x="412" y="530" type="curve" smooth="yes"/>
      <point x="395" y="449"/>
      <point x="315" y="383"/>
    </contour>
    <contour>
      <point x="276" y="581" type="curve" smooth="yes"/>
      <point x="248" y="581"/>
      <point x="220" y="558"/>
      <point x="214" y="530" type="curve" smooth="yes"/>
      <point x="213.22" y="526.232"/>
      <point x="212.846" y="522.566"/>
      <point x="212.846" y="519.038" type="curve" smooth="yes"/>
      <point x="212.846" y="495.412"/>
      <point x="229.638" y="478"/>
      <point x="254" y="478" type="curve" smooth="yes"/>
      <point x="283" y="478"/>
      <point x="311" y="501"/>
      <point x="317" y="530" type="curve" smooth="yes"/>
      <point x="317.777" y="533.627"/>
      <point x="318.152" y="537.171"/>
      <point x="318.152" y="540.591" type="curve" smooth="yes"/>
      <point x="318.152" y="563.573"/>
      <point x="301.243" y="581"/>
    </contour>
    <contour>
      <point x="448" y="-7" type="curve" smooth="yes"/>
      <point x="377.363" y="-7"/>
      <point x="328.78" y="42.4326"/>
      <point x="328.78" y="108.801" type="curve" smooth="yes"/>
      <point x="328.78" y="118.537"/>
      <point x="329.825" y="128.637"/>
      <point x="332" y="139" type="curve" smooth="yes"/>
      <point x="349" y="220"/>
      <point x="429" y="285"/>
      <point x="510" y="285" type="curve" smooth="yes"/>
      <point x="579.755" y="285"/>
      <point x="628.222" y="235.582"/>
      <point x="628.222" y="169.229" type="curve" smooth="yes"/>
      <point x="628.222" y="159.483"/>
      <point x="627.177" y="149.373"/>
      <point x="625" y="139" type="curve" smooth="yes"/>
      <point x="608" y="58"/>
      <point x="528" y="-7"/>
    </contour>
    <contour>
      <point x="490" y="191" type="curve" smooth="yes"/>
      <point x="461" y="191"/>
      <point x="433" y="167"/>
      <point x="427" y="139" type="curve" smooth="yes"/>
      <point x="426.223" y="135.243"/>
      <point x="425.848" y="131.587"/>
      <point x="425.848" y="128.069" type="curve" smooth="yes"/>
      <point x="425.848" y="104.427"/>
      <point x="442.757" y="87"/>
      <point x="468" y="87" type="curve" smooth="yes"/>
      <point x="496" y="87"/>
      <point x="524" y="110"/>
      <point x="530" y="139" type="curve" smooth="yes"/>
      <point x="530.78" y="142.638"/>
      <point x="531.154" y="146.208"/>
      <point x="531.154" y="149.667" type="curve" smooth="yes"/>
      <point x="531.154" y="172.831"/>
      <point x="514.362" y="191"/>
    </contour>
    <contour>
      <point x="143" y="0" type="curve" smooth="yes"/>
      <point x="118.75" y="3.55271e-15"/>
      <point x="105.001" y="16.5013"/>
      <point x="105.001" y="35.8625" type="curve" smooth="yes"/>
      <point x="105.001" y="38.8567"/>
      <point x="105.33" y="41.9194"/>
      <point x="106" y="45" type="curve" smooth="yes"/>
      <point x="107" y="51"/>
      <point x="111" y="61"/>
      <point x="119" y="71" type="curve" smooth="yes"/>
      <point x="561" y="649" type="line" smooth="yes"/>
      <point x="573" y="664"/>
      <point x="590" y="672"/>
      <point x="606" y="672" type="curve" smooth="yes"/>
      <point x="629.2" y="672"/>
      <point x="643.641" y="653.688"/>
      <point x="643.641" y="633.403" type="curve" smooth="yes"/>
      <point x="643.641" y="630.954"/>
      <point x="643.431" y="628.477"/>
      <point x="643" y="626" type="curve"/>
      <point x="641" y="619"/>
      <point x="638" y="611"/>
      <point x="633" y="604" type="curve" smooth="yes"/>
      <point x="188" y="24" type="line" smooth="yes"/>
      <point x="175" y="7"/>
      <point x="158" y="0"/>
    </contour>
  </outline>
</glyph>
<glyph name="quotesingle" format="1">
  <advance width="230"/>
  <unicode hex="0027"/>
  <outline>
    <contour>
      <point x="149" y="454" type="curve" smooth="yes"/>
      <point x="125.662" y="454"/>
      <point x="109.796" y="469.69"/>
      <point x="109.796" y="491.382" type="curve" smooth="yes"/>
      <point x="109.796" y="494.786"/>
      <point x="110.186" y="498.338"/>
      <point x="111" y="502" type="curve" smooth="yes"/>
      <point x="137" y="624" type="line" smooth="yes"/>
      <point x="143" y="650"/>
      <point x="168" y="672"/>
      <point x="195" y="672" type="curve" smooth="yes"/>
      <point x="216.849" y="672"/>
      <point x="234.115" y="655.196"/>
      <point x="234.115" y="633.604" type="curve" smooth="yes"/>
      <point x="234.115" y="630.49"/>
      <point x="233.756" y="627.277"/>
      <point x="233" y="624" type="curve" smooth="yes"/>
      <point x="207" y="502" type="line" smooth="yes"/>
      <point x="201" y="475"/>
      <point x="174" y="454"/>
    </contour>
  </outline>
</glyph>
<glyph name="parenleft" format="1">
  <advance width="395"/>
  <unicode hex="0028"/>
  <outline>
    <contour>
      <point x="147" y="-78" type="curve" smooth="yes"/>
      <point x="127.686" y="-46.6152"/>
      <point x="61.7452" y="59.8915"/>
      <point x="61.7452" y="218.068" type="curve" smooth="yes"/>
      <point x="61.7452" y="256.449"/>
      <point x="65.6274" y="297.871"/>
      <point x="75" y="342" type="curve" smooth="yes"/>
      <point x="109" y="503"/>
      <point x="213" y="650"/>
      <point x="340" y="750" type="curve" smooth="yes"/>
      <point x="357" y="763"/>
      <point x="370" y="768"/>
      <point x="380" y="768" type="curve" smooth="yes"/>
      <point x="402.462" y="768"/>
      <point x="418.207" y="750.833"/>
      <point x="418.207" y="729.396" type="curve" smooth="yes"/>
      <point x="418.207" y="726.02"/>
      <point x="417.816" y="722.538"/>
      <point x="417" y="719" type="curve" smooth="yes"/>
      <point x="414" y="705"/>
      <point x="407" y="692"/>
      <point x="391" y="682" type="curve"/>
      <point x="294" y="615"/>
      <point x="200" y="477"/>
      <point x="171" y="342" type="curve" smooth="yes"/>
      <point x="163.537" y="306.55"/>
      <point x="160.262" y="271.916"/>
      <point x="160.262" y="238.783" type="curve" smooth="yes"/>
      <point x="160.262" y="129.85"/>
      <point x="195.661" y="37.1409"/>
      <point x="234" y="-15" type="curve" smooth="yes"/>
      <point x="239.957" y="-22.4456"/>
      <point x="243.141" y="-31"/>
      <point x="243.141" y="-40.6631" type="curve" smooth="yes"/>
      <point x="243.141" y="-43.9783"/>
      <point x="242.766" y="-47.4239"/>
      <point x="242" y="-51" type="curve" smooth="yes"/>
      <point x="236" y="-77"/>
      <point x="207" y="-98"/>
      <point x="184" y="-98" type="curve" smooth="yes"/>
      <point x="164" y="-98"/>
      <point x="154" y="-88"/>
    </contour>
  </outline>
</glyph>
<glyph name="asterisk" format="1">
  <advance width="423"/>
  <unicode hex="002A"/>
  <outline>
    <contour>
      <point x="321" y="603" type="line"/>
      <point x="344" y="610" type="line" smooth="yes"/>
      <point x="352" y="612"/>
      <point x="355" y="612"/>
      <point x="359" y="612" type="curve" smooth="yes"/>
      <point x="379.967" y="612"/>
      <point x="397.117" y="598.262"/>
      <point x="397.117" y="576.121" type="curve" smooth="yes"/>
      <point x="397.117" y="572.918"/>
      <point x="396.758" y="569.539"/>
      <point x="396" y="566" type="curve" smooth="yes"/>
      <point x="392" y="546"/>
      <point x="375" y="527"/>
      <point x="354" y="521" type="curve" smooth="yes"/>
      <point x="332" y="514" type="line"/>
      <point x="340" y="496" type="line" smooth="yes"/>
      <point x="344" y="487"/>
      <point x="345" y="478"/>
      <point x="343" y="468" type="curve" smooth="yes"/>
      <point x="338" y="444"/>
      <point x="312" y="421"/>
      <point x="286" y="421" type="curve" smooth="yes"/>
      <point x="270" y="421"/>
      <point x="261" y="429"/>
      <point x="253" y="441" type="curve" smooth="yes"/>
      <point x="243" y="458" type="line"/>
      <point x="226" y="440" type="line" smooth="yes"/>
      <point x="214" y="427"/>
      <point x="199" y="421"/>
      <point x="185" y="421" type="curve" smooth="yes"/>
      <point x="161.311" y="421"/>
      <point x="146.09" y="438.705"/>
      <point x="146.09" y="459.932" type="curve" smooth="yes"/>
      <point x="146.09" y="462.899"/>
      <point x="146.387" y="465.934"/>
      <point x="147" y="469" type="curve" smooth="yes"/>
      <point x="149" y="478"/>
      <point x="154" y="488"/>
      <point x="162" y="496" type="curve" smooth="yes"/>
      <point x="179" y="513" type="line"/>
      <point x="159" y="520" type="line" smooth="yes"/>
      <point x="143.71" y="524.829"/>
      <point x="135.543" y="538.076"/>
      <point x="135.543" y="553.489" type="curve" smooth="yes"/>
      <point x="135.543" y="557.229"/>
      <point x="136.024" y="561.095"/>
      <point x="137" y="565" type="curve" smooth="yes"/>
      <point x="143" y="593"/>
      <point x="169" y="611"/>
      <point x="192" y="611" type="curve" smooth="yes"/>
      <point x="197" y="611"/>
      <point x="200" y="611"/>
      <point x="207" y="609" type="curve" smooth="yes"/>
      <point x="227" y="603" type="line"/>
      <point x="231" y="625" type="line" smooth="yes"/>
      <point x="237" y="651"/>
      <point x="262" y="672"/>
      <point x="288" y="672" type="curve" smooth="yes"/>
      <point x="310.462" y="672"/>
      <point x="326.207" y="656.326"/>
      <point x="326.207" y="635.295" type="curve" smooth="yes"/>
      <point x="326.207" y="631.983"/>
      <point x="325.816" y="628.538"/>
      <point x="325" y="625" type="curve" smooth="yes"/>
    </contour>
  </outline>
</glyph>
<glyph name="comma" format="1">
  <advance width="287"/>
  <unicode hex="002C"/>
  <outline>
    <contour>
      <point x="160" y="64" type="curve" smooth="yes"/>
      <point x="156" y="43"/>
      <point x="127" y="-7"/>
      <point x="103" y="-45" type="curve" smooth="yes"/>
      <point x="89" y="-66"/>
      <point x="75" y="-84"/>
      <point x="49" y="-84" type="curve" smooth="yes"/>
      <point x="27.2293" y="-84"/>
      <point x="13.042" y="-69.5915"/>
      <point x="13.042" y="-50.6803" type="curve" smooth="yes"/>
      <point x="13.042" y="-47.8751"/>
      <point x="13.3541" y="-44.9709"/>
      <point x="14" y="-42" type="curve" smooth="yes"/>
      <point x="15" y="-35"/>
      <point x="17" y="-31"/>
      <point x="20" y="-26" type="curve" smooth="yes"/>
      <point x="48" y="21" type="line"/>
      <point x="46.2566" y="26.2302"/>
      <point x="45.1886" y="31.7982"/>
      <point x="45.1886" y="37.9002" type="curve" smooth="yes"/>
      <point x="45.1886" y="42.2982"/>
      <point x="45.7434" y="46.9737"/>
      <point x="47" y="52" type="curve" smooth="yes"/>
      <point x="54" y="85"/>
      <point x="88" y="115"/>
      <point x="119" y="115" type="curve" smooth="yes"/>
      <point x="144.243" y="115"/>
      <point x="161.152" y="97.5731"/>
      <point x="161.152" y="74.5909" type="curve" smooth="yes"/>
      <point x="161.152" y="71.1706"/>
      <point x="160.777" y="67.6273"/>
    </contour>
  </outline>
</glyph>
<glyph name="hyphen" format="1">
  <advance width="467"/>
  <unicode hex="002D"/>
  <outline>
    <contour>
      <point x="325" y="203" type="curve" smooth="yes"/>
      <point x="100" y="203" type="line" smooth="yes"/>
      <point x="79.0334" y="203"/>
      <point x="61.8827" y="219.79"/>
      <point x="61.8827" y="240.703" type="curve" smooth="yes"/>
      <point x="61.8827" y="243.728"/>
      <point x="62.2417" y="246.84"/>
      <point x="63" y="250" type="curve"/>
      <point x="68" y="276"/>
      <point x="96" y="297"/>
      <point x="120" y="297" type="curve" smooth="yes"/>
      <point x="345" y="297" type="line" smooth="yes"/>
      <point x="367.802" y="297"/>
      <point x="382.912" y="280.849"/>
      <point x="382.912" y="259.338" type="curve" smooth="yes"/>
      <point x="382.912" y="256.321"/>
      <point x="382.615" y="253.198"/>
      <point x="382" y="250" type="curve"/>
      <point x="376" y="225"/>
      <point x="351" y="203"/>
    </contour>
  </outline>
</glyph>
<glyph name="period" format="1">
  <advance width="240"/>
  <unicode hex="002E"/>
  <outline>
    <contour>
      <point x="56" y="0" type="curve" smooth="yes"/>
      <point x="29.8493" y="0"/>
      <point x="14.3728" y="17.7903"/>
      <point x="14.3728" y="42.5655" type="curve" smooth="yes"/>
      <point x="14.3728" y="47.1598"/>
      <point x="14.905" y="51.9943"/>
      <point x="16" y="57" type="curve" smooth="yes"/>
      <point x="23" y="90"/>
      <point x="57" y="121"/>
      <point x="88" y="121" type="curve" smooth="yes"/>
      <point x="112.767" y="121"/>
      <point x="129.511" y="102.766"/>
      <point x="129.511" y="78.1322" type="curve" smooth="yes"/>
      <point x="129.511" y="73.922"/>
      <point x="129.022" y="69.5249"/>
      <point x="128" y="65" type="curve" smooth="yes"/>
      <point x="121" y="29"/>
      <point x="86" y="0"/>
    </contour>
  </outline>
</glyph>
<glyph name="slash" format="1">
  <advance width="571"/>
  <unicode hex="002F"/>
  <outline>
    <contour>
      <point x="30" y="70" type="curve" smooth="yes"/>
      <point x="475" y="650" type="line" smooth="yes"/>
      <point x="488" y="668"/>
      <point x="506" y="674"/>
      <point x="522" y="674" type="curve" smooth="yes"/>
      <point x="546.42" y="674"/>
      <point x="560.952" y="655.745"/>
      <point x="560.952" y="636.483" type="curve" smooth="yes"/>
      <point x="560.952" y="633.659"/>
      <point x="560.639" y="630.813"/>
      <point x="560" y="628" type="curve" smooth="yes"/>
      <point x="557" y="615"/>
      <point x="548" y="602"/>
      <point x="543" y="594" type="curve"/>
      <point x="105" y="24" type="line" smooth="yes"/>
      <point x="92" y="8"/>
      <point x="75" y="-1"/>
      <point x="58" y="-1" type="curve" smooth="yes"/>
      <point x="32.6956" y="-1"/>
      <point x="18.0504" y="16.5115"/>
      <point x="18.0504" y="37.5832" type="curve" smooth="yes"/>
      <point x="18.0504" y="40.6607"/>
      <point x="18.3628" y="43.8141"/>
      <point x="19" y="47" type="curve" smooth="yes"/>
      <point x="21" y="55"/>
      <point x="25" y="63"/>
    </contour>
  </outline>
</glyph>
<glyph name="two" format="1">
  <advance width="554"/>
  <unicode hex="0032"/>
  <outline>
    <contour>
      <point x="201" y="503" type="curve" smooth="yes"/>
      <point x="189" y="492"/>
      <point x="178" y="481"/>
      <point x="155" y="481" type="curve" smooth="yes"/>
      <point x="129.87" y="481"/>
      <point x="116.004" y="499.773"/>
      <point x="116.004" y="520.4" type="curve" smooth="yes"/>
      <point x="116.004" y="523.576"/>
      <point x="116.333" y="526.797"/>
      <point x="117" y="530" type="curve" smooth="yes"/>
      <point x="121" y="546"/>
      <point x="130" y="558"/>
      <point x="160" y="582" type="curve" smooth="yes"/>
      <point x="202" y="616"/>
      <point x="273" y="660"/>
      <point x="355" y="660" type="curve" smooth="yes"/>
      <point x="454.382" y="660"/>
      <point x="515.004" y="599.961"/>
      <point x="515.004" y="520.298" type="curve" smooth="yes"/>
      <point x="515.004" y="508.581"/>
      <point x="513.693" y="496.438"/>
      <point x="511" y="484" type="curve" smooth="yes"/>
      <point x="488" y="372"/>
      <point x="390" y="315"/>
      <point x="303" y="266" type="curve" smooth="yes"/>
      <point x="233" y="226"/>
      <point x="160" y="182"/>
      <point x="128" y="95" type="curve"/>
      <point x="389" y="95" type="line" smooth="yes"/>
      <point x="410.723" y="95"/>
      <point x="427.161" y="79.1448"/>
      <point x="427.161" y="57.2749" type="curve" smooth="yes"/>
      <point x="427.161" y="53.9755"/>
      <point x="426.787" y="50.5393"/>
      <point x="426" y="47" type="curve" smooth="yes"/>
      <point x="421" y="21"/>
      <point x="394" y="0"/>
      <point x="369" y="0" type="curve" smooth="yes"/>
      <point x="9" y="0" type="line"/>
      <point x="18" y="47" type="line"/>
      <point x="55" y="220"/>
      <point x="163" y="288"/>
      <point x="259" y="342" type="curve" smooth="yes"/>
      <point x="342" y="390"/>
      <point x="402" y="423"/>
      <point x="415" y="484" type="curve" smooth="yes"/>
      <point x="416.124" y="489.283"/>
      <point x="416.667" y="494.389"/>
      <point x="416.667" y="499.291" type="curve" smooth="yes"/>
      <point x="416.667" y="538.002"/>
      <point x="382.818" y="564"/>
      <point x="334" y="564" type="curve" smooth="yes"/>
      <point x="269" y="564"/>
      <point x="210" y="511"/>
    </contour>
  </outline>
</glyph>
<glyph name="three" format="1">
  <advance width="569"/>
  <unicode hex="0033"/>
  <outline>
    <contour>
      <point x="229" y="539" type="curve" smooth="yes"/>
      <point x="215" y="531"/>
      <point x="208" y="526"/>
      <point x="195" y="526" type="curve" smooth="yes"/>
      <point x="167.558" y="526"/>
      <point x="156.713" y="543.287"/>
      <point x="156.713" y="562.337" type="curve" smooth="yes"/>
      <point x="156.713" y="566.195"/>
      <point x="157.158" y="570.126"/>
      <point x="158" y="574" type="curve" smooth="yes"/>
      <point x="161" y="590"/>
      <point x="172" y="608"/>
      <point x="210" y="629" type="curve" smooth="yes"/>
      <point x="243" y="647"/>
      <point x="296" y="667"/>
      <point x="353" y="667" type="curve" smooth="yes"/>
      <point x="451.918" y="667"/>
      <point x="519.07" y="611.409"/>
      <point x="519.07" y="534.906" type="curve" smooth="yes"/>
      <point x="519.07" y="525.561"/>
      <point x="518.068" y="515.905"/>
      <point x="516" y="506" type="curve" smooth="yes"/>
      <point x="505" y="452"/>
      <point x="469" y="406"/>
      <point x="419" y="372" type="curve"/>
      <point x="455.146" y="344.137"/>
      <point x="472.579" y="302.097"/>
      <point x="472.579" y="253.567" type="curve" smooth="yes"/>
      <point x="472.579" y="237.652"/>
      <point x="470.704" y="221.04"/>
      <point x="467" y="204" type="curve" smooth="yes"/>
      <point x="434" y="50"/>
      <point x="297" y="-5"/>
      <point x="211" y="-5" type="curve" smooth="yes"/>
      <point x="125" y="-5"/>
      <point x="54" y="40"/>
      <point x="39" y="104" type="curve" smooth="yes"/>
      <point x="36" y="115"/>
      <point x="36" y="128"/>
      <point x="37" y="134" type="curve" smooth="yes"/>
      <point x="43" y="160"/>
      <point x="68" y="180"/>
      <point x="95" y="180" type="curve" smooth="yes"/>
      <point x="115" y="180"/>
      <point x="126" y="170"/>
      <point x="131" y="154" type="curve" smooth="yes"/>
      <point x="137" y="136"/>
      <point x="162" y="91"/>
      <point x="230" y="91" type="curve" smooth="yes"/>
      <point x="284" y="91"/>
      <point x="353" y="126"/>
      <point x="370" y="204" type="curve" smooth="yes"/>
      <point x="371.98" y="213.502"/>
      <point x="372.891" y="222.269"/>
      <point x="372.891" y="230.354" type="curve" smooth="yes"/>
      <point x="372.891" y="303.951"/>
      <point x="297.338" y="321"/>
      <point x="264" y="321" type="curve" smooth="yes"/>
      <point x="240.662" y="321"/>
      <point x="224.796" y="337.437"/>
      <point x="224.796" y="358.686" type="curve" smooth="yes"/>
      <point x="224.796" y="362.021"/>
      <point x="225.186" y="365.474"/>
      <point x="226" y="369" type="curve" smooth="yes"/>
      <point x="232" y="396"/>
      <point x="257" y="417"/>
      <point x="285" y="417" type="curve" smooth="yes"/>
      <point x="339" y="417"/>
      <point x="410" y="458"/>
      <point x="420" y="506" type="curve" smooth="yes"/>
      <point x="420.681" y="509.014"/>
      <point x="421.021" y="512.047"/>
      <point x="421.021" y="515.066" type="curve" smooth="yes"/>
      <point x="421.021" y="543.105"/>
      <point x="391.681" y="570"/>
      <point x="333" y="570" type="curve" smooth="yes"/>
      <point x="283" y="570"/>
      <point x="248" y="551"/>
    </contour>
  </outline>
</glyph>
<glyph name="four" format="1">
  <advance width="534"/>
  <unicode hex="0034"/>
  <outline>
    <contour>
      <point x="297" y="-1" type="curve" smooth="yes"/>
      <point x="273.311" y="-1"/>
      <point x="258.09" y="16.705"/>
      <point x="258.09" y="37.9318" type="curve" smooth="yes"/>
      <point x="258.09" y="40.8987"/>
      <point x="258.387" y="43.9343"/>
      <point x="259" y="47" type="curve" smooth="yes"/>
      <point x="282" y="151" type="line"/>
      <point x="77" y="154" type="line" smooth="yes"/>
      <point x="49.8835" y="154"/>
      <point x="37.8465" y="169.079"/>
      <point x="37.8465" y="189.503" type="curve" smooth="yes"/>
      <point x="37.8465" y="193.181"/>
      <point x="38.2369" y="197.032"/>
      <point x="39" y="201" type="curve" smooth="yes"/>
      <point x="41" y="211"/>
      <point x="46" y="219"/>
      <point x="53" y="228" type="curve" smooth="yes"/>
      <point x="394" y="644" type="line" smooth="yes"/>
      <point x="407" y="659"/>
      <point x="421" y="667"/>
      <point x="439" y="667" type="curve" smooth="yes"/>
      <point x="463.214" y="667"/>
      <point x="479.202" y="651.295"/>
      <point x="479.202" y="629.585" type="curve" smooth="yes"/>
      <point x="479.202" y="626.191"/>
      <point x="478.811" y="622.65"/>
      <point x="478" y="619" type="curve" smooth="yes"/>
      <point x="399" y="245" type="line"/>
      <point x="409" y="245" type="line" smooth="yes"/>
      <point x="431.838" y="245"/>
      <point x="445.375" y="229.26"/>
      <point x="445.375" y="208.673" type="curve" smooth="yes"/>
      <point x="445.375" y="204.921"/>
      <point x="444.925" y="201.008"/>
      <point x="444" y="197" type="curve"/>
      <point x="439" y="170"/>
      <point x="410" y="149"/>
      <point x="384" y="149" type="curve" smooth="yes"/>
      <point x="378" y="149" type="line"/>
      <point x="356" y="47" type="line" smooth="yes"/>
      <point x="351" y="22"/>
      <point x="323" y="-1"/>
    </contour>
    <contour>
      <point x="345" y="447" type="line"/>
      <point x="183" y="250" type="line"/>
      <point x="302" y="247" type="line"/>
    </contour>
  </outline>
</glyph>
<glyph name="five" format="1">
  <advance width="585"/>
  <unicode hex="0035"/>
  <outline>
    <contour>
      <point x="37" y="109" type="curve" smooth="yes"/>
      <point x="35" y="116"/>
      <point x="35" y="124"/>
      <point x="37" y="132" type="curve" smooth="yes"/>
      <point x="42" y="157"/>
      <point x="70" y="180"/>
      <point x="95" y="180" type="curve" smooth="yes"/>
      <point x="118" y="180"/>
      <point x="124" y="170"/>
      <point x="131" y="156" type="curve" smooth="yes"/>
      <point x="150" y="116"/>
      <point x="181" y="94"/>
      <point x="232" y="94" type="curve" smooth="yes"/>
      <point x="303" y="94"/>
      <point x="382" y="166"/>
      <point x="400" y="253" type="curve"/>
      <point x="402.941" y="266.136"/>
      <point x="404.498" y="279.31"/>
      <point x="404.498" y="292.002" type="curve" smooth="yes"/>
      <point x="404.498" y="344.05"/>
      <point x="378.316" y="388"/>
      <point x="314" y="388" type="curve" smooth="yes"/>
      <point x="249" y="388"/>
      <point x="199" y="344"/>
      <point x="188" y="335" type="curve" smooth="yes"/>
      <point x="174" y="324"/>
      <point x="163" y="320"/>
      <point x="149" y="320" type="curve" smooth="yes"/>
      <point x="122.249" y="320"/>
      <point x="109.117" y="335.476"/>
      <point x="109.117" y="356.687" type="curve" smooth="yes"/>
      <point x="109.117" y="362.435"/>
      <point x="110.081" y="368.604"/>
      <point x="112" y="375" type="curve" smooth="yes"/>
      <point x="187" y="614" type="line" smooth="yes"/>
      <point x="194" y="638"/>
      <point x="220" y="657"/>
      <point x="244" y="657" type="curve" smooth="yes"/>
      <point x="509" y="657" type="line" smooth="yes"/>
      <point x="531.171" y="657"/>
      <point x="547.837" y="638.91"/>
      <point x="547.837" y="617.379" type="curve" smooth="yes"/>
      <point x="547.837" y="614.632"/>
      <point x="547.566" y="611.829"/>
      <point x="547" y="609" type="curve" smooth="yes"/>
      <point x="541" y="581"/>
      <point x="514" y="560"/>
      <point x="489" y="560" type="curve" smooth="yes"/>
      <point x="268" y="560" type="line"/>
      <point x="238" y="466" type="line"/>
      <point x="266" y="477"/>
      <point x="299" y="484"/>
      <point x="334" y="484" type="curve" smooth="yes"/>
      <point x="435.607" y="484"/>
      <point x="502.8" y="418.042"/>
      <point x="502.8" y="313.442" type="curve" smooth="yes"/>
      <point x="502.8" y="294.507"/>
      <point x="500.598" y="274.306"/>
      <point x="496" y="253" type="curve" smooth="yes"/>
      <point x="466" y="112"/>
      <point x="332" y="-3"/>
      <point x="212" y="-3" type="curve" smooth="yes"/>
      <point x="98" y="-3"/>
      <point x="45" y="77"/>
    </contour>
  </outline>
</glyph>
<glyph name="six" format="1">
  <advance width="572"/>
  <unicode hex="0036"/>
  <outline>
    <contour>
      <point x="162" y="302" type="curve"/>
      <point x="156" y="283"/>
      <point x="152" y="265"/>
      <point x="148" y="247" type="curve" smooth="yes"/>
      <point x="143.571" y="225.837"/>
      <point x="141.563" y="207.419"/>
      <point x="141.563" y="191.415" type="curve" smooth="yes"/>
      <point x="141.563" y="109.868"/>
      <point x="193.679" y="91"/>
      <point x="243" y="91" type="curve" smooth="yes"/>
      <point x="275" y="91"/>
      <point x="361" y="118"/>
      <point x="387" y="243" type="curve" smooth="yes"/>
      <point x="389.699" y="255.757"/>
      <point x="390.908" y="267.069"/>
      <point x="390.908" y="277.1" type="curve" smooth="yes"/>
      <point x="390.908" y="348.842"/>
      <point x="329.056" y="355"/>
      <point x="308" y="355" type="curve" smooth="yes"/>
      <point x="239" y="355"/>
      <point x="186" y="320"/>
    </contour>
    <contour>
      <point x="426" y="575" type="curve" smooth="yes"/>
      <point x="351" y="543"/>
      <point x="285" y="495"/>
      <point x="236" y="434" type="curve"/>
      <point x="263" y="443"/>
      <point x="294" y="449"/>
      <point x="328" y="449" type="curve" smooth="yes"/>
      <point x="419.854" y="449"/>
      <point x="486.391" y="397.642"/>
      <point x="486.391" y="299.232" type="curve" smooth="yes"/>
      <point x="486.391" y="281.934"/>
      <point x="484.335" y="263.182"/>
      <point x="480" y="243" type="curve" smooth="yes"/>
      <point x="437" y="40"/>
      <point x="278" y="-3"/>
      <point x="223" y="-3" type="curve" smooth="yes"/>
      <point x="132.377" y="-3"/>
      <point x="46.0585" y="40.0385"/>
      <point x="46.0585" y="168.642" type="curve" smooth="yes"/>
      <point x="46.0585" y="191.883"/>
      <point x="48.8776" y="217.919"/>
      <point x="55" y="247" type="curve" smooth="yes"/>
      <point x="114" y="526"/>
      <point x="349" y="635"/>
      <point x="397" y="657" type="curve" smooth="yes"/>
      <point x="407" y="661"/>
      <point x="416" y="664"/>
      <point x="426" y="664" type="curve" smooth="yes"/>
      <point x="448.653" y="664"/>
      <point x="462.956" y="648.818"/>
      <point x="462.956" y="627.713" type="curve" smooth="yes"/>
      <point x="462.956" y="624.594"/>
      <point x="462.644" y="621.347"/>
      <point x="462" y="618" type="curve" smooth="yes"/>
      <point x="458" y="598"/>
      <point x="443" y="582"/>
    </contour>
  </outline>
</glyph>
<glyph name="seven" format="1">
  <advance width="527"/>
  <unicode hex="0037"/>
  <outline>
    <contour>
      <point x="100" y="1" type="curve" smooth="yes"/>
      <point x="76.311" y="1"/>
      <point x="61.0895" y="18.705"/>
      <point x="61.0895" y="39.9318" type="curve" smooth="yes"/>
      <point x="61.0895" y="42.8987"/>
      <point x="61.3869" y="45.9343"/>
      <point x="62" y="49" type="curve" smooth="yes"/>
      <point x="63" y="55"/>
      <point x="67" y="63"/>
      <point x="72" y="70" type="curve" smooth="yes"/>
      <point x="422" y="558" type="line"/>
      <point x="172" y="558" type="line" smooth="yes"/>
      <point x="148.311" y="558"/>
      <point x="133.09" y="574.165"/>
      <point x="133.09" y="596.365" type="curve" smooth="yes"/>
      <point x="133.09" y="599.468"/>
      <point x="133.387" y="602.689"/>
      <point x="134" y="606" type="curve"/>
      <point x="140" y="631"/>
      <point x="166" y="654"/>
      <point x="193" y="654" type="curve" smooth="yes"/>
      <point x="520" y="654" type="line" smooth="yes"/>
      <point x="543.183" y="654"/>
      <point x="558.257" y="637.78"/>
      <point x="558.257" y="616.102" type="curve" smooth="yes"/>
      <point x="558.257" y="612.533"/>
      <point x="557.848" y="608.817"/>
      <point x="557" y="605" type="curve" smooth="yes"/>
      <point x="556" y="599"/>
      <point x="552" y="591"/>
      <point x="548" y="584" type="curve"/>
      <point x="148" y="27" type="line" smooth="yes"/>
      <point x="135" y="8"/>
      <point x="116" y="1"/>
    </contour>
  </outline>
</glyph>
<glyph name="eight" format="1">
  <advance width="573"/>
  <unicode hex="0038"/>
  <outline>
    <contour>
      <point x="217" y="-3" type="curve" smooth="yes"/>
      <point x="109.637" y="-3"/>
      <point x="42.6551" y="57.9519"/>
      <point x="42.6551" y="145.274" type="curve" smooth="yes"/>
      <point x="42.6551" y="157.992"/>
      <point x="44.076" y="171.27"/>
      <point x="47" y="185" type="curve"/>
      <point x="67" y="272"/>
      <point x="127" y="324"/>
      <point x="184" y="357" type="curve"/>
      <point x="155.666" y="378.25"/>
      <point x="136.624" y="406.314"/>
      <point x="136.624" y="448.505" type="curve" smooth="yes"/>
      <point x="136.624" y="459.921"/>
      <point x="138.019" y="472.371"/>
      <point x="141" y="486" type="curve" smooth="yes"/>
      <point x="165" y="600"/>
      <point x="268" y="669"/>
      <point x="370" y="669" type="curve" smooth="yes"/>
      <point x="463.771" y="669"/>
      <point x="522.11" y="616.984"/>
      <point x="522.11" y="538.479" type="curve" smooth="yes"/>
      <point x="522.11" y="526.566"/>
      <point x="520.767" y="514.044"/>
      <point x="518" y="501" type="curve" smooth="yes"/>
      <point x="504" y="435"/>
      <point x="460" y="392"/>
      <point x="412" y="363" type="curve"/>
      <point x="450.996" y="330.371"/>
      <point x="472.258" y="286.342"/>
      <point x="472.258" y="234.944" type="curve" smooth="yes"/>
      <point x="472.258" y="221.758"/>
      <point x="470.858" y="208.088"/>
      <point x="468" y="194" type="curve" smooth="yes"/>
      <point x="444" y="82"/>
      <point x="337" y="-3"/>
    </contour>
    <contour>
      <point x="293" y="310" type="curve"/>
      <point x="230" y="284"/>
      <point x="157" y="255"/>
      <point x="141" y="180" type="curve" smooth="yes"/>
      <point x="139.842" y="174.633"/>
      <point x="139.283" y="169.432"/>
      <point x="139.283" y="164.422" type="curve" smooth="yes"/>
      <point x="139.283" y="121.822"/>
      <point x="179.735" y="93"/>
      <point x="237" y="93" type="curve" smooth="yes"/>
      <point x="290" y="93"/>
      <point x="359" y="124"/>
      <point x="373" y="192" type="curve" smooth="yes"/>
      <point x="374.594" y="199.482"/>
      <point x="375.347" y="206.633"/>
      <point x="375.347" y="213.454" type="curve" smooth="yes"/>
      <point x="375.347" y="262.251"/>
      <point x="336.867" y="294.208"/>
    </contour>
    <contour>
      <point x="349" y="572" type="curve" smooth="yes"/>
      <point x="347" y="572"/>
      <point x="253" y="571"/>
      <point x="236" y="490" type="curve" smooth="yes"/>
      <point x="234.922" y="484.878"/>
      <point x="234.37" y="480.046"/>
      <point x="234.37" y="475.473" type="curve" smooth="yes"/>
      <point x="234.37" y="446.123"/>
      <point x="257.088" y="427.439"/>
      <point x="309" y="411" type="curve"/>
      <point x="391" y="442"/>
      <point x="417" y="472"/>
      <point x="424" y="506" type="curve" smooth="yes"/>
      <point x="424.955" y="510.351"/>
      <point x="425.415" y="514.521"/>
      <point x="425.415" y="518.5" type="curve" smooth="yes"/>
      <point x="425.415" y="552.024"/>
      <point x="392.801" y="572"/>
    </contour>
  </outline>
</glyph>
<glyph name="nine" format="1">
  <advance width="572"/>
  <unicode hex="0039"/>
  <outline>
    <contour>
      <point x="409" y="362" type="curve"/>
      <point x="416" y="381"/>
      <point x="420" y="398"/>
      <point x="424" y="417" type="curve" smooth="yes"/>
      <point x="428.672" y="438.524"/>
      <point x="430.782" y="457.208"/>
      <point x="430.782" y="473.401" type="curve" smooth="yes"/>
      <point x="430.782" y="554.258"/>
      <point x="378.156" y="573"/>
      <point x="329" y="573" type="curve" smooth="yes"/>
      <point x="298" y="573"/>
      <point x="212" y="546"/>
      <point x="185" y="422" type="curve" smooth="yes"/>
      <point x="182.301" y="409.121"/>
      <point x="181.092" y="397.701"/>
      <point x="181.092" y="387.576" type="curve" smooth="yes"/>
      <point x="181.092" y="315.158"/>
      <point x="242.944" y="309"/>
      <point x="264" y="309" type="curve" smooth="yes"/>
      <point x="332" y="309"/>
      <point x="386" y="343"/>
    </contour>
    <contour>
      <point x="146" y="89" type="curve" smooth="yes"/>
      <point x="219" y="121"/>
      <point x="288" y="170"/>
      <point x="336" y="230" type="curve"/>
      <point x="309" y="221"/>
      <point x="278" y="215"/>
      <point x="244" y="215" type="curve" smooth="yes"/>
      <point x="152.146" y="215"/>
      <point x="85.6088" y="266.358"/>
      <point x="85.6088" y="365.383" type="curve" smooth="yes"/>
      <point x="85.6088" y="382.789"/>
      <point x="87.6646" y="401.668"/>
      <point x="92" y="422" type="curve" smooth="yes"/>
      <point x="135" y="624"/>
      <point x="294" y="667"/>
      <point x="349" y="667" type="curve" smooth="yes"/>
      <point x="440.16" y="667"/>
      <point x="526.333" y="624.252"/>
      <point x="526.333" y="496.66" type="curve" smooth="yes"/>
      <point x="526.333" y="473.09"/>
      <point x="523.393" y="446.625"/>
      <point x="517" y="417" type="curve" smooth="yes"/>
      <point x="458" y="138"/>
      <point x="223" y="29"/>
      <point x="175" y="7" type="curve" smooth="yes"/>
      <point x="165" y="3"/>
      <point x="157" y="0"/>
      <point x="148" y="0" type="curve" smooth="yes"/>
      <point x="124.311" y="0"/>
      <point x="109.09" y="15.3956"/>
      <point x="109.09" y="36.7315" type="curve" smooth="yes"/>
      <point x="109.09" y="39.7136"/>
      <point x="109.387" y="42.8117"/>
      <point x="110" y="46" type="curve"/>
      <point x="115" y="66"/>
      <point x="129" y="82"/>
    </contour>
  </outline>
</glyph>
<glyph name="colon" format="1">
  <advance width="261"/>
  <unicode hex="003A"/>
  <outline>
    <contour>
      <point x="53" y="0" type="curve" smooth="yes"/>
      <point x="27.0437" y="7.10543e-15"/>
      <point x="12.3046" y="17.5268"/>
      <point x="12.3046" y="42.0142" type="curve" smooth="yes"/>
      <point x="12.3046" y="46.7725"/>
      <point x="12.8611" y="51.7936"/>
      <point x="14" y="57" type="curve" smooth="yes"/>
      <point x="21" y="90"/>
      <point x="55" y="121"/>
      <point x="86" y="121" type="curve" smooth="yes"/>
      <point x="110.604" y="121"/>
      <point x="126.571" y="103.004"/>
      <point x="126.571" y="78.617" type="curve" smooth="yes"/>
      <point x="126.571" y="74.2599"/>
      <point x="126.061" y="69.6989"/>
      <point x="125" y="65" type="curve" smooth="yes"/>
      <point x="118" y="29"/>
      <point x="84" y="0"/>
    </contour>
    <contour>
      <point x="149" y="325" type="curve" smooth="yes"/>
      <point x="122.849" y="325"/>
      <point x="107.373" y="343.502"/>
      <point x="107.373" y="367.899" type="curve" smooth="yes"/>
      <point x="107.373" y="372.424"/>
      <point x="107.905" y="377.151"/>
      <point x="109" y="382" type="curve" smooth="yes"/>
      <point x="116" y="415"/>
      <point x="150" y="446"/>
      <point x="181" y="446" type="curve" smooth="yes"/>
      <point x="206.243" y="446"/>
      <point x="223.152" y="427.815"/>
      <point x="223.152" y="402.658" type="curve" smooth="yes"/>
      <point x="223.152" y="398.914"/>
      <point x="222.777" y="395.016"/>
      <point x="222" y="391" type="curve" smooth="yes"/>
      <point x="214" y="354"/>
      <point x="180" y="325"/>
    </contour>
  </outline>
</glyph>
<glyph name="semicolon" format="1">
  <advance width="297"/>
  <unicode hex="003B"/>
  <outline>
    <contour>
      <point x="186" y="325" type="curve" smooth="yes"/>
      <point x="160.044" y="325"/>
      <point x="145.305" y="343.228"/>
      <point x="145.305" y="367.356" type="curve" smooth="yes"/>
      <point x="145.305" y="372.045"/>
      <point x="145.861" y="376.956"/>
      <point x="147" y="382" type="curve" smooth="yes"/>
      <point x="154" y="415"/>
      <point x="188" y="446"/>
      <point x="219" y="446" type="curve" smooth="yes"/>
      <point x="244.091" y="446"/>
      <point x="260.2" y="428.033"/>
      <point x="260.2" y="403.111" type="curve" smooth="yes"/>
      <point x="260.2" y="399.229"/>
      <point x="259.809" y="395.178"/>
      <point x="259" y="391" type="curve" smooth="yes"/>
      <point x="251" y="354"/>
      <point x="217" y="325"/>
    </contour>
    <contour>
      <point x="157" y="64" type="curve" smooth="yes"/>
      <point x="153" y="43"/>
      <point x="124" y="-7"/>
      <point x="100" y="-45" type="curve" smooth="yes"/>
      <point x="86" y="-66"/>
      <point x="72" y="-84"/>
      <point x="46" y="-84" type="curve" smooth="yes"/>
      <point x="24.2293" y="-84"/>
      <point x="10.042" y="-69.5915"/>
      <point x="10.042" y="-50.6803" type="curve" smooth="yes"/>
      <point x="10.042" y="-47.8751"/>
      <point x="10.3541" y="-44.9709"/>
      <point x="11" y="-42" type="curve" smooth="yes"/>
      <point x="12" y="-35"/>
      <point x="14" y="-31"/>
      <point x="17" y="-26" type="curve" smooth="yes"/>
      <point x="45" y="21" type="line"/>
      <point x="43.2566" y="26.2302"/>
      <point x="42.1886" y="31.7982"/>
      <point x="42.1886" y="37.9002" type="curve" smooth="yes"/>
      <point x="42.1886" y="42.2982"/>
      <point x="42.7434" y="46.9737"/>
      <point x="44" y="52" type="curve" smooth="yes"/>
      <point x="51" y="85"/>
      <point x="85" y="115"/>
      <point x="116" y="115" type="curve" smooth="yes"/>
      <point x="141.243" y="115"/>
      <point x="158.152" y="97.5731"/>
      <point x="158.152" y="74.5909" type="curve" smooth="yes"/>
      <point x="158.152" y="71.1706"/>
      <point x="157.777" y="67.6273"/>
    </contour>
  </outline>
</glyph>
<glyph name="less" format="1">
  <advance width="566"/>
  <unicode hex="003C"/>
  <outline>
    <contour>
      <point x="327" y="15" type="curve" smooth="yes"/>
      <point x="77" y="207" type="line" smooth="yes"/>
      <point x="67.8328" y="214.639"/>
      <point x="63.918" y="224.613"/>
      <point x="63.918" y="236.475" type="curve" smooth="yes"/>
      <point x="63.918" y="240.141"/>
      <point x="64.2918" y="243.987"/>
      <point x="65" y="248" type="curve" smooth="yes"/>
      <point x="68" y="263"/>
      <point x="76" y="277"/>
      <point x="96" y="288" type="curve" smooth="yes"/>
      <point x="444" y="484" type="line" smooth="yes"/>
      <point x="453" y="489"/>
      <point x="463" y="492"/>
      <point x="472" y="492" type="curve" smooth="yes"/>
      <point x="494.602" y="492"/>
      <point x="511.158" y="476.13"/>
      <point x="511.158" y="453.588" type="curve" smooth="yes"/>
      <point x="511.158" y="450.199"/>
      <point x="510.784" y="446.659"/>
      <point x="510" y="443" type="curve" smooth="yes"/>
      <point x="506" y="428"/>
      <point x="494" y="411"/>
      <point x="479" y="403" type="curve" smooth="yes"/>
      <point x="201" y="247" type="line"/>
      <point x="397" y="95" type="line" smooth="yes"/>
      <point x="406.264" y="87.28"/>
      <point x="411.356" y="77.176"/>
      <point x="411.356" y="65.6083" type="curve" smooth="yes"/>
      <point x="411.356" y="62.192"/>
      <point x="410.912" y="58.648"/>
      <point x="410" y="55" type="curve" smooth="yes"/>
      <point x="405" y="30"/>
      <point x="377" y="7"/>
      <point x="352" y="7" type="curve" smooth="yes"/>
      <point x="344" y="7"/>
      <point x="334" y="10"/>
    </contour>
  </outline>
</glyph>
<glyph name="equal" format="1">
  <advance width="519"/>
  <unicode hex="003D"/>
  <outline>
    <contour>
      <point x="386" y="292" type="curve" smooth="yes"/>
      <point x="126" y="292" type="line" smooth="yes"/>
      <point x="102.817" y="292"/>
      <point x="87.7433" y="307.483"/>
      <point x="87.7433" y="328.319" type="curve" smooth="yes"/>
      <point x="87.7433" y="331.749"/>
      <point x="88.1518" y="335.325"/>
      <point x="89" y="339" type="curve" smooth="yes"/>
      <point x="94" y="364"/>
      <point x="119" y="387"/>
      <point x="146" y="387" type="curve" smooth="yes"/>
      <point x="406" y="387" type="line" smooth="yes"/>
      <point x="428.171" y="387"/>
      <point x="444.837" y="368.91"/>
      <point x="444.837" y="347.379" type="curve" smooth="yes"/>
      <point x="444.837" y="344.632"/>
      <point x="444.566" y="341.829"/>
      <point x="444" y="339" type="curve" smooth="yes"/>
      <point x="438" y="313"/>
      <point x="411" y="292"/>
    </contour>
    <contour>
      <point x="347" y="112" type="curve" smooth="yes"/>
      <point x="87" y="112" type="line" smooth="yes"/>
      <point x="63.4639" y="112"/>
      <point x="49.0463" y="127.957"/>
      <point x="49.0463" y="149.274" type="curve" smooth="yes"/>
      <point x="49.0463" y="152.411"/>
      <point x="49.3585" y="155.664"/>
      <point x="50" y="159" type="curve"/>
      <point x="56" y="184"/>
      <point x="80" y="207"/>
      <point x="107" y="207" type="curve" smooth="yes"/>
      <point x="367" y="207" type="line" smooth="yes"/>
      <point x="388.849" y="207"/>
      <point x="406.115" y="189.432"/>
      <point x="406.115" y="168.315" type="curve" smooth="yes"/>
      <point x="406.115" y="165.27"/>
      <point x="405.756" y="162.151"/>
      <point x="405" y="159" type="curve"/>
      <point x="400" y="133"/>
      <point x="372" y="112"/>
    </contour>
  </outline>
</glyph>
<glyph name="greater" format="1">
  <advance width="566"/>
  <unicode hex="003E"/>
  <outline>
    <contour>
      <point x="443" y="207" type="curve" smooth="yes"/>
      <point x="113" y="15" type="line" smooth="yes"/>
      <point x="104" y="10"/>
      <point x="92" y="7"/>
      <point x="84" y="7" type="curve" smooth="yes"/>
      <point x="61.8287" y="7"/>
      <point x="45.163" y="25.0896"/>
      <point x="45.163" y="46.6211" type="curve" smooth="yes"/>
      <point x="45.163" y="49.3682"/>
      <point x="45.4343" y="52.1713"/>
      <point x="46" y="55" type="curve" smooth="yes"/>
      <point x="50" y="71"/>
      <point x="61" y="85"/>
      <point x="77" y="95" type="curve" smooth="yes"/>
      <point x="337" y="247" type="line"/>
      <point x="125" y="403" type="line" smooth="yes"/>
      <point x="116.323" y="409.311"/>
      <point x="110.757" y="421.222"/>
      <point x="110.757" y="433.334" type="curve" smooth="yes"/>
      <point x="110.757" y="436.576"/>
      <point x="111.155" y="439.833"/>
      <point x="112" y="443" type="curve" smooth="yes"/>
      <point x="118" y="471"/>
      <point x="144" y="492"/>
      <point x="170" y="492" type="curve" smooth="yes"/>
      <point x="179" y="492"/>
      <point x="187" y="489"/>
      <point x="194" y="484" type="curve" smooth="yes"/>
      <point x="460" y="288" type="line" smooth="yes"/>
      <point x="470.435" y="279.801"/>
      <point x="474.204" y="269.935"/>
      <point x="474.204" y="259.23" type="curve" smooth="yes"/>
      <point x="474.204" y="255.574"/>
      <point x="473.764" y="251.819"/>
      <point x="473" y="248" type="curve" smooth="yes"/>
      <point x="470" y="231"/>
      <point x="461" y="217"/>
    </contour>
  </outline>
</glyph>
<glyph name="at" format="1">
  <advance width="854"/>
  <unicode hex="0040"/>
  <outline>
    <contour>
      <point x="501" y="35" type="curve" smooth="yes"/>
      <point x="517" y="44"/>
      <point x="525" y="47"/>
      <point x="535" y="47" type="curve" smooth="yes"/>
      <point x="557.939" y="47"/>
      <point x="573.872" y="30.6537"/>
      <point x="573.872" y="8.94904" type="curve" smooth="yes"/>
      <point x="573.872" y="6.05274"/>
      <point x="573.589" y="3.06102"/>
      <point x="573" y="0" type="curve"/>
      <point x="569" y="-15"/>
      <point x="562" y="-27"/>
      <point x="539" y="-42" type="curve" smooth="yes"/>
      <point x="494" y="-70"/>
      <point x="433" y="-85"/>
      <point x="348" y="-85" type="curve" smooth="yes"/>
      <point x="180.989" y="-85"/>
      <point x="61.3826" y="25.8636"/>
      <point x="61.3826" y="182.742" type="curve" smooth="yes"/>
      <point x="61.3826" y="205.276"/>
      <point x="63.8504" y="228.759"/>
      <point x="69" y="253" type="curve" smooth="yes"/>
      <point x="112" y="455"/>
      <point x="295" y="607"/>
      <point x="498" y="607" type="curve" smooth="yes"/>
      <point x="655.919" y="607"/>
      <point x="762.642" y="501.597"/>
      <point x="762.642" y="353.504" type="curve" smooth="yes"/>
      <point x="762.642" y="330.921"/>
      <point x="760.16" y="307.346"/>
      <point x="755" y="283" type="curve" smooth="yes"/>
      <point x="716" y="101"/>
      <point x="578" y="86"/>
      <point x="544" y="86" type="curve" smooth="yes"/>
      <point x="486" y="86"/>
      <point x="446" y="113"/>
      <point x="428" y="147" type="curve"/>
      <point x="394" y="119"/>
      <point x="357" y="99"/>
      <point x="315" y="99" type="curve" smooth="yes"/>
      <point x="241.659" y="99"/>
      <point x="211.482" y="140.836"/>
      <point x="211.482" y="197.993" type="curve" smooth="yes"/>
      <point x="211.482" y="210.975"/>
      <point x="213.038" y="224.748"/>
      <point x="216" y="239" type="curve" smooth="yes"/>
      <point x="238" y="341"/>
      <point x="335" y="435"/>
      <point x="435" y="435" type="curve" smooth="yes"/>
      <point x="467" y="435"/>
      <point x="497" y="426"/>
      <point x="525" y="406" type="curve" smooth="yes"/>
      <point x="540.505" y="394.371"/>
      <point x="546.394" y="383.343"/>
      <point x="546.394" y="371.985" type="curve" smooth="yes"/>
      <point x="546.394" y="368.692"/>
      <point x="545.899" y="365.371"/>
      <point x="545" y="362" type="curve" smooth="yes"/>
      <point x="541" y="343"/>
      <point x="527" y="327"/>
      <point x="511" y="320" type="curve"/>
      <point x="522.56" y="313.394"/>
      <point x="530.03" y="300.651"/>
      <point x="530.03" y="285.713" type="curve" smooth="yes"/>
      <point x="530.03" y="282.561"/>
      <point x="529.697" y="279.311"/>
      <point x="529" y="276" type="curve" smooth="yes"/>
      <point x="526" y="261"/>
      <point x="516" y="248"/>
      <point x="512" y="230" type="curve" smooth="yes"/>
      <point x="511.254" y="226.119"/>
      <point x="510.864" y="222.326"/>
      <point x="510.864" y="218.68" type="curve" smooth="yes"/>
      <point x="510.864" y="197.899"/>
      <point x="523.524" y="181.851"/>
      <point x="555" y="181" type="curve" smooth="yes"/>
      <point x="586" y="181"/>
      <point x="640" y="190"/>
      <point x="660" y="283" type="curve" smooth="yes"/>
      <point x="663.585" y="300.027"/>
      <point x="665.407" y="317.076"/>
      <point x="665.407" y="333.761" type="curve" smooth="yes"/>
      <point x="665.407" y="428.787"/>
      <point x="606.298" y="512"/>
      <point x="477" y="512" type="curve" smooth="yes"/>
      <point x="348" y="512"/>
      <point x="200" y="423"/>
      <point x="164" y="253" type="curve" smooth="yes"/>
      <point x="160.158" y="234.921"/>
      <point x="158.359" y="217.8"/>
      <point x="158.359" y="201.651" type="curve" smooth="yes"/>
      <point x="158.359" y="74.8765"/>
      <point x="269.22" y="8"/>
      <point x="373" y="8" type="curve" smooth="yes"/>
      <point x="431" y="8"/>
      <point x="467" y="16"/>
    </contour>
    <contour>
      <point x="442" y="293" type="curve" smooth="yes"/>
      <point x="451" y="306"/>
      <point x="459" y="314"/>
      <point x="469" y="319" type="curve"/>
      <point x="456" y="330"/>
      <point x="437" y="342"/>
      <point x="416" y="342" type="curve" smooth="yes"/>
      <point x="368" y="342"/>
      <point x="322" y="292"/>
      <point x="310" y="239" type="curve" smooth="yes"/>
      <point x="308.689" y="232.445"/>
      <point x="308.08" y="226.732"/>
      <point x="308.08" y="221.776" type="curve" smooth="yes"/>
      <point x="308.08" y="200.266"/>
      <point x="319.558" y="193"/>
      <point x="335" y="193" type="curve" smooth="yes"/>
      <point x="372" y="193"/>
      <point x="426" y="267"/>
    </contour>
  </outline>
</glyph>
<glyph name="C" format="1">
  <advance width="658"/>
  <unicode hex="0043"/>
  <outline>
    <contour>
      <point x="548" y="117" type="curve" smooth="yes"/>
      <point x="474" y="41"/>
      <point x="380" y="-2"/>
      <point x="283" y="-2" type="curve" smooth="yes"/>
      <point x="144.433" y="-2"/>
      <point x="47.8674" y="95.5045"/>
      <point x="47.8674" y="232.702" type="curve" smooth="yes"/>
      <point x="47.8674" y="253.923"/>
      <point x="50.1776" y="276.094"/>
      <point x="55" y="299" type="curve" smooth="yes"/>
      <point x="98" y="501"/>
      <point x="296" y="684"/>
      <point x="436" y="684" type="curve" smooth="yes"/>
      <point x="494" y="684"/>
      <point x="536" y="669"/>
      <point x="562" y="653" type="curve"/>
      <point x="573" y="659"/>
      <point x="580" y="660"/>
      <point x="590" y="660" type="curve" smooth="yes"/>
      <point x="614.214" y="660"/>
      <point x="630.202" y="644.295"/>
      <point x="630.202" y="621.939" type="curve" smooth="yes"/>
      <point x="630.202" y="618.443"/>
      <point x="629.811" y="614.786"/>
      <point x="629" y="611" type="curve" smooth="yes"/>
      <point x="617" y="551" type="line" smooth="yes"/>
      <point x="611" y="524"/>
      <point x="584" y="501"/>
      <point x="556" y="501" type="curve" smooth="yes"/>
      <point x="531.639" y="501"/>
      <point x="515.419" y="517.281"/>
      <point x="515.419" y="539.561" type="curve" smooth="yes"/>
      <point x="515.419" y="541.975"/>
      <point x="515.609" y="544.459"/>
      <point x="516" y="547" type="curve"/>
      <point x="501" y="564"/>
      <point x="477" y="584"/>
      <point x="415" y="584" type="curve" smooth="yes"/>
      <point x="322" y="584"/>
      <point x="185" y="441"/>
      <point x="155" y="299" type="curve" smooth="yes"/>
      <point x="151.375" y="281.723"/>
      <point x="149.707" y="265.687"/>
      <point x="149.707" y="250.844" type="curve" smooth="yes"/>
      <point x="149.707" y="142.832"/>
      <point x="238.061" y="98"/>
      <point x="304" y="98" type="curve" smooth="yes"/>
      <point x="364" y="98"/>
      <point x="425" y="119"/>
      <point x="481" y="177" type="curve" smooth="yes"/>
      <point x="497" y="193"/>
      <point x="509" y="197"/>
      <point x="524" y="197" type="curve" smooth="yes"/>
      <point x="546.563" y="197"/>
      <point x="565.361" y="183.444"/>
      <point x="565.361" y="158.946" type="curve" smooth="yes"/>
      <point x="565.361" y="155.215"/>
      <point x="564.925" y="151.23"/>
      <point x="564" y="147" type="curve" smooth="yes"/>
      <point x="562" y="137"/>
      <point x="557" y="127"/>
    </contour>
  </outline>
</glyph>
<glyph name="F" format="1">
  <advance width="571"/>
  <unicode hex="0046"/>
  <outline>
    <contour>
      <point x="164" y="301" type="line"/>
      <point x="111" y="49" type="line" smooth="yes"/>
      <point x="105" y="21"/>
      <point x="78" y="-1"/>
      <point x="50" y="-1" type="curve" smooth="yes"/>
      <point x="25.7857" y="-1"/>
      <point x="9.798" y="15.4532"/>
      <point x="9.798" y="38.0115" type="curve" smooth="yes"/>
      <point x="9.798" y="41.5383"/>
      <point x="10.1888" y="45.2143"/>
      <point x="11" y="49" type="curve" smooth="yes"/>
      <point x="135" y="631" type="line" smooth="yes"/>
      <point x="141" y="659"/>
      <point x="167" y="681"/>
      <point x="195" y="681" type="curve" smooth="yes"/>
      <point x="594" y="681" type="line" smooth="yes"/>
      <point x="618.214" y="681"/>
      <point x="634.202" y="664.547"/>
      <point x="634.202" y="641.989" type="curve" smooth="yes"/>
      <point x="634.202" y="638.462"/>
      <point x="633.811" y="634.786"/>
      <point x="633" y="631" type="curve" smooth="yes"/>
      <point x="627" y="605"/>
      <point x="601" y="581"/>
      <point x="573" y="581" type="curve" smooth="yes"/>
      <point x="224" y="581" type="line"/>
      <point x="186" y="401" type="line"/>
      <point x="452" y="401" type="line" smooth="yes"/>
      <point x="476.056" y="401"/>
      <point x="491.254" y="384.024"/>
      <point x="491.254" y="361.485" type="curve" smooth="yes"/>
      <point x="491.254" y="357.79"/>
      <point x="490.845" y="353.944"/>
      <point x="490" y="350" type="curve" smooth="yes"/>
      <point x="484" y="324"/>
      <point x="458" y="301"/>
      <point x="430" y="301" type="curve" smooth="yes"/>
    </contour>
  </outline>
</glyph>
<glyph name="H" format="1">
  <advance width="711"/>
  <unicode hex="0048"/>
  <outline>
    <contour>
      <point x="665" y="681" type="curve" smooth="yes"/>
      <point x="687.854" y="681"/>
      <point x="706.071" y="664.775"/>
      <point x="706.071" y="641.833" type="curve" smooth="yes"/>
      <point x="706.071" y="638.674"/>
      <point x="705.726" y="635.388"/>
      <point x="705" y="632" type="curve" smooth="yes"/>
      <point x="581" y="49" type="line" smooth="yes"/>
      <point x="575" y="23"/>
      <point x="547" y="0"/>
      <point x="521" y="0" type="curve" smooth="yes"/>
      <point x="496.638" y="1.06581e-14"/>
      <point x="479.846" y="17.4118"/>
      <point x="479.846" y="39.0618" type="curve" smooth="yes"/>
      <point x="479.846" y="42.2946"/>
      <point x="480.22" y="45.622"/>
      <point x="481" y="49" type="curve" smooth="yes"/>
      <point x="539" y="322" type="line"/>
      <point x="164" y="271" type="line"/>
      <point x="117" y="49" type="line" smooth="yes"/>
      <point x="111" y="23"/>
      <point x="84" y="0"/>
      <point x="56" y="0" type="curve" smooth="yes"/>
      <point x="31.7857" y="0"/>
      <point x="15.798" y="17.2011"/>
      <point x="15.798" y="38.6681" type="curve" smooth="yes"/>
      <point x="15.798" y="42.0243"/>
      <point x="16.1888" y="45.4847"/>
      <point x="17" y="49" type="curve" smooth="yes"/>
      <point x="141" y="632" type="line" smooth="yes"/>
      <point x="147" y="660"/>
      <point x="172" y="681"/>
      <point x="200" y="681" type="curve" smooth="yes"/>
      <point x="224.5" y="681"/>
      <point x="242.109" y="664.922"/>
      <point x="242.109" y="642.145" type="curve" smooth="yes"/>
      <point x="242.109" y="638.891"/>
      <point x="241.75" y="635.5"/>
      <point x="241" y="632" type="curve" smooth="yes"/>
      <point x="186" y="372" type="line"/>
      <point x="560" y="423" type="line"/>
      <point x="605" y="632" type="line" smooth="yes"/>
      <point x="611" y="660"/>
      <point x="637" y="681"/>
    </contour>
  </outline>
</glyph>
<glyph name="I" format="1">
  <advance width="459"/>
  <unicode hex="0049"/>
  <outline>
    <contour>
      <point x="239" y="99" type="line"/>
      <point x="308" y="99" type="line" smooth="yes"/>
      <point x="333.43" y="99"/>
      <point x="347.364" y="83.1917"/>
      <point x="347.364" y="61.3207" type="curve" smooth="yes"/>
      <point x="347.364" y="57.3907"/>
      <point x="346.914" y="53.265"/>
      <point x="346" y="49" type="curve" smooth="yes"/>
      <point x="340" y="21"/>
      <point x="314" y="-1"/>
      <point x="286" y="-1" type="curve" smooth="yes"/>
      <point x="47" y="-1" type="line" smooth="yes"/>
      <point x="22.7857" y="-1"/>
      <point x="6.798" y="15.4532"/>
      <point x="6.798" y="38.0115" type="curve" smooth="yes"/>
      <point x="6.798" y="41.5383"/>
      <point x="7.18878" y="45.2143"/>
      <point x="8" y="49" type="curve" smooth="yes"/>
      <point x="14" y="77"/>
      <point x="41" y="99"/>
      <point x="69" y="99" type="curve" smooth="yes"/>
      <point x="139" y="99" type="line"/>
      <point x="241" y="581" type="line"/>
      <point x="171" y="581" type="line" smooth="yes"/>
      <point x="146.786" y="581"/>
      <point x="130.798" y="598.201"/>
      <point x="130.798" y="620.962" type="curve" smooth="yes"/>
      <point x="130.798" y="624.52"/>
      <point x="131.189" y="628.214"/>
      <point x="132" y="632" type="curve" smooth="yes"/>
      <point x="138" y="660"/>
      <point x="164" y="681"/>
      <point x="192" y="681" type="curve" smooth="yes"/>
      <point x="431" y="681" type="line" smooth="yes"/>
      <point x="455.214" y="681"/>
      <point x="471.202" y="665.295"/>
      <point x="471.202" y="642.939" type="curve" smooth="yes"/>
      <point x="471.202" y="639.443"/>
      <point x="470.811" y="635.786"/>
      <point x="470" y="632" type="curve" smooth="yes"/>
      <point x="464" y="604"/>
      <point x="438" y="581"/>
      <point x="410" y="581" type="curve" smooth="yes"/>
      <point x="341" y="581" type="line"/>
    </contour>
  </outline>
</glyph>
<glyph name="J" format="1">
  <advance width="498"/>
  <unicode hex="004A"/>
  <outline>
    <contour>
      <point x="314" y="677" type="curve" smooth="yes"/>
      <point x="505" y="677" type="line" smooth="yes"/>
      <point x="527.732" y="677"/>
      <point x="545.113" y="659.418"/>
      <point x="545.113" y="637.622" type="curve" smooth="yes"/>
      <point x="545.113" y="634.488"/>
      <point x="544.754" y="631.268"/>
      <point x="544" y="628" type="curve" smooth="yes"/>
      <point x="538" y="600"/>
      <point x="510" y="578"/>
      <point x="484" y="578" type="curve"/>
      <point x="398" y="171" type="line" smooth="yes"/>
      <point x="381" y="93"/>
      <point x="313" y="0"/>
      <point x="179" y="0" type="curve" smooth="yes"/>
      <point x="48.3084" y="0"/>
      <point x="24.1811" y="83.9041"/>
      <point x="24.1811" y="141.477" type="curve" smooth="yes"/>
      <point x="24.1811" y="157.471"/>
      <point x="26.0433" y="171.434"/>
      <point x="28" y="181" type="curve" smooth="yes"/>
      <point x="34" y="210"/>
      <point x="58" y="233"/>
      <point x="89" y="233" type="curve" smooth="yes"/>
      <point x="113.214" y="233"/>
      <point x="129.202" y="216.547"/>
      <point x="129.202" y="193.989" type="curve" smooth="yes"/>
      <point x="129.202" y="190.462"/>
      <point x="128.811" y="186.786"/>
      <point x="128" y="183" type="curve" smooth="yes"/>
      <point x="126.264" y="174.466"/>
      <point x="125.428" y="166.664"/>
      <point x="125.428" y="159.562" type="curve" smooth="yes"/>
      <point x="125.428" y="117.559"/>
      <point x="154.666" y="100"/>
      <point x="200" y="100" type="curve" smooth="yes"/>
      <point x="274" y="100"/>
      <point x="293" y="150"/>
      <point x="298" y="171" type="curve" smooth="yes"/>
      <point x="384" y="578" type="line"/>
      <point x="293" y="578" type="line" smooth="yes"/>
      <point x="268.638" y="578"/>
      <point x="251.846" y="594.655"/>
      <point x="251.846" y="617.425" type="curve" smooth="yes"/>
      <point x="251.846" y="620.826"/>
      <point x="252.22" y="624.362"/>
      <point x="253" y="628" type="curve" smooth="yes"/>
      <point x="259" y="654"/>
      <point x="286" y="677"/>
    </contour>
  </outline>
</glyph>
<glyph name="M" format="1">
  <advance width="883"/>
  <unicode hex="004D"/>
  <outline>
    <contour>
      <point x="751" y="642" type="curve" smooth="yes"/>
      <point x="758" y="76" type="line" smooth="yes"/>
      <point x="758" y="62"/>
      <point x="758" y="53"/>
      <point x="756" y="46" type="curve" smooth="yes"/>
      <point x="751" y="22"/>
      <point x="727" y="0"/>
      <point x="698" y="0" type="curve" smooth="yes"/>
      <point x="672" y="0"/>
      <point x="658" y="16"/>
      <point x="658" y="38" type="curve" smooth="yes"/>
      <point x="654" y="456" type="line"/>
      <point x="410" y="32" type="line" smooth="yes"/>
      <point x="399" y="12"/>
      <point x="379" y="0"/>
      <point x="357" y="0" type="curve" smooth="yes"/>
      <point x="337" y="0"/>
      <point x="321" y="10"/>
      <point x="318" y="34" type="curve" smooth="yes"/>
      <point x="274" y="441" type="line"/>
      <point x="101" y="39" type="line" smooth="yes"/>
      <point x="91" y="15"/>
      <point x="71" y="0"/>
      <point x="44" y="0" type="curve" smooth="yes"/>
      <point x="16.1586" y="0"/>
      <point x="4.21368" y="17.4105"/>
      <point x="4.21368" y="34.4491" type="curve" smooth="yes"/>
      <point x="4.21368" y="36.9941"/>
      <point x="4.48018" y="39.5308"/>
      <point x="5" y="42" type="curve" smooth="yes"/>
      <point x="6" y="47"/>
      <point x="9" y="58"/>
      <point x="16" y="75" type="curve" smooth="yes"/>
      <point x="261" y="642" type="line"/>
      <point x="271" y="667"/>
      <point x="294" y="681"/>
      <point x="318" y="681" type="curve" smooth="yes"/>
      <point x="342" y="681"/>
      <point x="354" y="668"/>
      <point x="357" y="647" type="curve"/>
      <point x="404" y="204" type="line"/>
      <point x="658" y="649" type="line" smooth="yes"/>
      <point x="671" y="671"/>
      <point x="690" y="681"/>
      <point x="715" y="681" type="curve" smooth="yes"/>
      <point x="739" y="681"/>
      <point x="751" y="665"/>
    </contour>
  </outline>
</glyph>
<glyph name="P" format="1">
  <advance width="573"/>
  <unicode hex="0050"/>
  <outline>
    <contour>
      <point x="55" y="0" type="curve" smooth="yes"/>
      <point x="32.1465" y="0"/>
      <point x="13.9286" y="16.2248"/>
      <point x="13.9286" y="39.1669" type="curve" smooth="yes"/>
      <point x="13.9286" y="42.3255"/>
      <point x="14.2739" y="45.6115"/>
      <point x="15" y="49" type="curve" smooth="yes"/>
      <point x="136" y="620" type="line" smooth="yes"/>
      <point x="146" y="665"/>
      <point x="152" y="682"/>
      <point x="246" y="682" type="curve" smooth="yes"/>
      <point x="469.791" y="682"/>
      <point x="576.724" y="620.789"/>
      <point x="576.724" y="510.417" type="curve" smooth="yes"/>
      <point x="576.724" y="496.998"/>
      <point x="575.144" y="482.851"/>
      <point x="572" y="468" type="curve" smooth="yes"/>
      <point x="533" y="286"/>
      <point x="294" y="228"/>
      <point x="151" y="223" type="curve"/>
      <point x="114" y="49" type="line" smooth="yes"/>
      <point x="108" y="21"/>
      <point x="83" y="0"/>
    </contour>
    <contour>
      <point x="227" y="583" type="line"/>
      <point x="172" y="321" type="line"/>
      <point x="262" y="326"/>
      <point x="449" y="355"/>
      <point x="473" y="468" type="curve" smooth="yes"/>
      <point x="474.29" y="473.968"/>
      <point x="474.93" y="479.722"/>
      <point x="474.93" y="485.256" type="curve" smooth="yes"/>
      <point x="474.93" y="548.347"/>
      <point x="391.773" y="583"/>
      <point x="241" y="583" type="curve" smooth="yes"/>
    </contour>
  </outline>
</glyph>
<glyph name="S" format="1">
  <advance width="624"/>
  <unicode hex="0053"/>
  <outline>
    <contour>
      <point x="311" y="309" type="curve" smooth="yes"/>
      <point x="227.288" y="332.403"/>
      <point x="135.473" y="376.873"/>
      <point x="135.473" y="467.935" type="curve" smooth="yes"/>
      <point x="135.473" y="478.038"/>
      <point x="136.603" y="488.715"/>
      <point x="139" y="500" type="curve" smooth="yes"/>
      <point x="169" y="640"/>
      <point x="299" y="682"/>
      <point x="417" y="682" type="curve" smooth="yes"/>
      <point x="487.355" y="682"/>
      <point x="605.296" y="659.459"/>
      <point x="605.296" y="564.033" type="curve" smooth="yes"/>
      <point x="605.296" y="555.019"/>
      <point x="604.244" y="545.356"/>
      <point x="602" y="535" type="curve" smooth="yes"/>
      <point x="596" y="505"/>
      <point x="570" y="483"/>
      <point x="542" y="483" type="curve" smooth="yes"/>
      <point x="514.912" y="483"/>
      <point x="503.053" y="502.812"/>
      <point x="503.053" y="527.211" type="curve" smooth="yes"/>
      <point x="503.053" y="567.772"/>
      <point x="449.026" y="589"/>
      <point x="395" y="589" type="curve" smooth="yes"/>
      <point x="326" y="589"/>
      <point x="260" y="566"/>
      <point x="247" y="504" type="curve" smooth="yes"/>
      <point x="245.954" y="499.397"/>
      <point x="245.433" y="494.957"/>
      <point x="245.433" y="490.671" type="curve" smooth="yes"/>
      <point x="245.433" y="453.987"/>
      <point x="283.579" y="428.489"/>
      <point x="357" y="407" type="curve" smooth="yes"/>
      <point x="477.756" y="371.381"/>
      <point x="538.134" y="316.14"/>
      <point x="538.134" y="237.997" type="curve" smooth="yes"/>
      <point x="538.134" y="226.191"/>
      <point x="536.756" y="213.863"/>
      <point x="534" y="201" type="curve" smooth="yes"/>
      <point x="505" y="63"/>
      <point x="358" y="0"/>
      <point x="251" y="0" type="curve" smooth="yes"/>
      <point x="139" y="0"/>
      <point x="55" y="62"/>
      <point x="36" y="145" type="curve" smooth="yes"/>
      <point x="35" y="152"/>
      <point x="35" y="162"/>
      <point x="37" y="170" type="curve" smooth="yes"/>
      <point x="42" y="197"/>
      <point x="69" y="220"/>
      <point x="98" y="220" type="curve" smooth="yes"/>
      <point x="123" y="220"/>
      <point x="137" y="205"/>
      <point x="140" y="183" type="curve" smooth="yes"/>
      <point x="149" y="123"/>
      <point x="213" y="96"/>
      <point x="270" y="96" type="curve" smooth="yes"/>
      <point x="330" y="96"/>
      <point x="412" y="127"/>
      <point x="427" y="196" type="curve" smooth="yes"/>
      <point x="428.381" y="202.511"/>
      <point x="429.529" y="209.489"/>
      <point x="429.529" y="216.765" type="curve" smooth="yes"/>
      <point x="429.529" y="246.368"/>
      <point x="410.535" y="280.906"/>
    </contour>
  </outline>
</glyph>
<glyph name="T" format="1">
  <advance width="548"/>
  <unicode hex="0054"/>
  <outline>
    <contour>
      <point x="561" y="681" type="line"/>
      <point x="585.214" y="681"/>
      <point x="601.202" y="665.295"/>
      <point x="601.202" y="642.939" type="curve" smooth="yes"/>
      <point x="601.202" y="639.443"/>
      <point x="600.811" y="635.786"/>
      <point x="600" y="632" type="curve" smooth="yes"/>
      <point x="594" y="605"/>
      <point x="568" y="582"/>
      <point x="540" y="582" type="curve" smooth="yes"/>
      <point x="376" y="582" type="line"/>
      <point x="263" y="49" type="line" smooth="yes"/>
      <point x="257" y="23"/>
      <point x="231" y="0"/>
      <point x="204" y="0" type="curve" smooth="yes"/>
      <point x="180.384" y="0"/>
      <point x="162.889" y="17.5956"/>
      <point x="162.889" y="39.4041" type="curve" smooth="yes"/>
      <point x="162.889" y="42.5294"/>
      <point x="163.248" y="45.7411"/>
      <point x="164" y="49" type="curve" smooth="yes"/>
      <point x="277" y="582" type="line"/>
      <point x="126" y="582" type="line" smooth="yes"/>
      <point x="103.398" y="582"/>
      <point x="86.8416" y="599.381"/>
      <point x="86.8416" y="621.661" type="curve" smooth="yes"/>
      <point x="86.8416" y="625.011"/>
      <point x="87.2158" y="628.471"/>
      <point x="88" y="632" type="curve" smooth="yes"/>
      <point x="94" y="660"/>
      <point x="121" y="681"/>
      <point x="147" y="681" type="curve" smooth="yes"/>
    </contour>
  </outline>
</glyph>
<glyph name="W" format="1">
  <advance width="893"/>
  <unicode hex="0057"/>
  <outline>
    <contour>
      <point x="585" y="214" type="line"/>
      <point x="839" y="657" type="line" smooth="yes"/>
      <point x="852" y="679"/>
      <point x="871" y="692"/>
      <point x="895" y="692" type="curve" smooth="yes"/>
      <point x="918.338" y="692"/>
      <point x="934.204" y="677.805"/>
      <point x="934.204" y="657.809" type="curve" smooth="yes"/>
      <point x="934.204" y="654.671"/>
      <point x="933.814" y="651.391"/>
      <point x="933" y="648" type="curve"/>
      <point x="932" y="640"/>
      <point x="930" y="631"/>
      <point x="921" y="616" type="curve" smooth="yes"/>
      <point x="586" y="32" type="line" smooth="yes"/>
      <point x="575" y="12"/>
      <point x="556" y="0"/>
      <point x="535" y="0" type="curve" smooth="yes"/>
      <point x="509" y="0"/>
      <point x="495" y="13"/>
      <point x="494" y="36" type="curve" smooth="yes"/>
      <point x="467" y="458" type="line"/>
      <point x="240" y="34" type="line" smooth="yes"/>
      <point x="225" y="7"/>
      <point x="208" y="0"/>
      <point x="185" y="0" type="curve" smooth="yes"/>
      <point x="160" y="0"/>
      <point x="148" y="12"/>
      <point x="146" y="34" type="curve" smooth="yes"/>
      <point x="93" y="605" type="line"/>
      <point x="92.7321" y="609.823"/>
      <point x="92.6077" y="613.785"/>
      <point x="92.6077" y="617.154" type="curve" smooth="yes"/>
      <point x="92.6077" y="626.359"/>
      <point x="93.5359" y="631.144"/>
      <point x="95" y="637" type="curve" smooth="yes"/>
      <point x="100" y="662"/>
      <point x="125" y="681"/>
      <point x="152" y="681" type="curve" smooth="yes"/>
      <point x="176" y="681"/>
      <point x="190" y="668"/>
      <point x="193" y="646" type="curve"/>
      <point x="232" y="215" type="line"/>
      <point x="464" y="647" type="line" smooth="yes"/>
      <point x="477" y="671"/>
      <point x="496" y="681"/>
      <point x="519" y="681" type="curve" smooth="yes"/>
      <point x="541" y="681"/>
      <point x="556" y="670"/>
      <point x="558" y="646" type="curve" smooth="yes"/>
    </contour>
  </outline>
</glyph>
<glyph name="X" format="1">
  <advance width="707"/>
  <unicode hex="0058"/>
  <outline>
    <contour>
      <point x="428" y="345" type="line"/>
      <point x="582" y="79" type="line" smooth="yes"/>
      <point x="588" y="69"/>
      <point x="587" y="60"/>
      <point x="585" y="49" type="curve" smooth="yes"/>
      <point x="579" y="23"/>
      <point x="554" y="0"/>
      <point x="527" y="0" type="curve" smooth="yes"/>
      <point x="512" y="0"/>
      <point x="499" y="6"/>
      <point x="491" y="18" type="curve"/>
      <point x="345" y="266" type="line"/>
      <point x="83" y="18" type="line" smooth="yes"/>
      <point x="68" y="4"/>
      <point x="57" y="0"/>
      <point x="43" y="0" type="curve" smooth="yes"/>
      <point x="16.8105" y="0"/>
      <point x="2.0525" y="18.2904"/>
      <point x="2.0525" y="39.5693" type="curve" smooth="yes"/>
      <point x="2.0525" y="42.6653"/>
      <point x="2.36492" y="45.8246"/>
      <point x="3" y="49" type="curve" smooth="yes"/>
      <point x="5" y="61"/>
      <point x="13" y="74"/>
      <point x="21" y="81" type="curve" smooth="yes"/>
      <point x="300" y="346" type="line"/>
      <point x="151" y="601" type="line" smooth="yes"/>
      <point x="147.976" y="607.047"/>
      <point x="144.953" y="614.238"/>
      <point x="144.953" y="623.003" type="curve" smooth="yes"/>
      <point x="144.953" y="625.833"/>
      <point x="145.268" y="628.827"/>
      <point x="146" y="632" type="curve" smooth="yes"/>
      <point x="152" y="660"/>
      <point x="181" y="681"/>
      <point x="207" y="681" type="curve" smooth="yes"/>
      <point x="221" y="681"/>
      <point x="234" y="675"/>
      <point x="241" y="663" type="curve" smooth="yes"/>
      <point x="382" y="424" type="line"/>
      <point x="633" y="663" type="line" smooth="yes"/>
      <point x="646" y="675"/>
      <point x="661" y="681"/>
      <point x="675" y="681" type="curve" smooth="yes"/>
      <point x="698.184" y="681"/>
      <point x="715.802" y="662.713"/>
      <point x="715.802" y="640.318" type="curve" smooth="yes"/>
      <point x="715.802" y="637.598"/>
      <point x="715.542" y="634.816"/>
      <point x="715" y="632" type="curve" smooth="yes"/>
      <point x="712" y="620"/>
      <point x="704" y="608"/>
      <point x="696" y="600" type="curve" smooth="yes"/>
    </contour>
  </outline>
</glyph>
<glyph name="Y" format="1">
  <advance width="619"/>
  <unicode hex="0059"/>
  <outline>
    <contour>
      <point x="320" y="321" type="line"/>
      <point x="590" y="657" type="line" smooth="yes"/>
      <point x="603" y="673"/>
      <point x="620" y="681"/>
      <point x="638" y="681" type="curve" smooth="yes"/>
      <point x="659.187" y="681"/>
      <point x="678.036" y="664.635"/>
      <point x="678.036" y="641.535" type="curve" smooth="yes"/>
      <point x="678.036" y="638.468"/>
      <point x="677.703" y="635.282"/>
      <point x="677" y="632" type="curve" smooth="yes"/>
      <point x="674" y="621"/>
      <point x="672" y="615"/>
      <point x="660" y="600" type="curve" smooth="yes"/>
      <point x="196" y="25" type="line" smooth="yes"/>
      <point x="183" y="9"/>
      <point x="166" y="0"/>
      <point x="148" y="0" type="curve" smooth="yes"/>
      <point x="123.423" y="7.10543e-15"/>
      <point x="108.091" y="18.4907"/>
      <point x="108.091" y="39.9181" type="curve" smooth="yes"/>
      <point x="108.091" y="42.9024"/>
      <point x="108.389" y="45.9437"/>
      <point x="109" y="49" type="curve" smooth="yes"/>
      <point x="111" y="59"/>
      <point x="113" y="64"/>
      <point x="123" y="77" type="curve" smooth="yes"/>
      <point x="241" y="223" type="line"/>
      <point x="100" y="603" type="line" smooth="yes"/>
      <point x="96" y="614"/>
      <point x="96" y="623"/>
      <point x="98" y="632" type="curve" smooth="yes"/>
      <point x="103" y="658"/>
      <point x="130" y="681"/>
      <point x="158" y="681" type="curve" smooth="yes"/>
      <point x="175" y="681"/>
      <point x="189" y="672"/>
      <point x="195" y="656" type="curve" smooth="yes"/>
    </contour>
  </outline>
</glyph>
<glyph name="bracketleft" format="1">
  <advance width="341"/>
  <unicode hex="005B"/>
  <outline>
    <contour>
      <point x="136" y="-113" type="curve" smooth="yes"/>
      <point x="26" y="-113" type="line" smooth="yes"/>
      <point x="2.8167" y="-113"/>
      <point x="-12.2567" y="-97.5175"/>
      <point x="-12.2567" y="-75.415" type="curve" smooth="yes"/>
      <point x="-12.2567" y="-71.7762"/>
      <point x="-11.8482" y="-67.9581"/>
      <point x="-11" y="-64" type="curve" smooth="yes"/>
      <point x="157" y="729" type="line" smooth="yes"/>
      <point x="163" y="755"/>
      <point x="189" y="778"/>
      <point x="216" y="778" type="curve" smooth="yes"/>
      <point x="340" y="778" type="line" smooth="yes"/>
      <point x="362.462" y="778"/>
      <point x="378.207" y="760.833"/>
      <point x="378.207" y="739.396" type="curve" smooth="yes"/>
      <point x="378.207" y="736.02"/>
      <point x="377.816" y="732.538"/>
      <point x="377" y="729" type="curve"/>
      <point x="372" y="702"/>
      <point x="345" y="681"/>
      <point x="319" y="681" type="curve" smooth="yes"/>
      <point x="243" y="681" type="line"/>
      <point x="95" y="-16" type="line"/>
      <point x="157" y="-16" type="line" smooth="yes"/>
      <point x="179.171" y="-16"/>
      <point x="195.837" y="-34.0896"/>
      <point x="195.837" y="-55.6211" type="curve" smooth="yes"/>
      <point x="195.837" y="-58.3682"/>
      <point x="195.566" y="-61.1713"/>
      <point x="195" y="-64" type="curve" smooth="yes"/>
      <point x="189" y="-92"/>
      <point x="161" y="-113"/>
    </contour>
  </outline>
</glyph>
<glyph name="backslash" format="1">
  <advance width="571"/>
  <unicode hex="005C"/>
  <outline>
    <contour>
      <point x="238" y="650" type="curve"/>
      <point x="435" y="70" type="line" smooth="yes"/>
      <point x="438" y="63"/>
      <point x="438" y="55"/>
      <point x="436" y="47" type="curve" smooth="yes"/>
      <point x="431" y="22"/>
      <point x="406" y="-1"/>
      <point x="377" y="-1" type="curve" smooth="yes"/>
      <point x="360" y="-1"/>
      <point x="347" y="8"/>
      <point x="342" y="24" type="curve" smooth="yes"/>
      <point x="146" y="594" type="line" smooth="yes"/>
      <point x="143.879" y="599.657"/>
      <point x="141.757" y="607.814"/>
      <point x="141.757" y="616.703" type="curve" smooth="yes"/>
      <point x="141.757" y="620.385"/>
      <point x="142.121" y="624.192"/>
      <point x="143" y="628" type="curve" smooth="yes"/>
      <point x="148" y="650"/>
      <point x="173" y="674"/>
      <point x="201" y="674" type="curve" smooth="yes"/>
      <point x="217" y="674"/>
      <point x="231" y="668"/>
    </contour>
  </outline>
</glyph>
<glyph name="asciicircum" format="1">
  <advance width="526"/>
  <unicode hex="005E"/>
  <outline>
    <contour>
      <point x="136" y="431" type="curve" smooth="yes"/>
      <point x="288" y="619" type="line" smooth="yes"/>
      <point x="302" y="636"/>
      <point x="321" y="648"/>
      <point x="343" y="648" type="curve" smooth="yes"/>
      <point x="364" y="648"/>
      <point x="378" y="640"/>
      <point x="385" y="615" type="curve" smooth="yes"/>
      <point x="439" y="431" type="line" smooth="yes"/>
      <point x="442" y="421"/>
      <point x="442" y="412"/>
      <point x="441" y="406" type="curve" smooth="yes"/>
      <point x="435" y="380"/>
      <point x="410" y="359"/>
      <point x="383" y="359" type="curve" smooth="yes"/>
      <point x="366" y="359"/>
      <point x="351" y="364"/>
      <point x="347" y="384" type="curve" smooth="yes"/>
      <point x="318" y="541" type="line"/>
      <point x="208" y="384" type="line" smooth="yes"/>
      <point x="195" y="366"/>
      <point x="179" y="359"/>
      <point x="161" y="359" type="curve" smooth="yes"/>
      <point x="137.817" y="359"/>
      <point x="122.743" y="374.483"/>
      <point x="122.743" y="395.319" type="curve" smooth="yes"/>
      <point x="122.743" y="398.749"/>
      <point x="123.152" y="402.325"/>
      <point x="124" y="406" type="curve"/>
      <point x="125" y="414"/>
      <point x="129" y="422"/>
    </contour>
  </outline>
</glyph>
<glyph name="grave" format="1">
  <advance width="526"/>
  <unicode hex="0060"/>
  <outline>
    <contour>
      <point x="330" y="536" type="curve" smooth="yes"/>
      <point x="247" y="647" type="line" smooth="yes"/>
      <point x="241.043" y="654.446"/>
      <point x="237.859" y="663"/>
      <point x="237.859" y="673.489" type="curve" smooth="yes"/>
      <point x="237.859" y="677.087"/>
      <point x="238.234" y="680.913"/>
      <point x="239" y="685" type="curve" smooth="yes"/>
      <point x="245" y="713"/>
      <point x="277" y="739"/>
      <point x="305" y="739" type="curve" smooth="yes"/>
      <point x="323" y="739"/>
      <point x="336" y="729"/>
      <point x="344" y="717" type="curve"/>
      <point x="414" y="598" type="line"/>
      <point x="420" y="586"/>
      <point x="421" y="578"/>
      <point x="419" y="568" type="curve" smooth="yes"/>
      <point x="413" y="541"/>
      <point x="385" y="521"/>
      <point x="361" y="521" type="curve" smooth="yes"/>
      <point x="346" y="521"/>
      <point x="337" y="527"/>
    </contour>
  </outline>
</glyph>
<glyph name="a" format="1">
  <advance width="531"/>
  <unicode hex="0061"/>
  <outline>
    <contour>
      <point x="491" y="466" type="curve"/>
      <point x="402" y="50" type="line" smooth="yes"/>
      <point x="397" y="24"/>
      <point x="372" y="0"/>
      <point x="344" y="0" type="curve" smooth="yes"/>
      <point x="318" y="0"/>
      <point x="305" y="15"/>
      <point x="304" y="35" type="curve"/>
      <point x="268" y="20"/>
      <point x="226" y="7"/>
      <point x="186" y="7" type="curve" smooth="yes"/>
      <point x="93.4296" y="7"/>
      <point x="33.4366" y="69.3221"/>
      <point x="33.4366" y="167.147" type="curve" smooth="yes"/>
      <point x="33.4366" y="185.566"/>
      <point x="35.5634" y="205.243"/>
      <point x="40" y="226" type="curve" smooth="yes"/>
      <point x="61" y="329"/>
      <point x="165" y="512"/>
      <point x="340" y="512" type="curve" smooth="yes"/>
      <point x="412" y="512"/>
      <point x="474" y="475"/>
    </contour>
    <contour>
      <point x="324" y="144" type="curve"/>
      <point x="383" y="405" type="line"/>
      <point x="367" y="412"/>
      <point x="343" y="417"/>
      <point x="322" y="417" type="curve" smooth="yes"/>
      <point x="215" y="417"/>
      <point x="151" y="295"/>
      <point x="137" y="228" type="curve" smooth="yes"/>
      <point x="134.265" y="215.695"/>
      <point x="132.673" y="202.506"/>
      <point x="132.673" y="189.476" type="curve" smooth="yes"/>
      <point x="132.673" y="145.328"/>
      <point x="150.952" y="103"/>
      <point x="205" y="103" type="curve" smooth="yes"/>
      <point x="245" y="103"/>
      <point x="296" y="128"/>
    </contour>
  </outline>
</glyph>
<glyph name="b" format="1">
  <advance width="550"/>
  <unicode hex="0062"/>
  <outline>
    <contour>
      <point x="347" y="491" type="curve" smooth="yes"/>
      <point x="451.341" y="491"/>
      <point x="488.2" y="417.271"/>
      <point x="488.2" y="335.006" type="curve" smooth="yes"/>
      <point x="488.2" y="313.199"/>
      <point x="485.61" y="290.792"/>
      <point x="481" y="269" type="curve" smooth="yes"/>
      <point x="450" y="124"/>
      <point x="361" y="6"/>
      <point x="205" y="6" type="curve" smooth="yes"/>
      <point x="167" y="6"/>
      <point x="129" y="15"/>
      <point x="101" y="24" type="curve"/>
      <point x="90" y="11"/>
      <point x="70" y="1"/>
      <point x="53" y="1" type="curve" smooth="yes"/>
      <point x="30.1983" y="1"/>
      <point x="15.0877" y="17.1513"/>
      <point x="15.0877" y="37.3129" type="curve" smooth="yes"/>
      <point x="15.0877" y="40.1409"/>
      <point x="15.3849" y="43.0477"/>
      <point x="16" y="46" type="curve" smooth="yes"/>
      <point x="140" y="627" type="line" smooth="yes"/>
      <point x="146" y="654"/>
      <point x="171" y="672"/>
      <point x="197" y="672" type="curve" smooth="yes"/>
      <point x="218.081" y="672"/>
      <point x="236.075" y="658.113"/>
      <point x="236.075" y="636.438" type="curve" smooth="yes"/>
      <point x="236.075" y="633.436"/>
      <point x="235.73" y="630.284"/>
      <point x="235" y="627" type="curve" smooth="yes"/>
      <point x="196" y="446" type="line"/>
      <point x="244" y="476"/>
      <point x="294" y="491"/>
    </contour>
    <contour>
      <point x="218" y="100" type="curve" smooth="yes"/>
      <point x="316" y="100"/>
      <point x="365" y="167"/>
      <point x="387" y="269" type="curve" smooth="yes"/>
      <point x="389.943" y="283.181"/>
      <point x="391.884" y="298.794"/>
      <point x="391.884" y="314.058" type="curve" smooth="yes"/>
      <point x="391.884" y="355.839"/>
      <point x="377.34" y="395"/>
      <point x="329" y="395" type="curve" smooth="yes"/>
      <point x="247" y="395"/>
      <point x="175" y="348"/>
      <point x="163" y="290" type="curve" smooth="yes"/>
      <point x="126" y="117" type="line"/>
      <point x="146" y="110"/>
      <point x="181" y="100"/>
    </contour>
  </outline>
</glyph>
<glyph name="f" format="1">
  <advance width="397"/>
  <unicode hex="0066"/>
  <outline>
    <contour>
      <point x="113" y="501" type="curve" smooth="yes"/>
      <point x="161" y="501" type="line"/>
      <point x="194" y="630"/>
      <point x="265" y="673"/>
      <point x="402" y="673" type="curve" smooth="yes"/>
      <point x="430.538" y="673"/>
      <point x="451.597" y="666.269"/>
      <point x="451.597" y="640.521" type="curve" smooth="yes"/>
      <point x="451.597" y="636.495"/>
      <point x="451.082" y="632.003"/>
      <point x="450" y="627" type="curve" smooth="yes"/>
      <point x="444" y="602"/>
      <point x="423" y="580"/>
      <point x="393" y="580" type="curve" smooth="yes"/>
      <point x="310" y="580"/>
      <point x="278" y="570"/>
      <point x="257" y="501" type="curve"/>
      <point x="359" y="500" type="line" smooth="yes"/>
      <point x="376.632" y="500"/>
      <point x="395.042" y="484.455"/>
      <point x="395.042" y="462.958" type="curve" smooth="yes"/>
      <point x="395.042" y="460.072"/>
      <point x="394.71" y="457.078"/>
      <point x="394" y="454" type="curve" smooth="yes"/>
      <point x="389" y="430"/>
      <point x="364" y="408"/>
      <point x="339" y="408" type="curve" smooth="yes"/>
      <point x="236" y="408" type="line"/>
      <point x="159" y="46" type="line" smooth="yes"/>
      <point x="154" y="22"/>
      <point x="127" y="0"/>
      <point x="102" y="0" type="curve" smooth="yes"/>
      <point x="79.7147" y="0"/>
      <point x="62.1971" y="17.4815"/>
      <point x="62.1971" y="38.278" type="curve" smooth="yes"/>
      <point x="62.1971" y="40.8113"/>
      <point x="62.4571" y="43.3939"/>
      <point x="63" y="46" type="curve" smooth="yes"/>
      <point x="140" y="408" type="line"/>
      <point x="94" y="408" type="line" smooth="yes"/>
      <point x="72.842" y="408"/>
      <point x="57.1243" y="425.098"/>
      <point x="57.1243" y="445.591" type="curve" smooth="yes"/>
      <point x="57.1243" y="448.344"/>
      <point x="57.4079" y="451.158"/>
      <point x="58" y="454" type="curve" smooth="yes"/>
      <point x="63" y="479"/>
      <point x="90" y="501"/>
    </contour>
  </outline>
</glyph>
<glyph name="g" format="1">
  <advance width="547"/>
  <unicode hex="0067"/>
  <outline>
    <contour>
      <point x="37" y="-154" type="curve" smooth="yes"/>
      <point x="20.0656" y="-149.766"/>
      <point x="8.86662" y="-135.496"/>
      <point x="8.86662" y="-117.258" type="curve" smooth="yes"/>
      <point x="8.86662" y="-113.957"/>
      <point x="9.23361" y="-110.525"/>
      <point x="10" y="-107" type="curve" smooth="yes"/>
      <point x="15" y="-80"/>
      <point x="43" y="-59"/>
      <point x="68" y="-59" type="curve" smooth="yes"/>
      <point x="78" y="-59"/>
      <point x="90" y="-61"/>
      <point x="101" y="-64" type="curve" smooth="yes"/>
      <point x="125" y="-70"/>
      <point x="144" y="-72"/>
      <point x="171" y="-72" type="curve" smooth="yes"/>
      <point x="250" y="-72"/>
      <point x="290" y="-27"/>
      <point x="308" y="45" type="curve"/>
      <point x="274" y="24"/>
      <point x="236" y="9"/>
      <point x="197" y="9" type="curve" smooth="yes"/>
      <point x="98.7168" y="9"/>
      <point x="37.1272" y="76.742"/>
      <point x="37.1272" y="179.624" type="curve" smooth="yes"/>
      <point x="37.1272" y="199.217"/>
      <point x="39.3608" y="220.084"/>
      <point x="44" y="242" type="curve" smooth="yes"/>
      <point x="72" y="374"/>
      <point x="202" y="500"/>
      <point x="337" y="500" type="curve" smooth="yes"/>
      <point x="368" y="500"/>
      <point x="395" y="491"/>
      <point x="416" y="482" type="curve"/>
      <point x="425" y="500"/>
      <point x="442" y="510"/>
      <point x="468" y="510" type="curve" smooth="yes"/>
      <point x="489.534" y="510"/>
      <point x="506.266" y="501.769"/>
      <point x="506.266" y="477.92" type="curve" smooth="yes"/>
      <point x="506.266" y="472.974"/>
      <point x="505.546" y="467.356"/>
      <point x="504" y="461" type="curve" smooth="yes"/>
      <point x="405" y="39" type="line" smooth="yes"/>
      <point x="371" y="-104"/>
      <point x="271" y="-168"/>
      <point x="152" y="-168" type="curve" smooth="yes"/>
      <point x="107" y="-168"/>
      <point x="65" y="-161"/>
    </contour>
    <contour>
      <point x="362" y="265" type="curve" smooth="yes"/>
      <point x="388" y="386" type="line"/>
      <point x="372" y="396"/>
      <point x="344" y="404"/>
      <point x="320" y="404" type="curve" smooth="yes"/>
      <point x="237" y="404"/>
      <point x="154" y="333"/>
      <point x="134" y="238" type="curve" smooth="yes"/>
      <point x="131.451" y="226.105"/>
      <point x="129.985" y="213.173"/>
      <point x="129.985" y="200.181" type="curve" smooth="yes"/>
      <point x="129.985" y="152.004"/>
      <point x="150.143" y="103"/>
      <point x="210" y="103" type="curve" smooth="yes"/>
      <point x="262" y="103"/>
      <point x="334" y="133"/>
    </contour>
  </outline>
</glyph>
<glyph name="h" format="1">
  <advance width="529"/>
  <unicode hex="0068"/>
  <outline>
    <contour>
      <point x="410" y="45" type="curve"/>
      <point x="404" y="20"/>
      <point x="380" y="0"/>
      <point x="354" y="0" type="curve" smooth="yes"/>
      <point x="328.87" y="1.77636e-15"/>
      <point x="315.004" y="15.769"/>
      <point x="315.004" y="36.8958" type="curve" smooth="yes"/>
      <point x="315.004" y="40.1495"/>
      <point x="315.333" y="43.5302"/>
      <point x="316" y="47" type="curve" smooth="yes"/>
      <point x="322" y="73"/>
      <point x="330" y="100"/>
      <point x="343" y="163" type="curve" smooth="yes"/>
      <point x="361.889" y="252.106"/>
      <point x="368.806" y="309.006"/>
      <point x="368.806" y="345.126" type="curve" smooth="yes"/>
      <point x="368.806" y="396.969"/>
      <point x="354.556" y="406"/>
      <point x="341" y="406" type="curve" smooth="yes"/>
      <point x="276" y="406"/>
      <point x="191" y="297"/>
      <point x="171" y="269" type="curve" smooth="yes"/>
      <point x="157" y="249"/>
      <point x="149" y="225"/>
      <point x="144" y="198" type="curve"/>
      <point x="112" y="49" type="line" smooth="yes"/>
      <point x="105" y="17"/>
      <point x="79" y="-1"/>
      <point x="53" y="-1" type="curve" smooth="yes"/>
      <point x="30.8287" y="-1"/>
      <point x="14.163" y="17.0896"/>
      <point x="14.163" y="38.6211" type="curve" smooth="yes"/>
      <point x="14.163" y="41.3682"/>
      <point x="14.4343" y="44.1713"/>
      <point x="15" y="47" type="curve" smooth="yes"/>
      <point x="138" y="623" type="line" smooth="yes"/>
      <point x="143" y="649"/>
      <point x="169" y="672"/>
      <point x="196" y="672" type="curve" smooth="yes"/>
      <point x="221.13" y="672"/>
      <point x="234.996" y="654.729"/>
      <point x="234.996" y="633.202" type="curve" smooth="yes"/>
      <point x="234.996" y="629.886"/>
      <point x="234.667" y="626.47"/>
      <point x="234" y="623" type="curve" smooth="yes"/>
      <point x="188" y="408" type="line"/>
      <point x="241" y="461"/>
      <point x="308" y="501"/>
      <point x="367" y="501" type="curve" smooth="yes"/>
      <point x="436.326" y="501"/>
      <point x="466.095" y="455.676"/>
      <point x="466.095" y="364.762" type="curve" smooth="yes"/>
      <point x="466.095" y="314.045"/>
      <point x="456.831" y="249.139"/>
      <point x="440" y="170" type="curve" smooth="yes"/>
      <point x="427" y="109"/>
      <point x="419" y="73"/>
    </contour>
  </outline>
</glyph>
<glyph name="i" format="1">
  <advance width="245"/>
  <unicode hex="0069"/>
  <outline>
    <contour>
      <point x="207" y="447" type="curve"/>
      <point x="117" y="49" type="line" smooth="yes"/>
      <point x="111" y="22"/>
      <point x="85" y="0"/>
      <point x="58" y="0" type="curve" smooth="yes"/>
      <point x="34.5183" y="0"/>
      <point x="17.8438" y="16.6401"/>
      <point x="17.8438" y="38.7375" type="curve" smooth="yes"/>
      <point x="17.8438" y="42.0484"/>
      <point x="18.2182" y="45.4817"/>
      <point x="19" y="49" type="curve" smooth="yes"/>
      <point x="109" y="447" type="line"/>
      <point x="114" y="474"/>
      <point x="141" y="496"/>
      <point x="168" y="496" type="curve" smooth="yes"/>
      <point x="192.577" y="496"/>
      <point x="207.909" y="479.05"/>
      <point x="207.909" y="456.647" type="curve" smooth="yes"/>
      <point x="207.909" y="453.527"/>
      <point x="207.611" y="450.301"/>
    </contour>
    <contour>
      <point x="177" y="541" type="curve" smooth="yes"/>
      <point x="154.982" y="541"/>
      <point x="139.419" y="557.494"/>
      <point x="139.419" y="578.336" type="curve" smooth="yes"/>
      <point x="139.419" y="582.106"/>
      <point x="139.928" y="586.018"/>
      <point x="141" y="590" type="curve" smooth="yes"/>
      <point x="150" y="627" type="line" smooth="yes"/>
      <point x="156" y="653"/>
      <point x="183" y="674"/>
      <point x="208" y="674" type="curve" smooth="yes"/>
      <point x="230.462" y="674"/>
      <point x="246.207" y="656.087"/>
      <point x="246.207" y="635.737" type="curve" smooth="yes"/>
      <point x="246.207" y="632.531"/>
      <point x="245.816" y="629.266"/>
      <point x="245" y="626" type="curve" smooth="yes"/>
      <point x="235" y="588" type="line"/>
      <point x="229" y="561"/>
      <point x="204" y="541"/>
    </contour>
  </outline>
</glyph>
<glyph name="j" format="1">
  <advance width="359"/>
  <unicode hex="006A"/>
  <outline>
    <contour>
      <point x="29" y="11" type="curve" smooth="yes"/>
      <point x="33" y="-24"/>
      <point x="49" y="-73"/>
      <point x="79" y="-73" type="curve" smooth="yes"/>
      <point x="113" y="-73"/>
      <point x="128" y="-10"/>
      <point x="134" y="16" type="curve" smooth="yes"/>
      <point x="136" y="28"/>
      <point x="154" y="122"/>
      <point x="174" y="220" type="curve" smooth="yes"/>
      <point x="196" y="328"/>
      <point x="217" y="437"/>
      <point x="221" y="452" type="curve" smooth="yes"/>
      <point x="227" y="480"/>
      <point x="250" y="501"/>
      <point x="279" y="501" type="curve" smooth="yes"/>
      <point x="301.171" y="501"/>
      <point x="317.837" y="483.697"/>
      <point x="317.837" y="461.646" type="curve" smooth="yes"/>
      <point x="317.837" y="458.833"/>
      <point x="317.566" y="455.942"/>
      <point x="317" y="453" type="curve" smooth="yes"/>
      <point x="315" y="445"/>
      <point x="299" y="362"/>
      <point x="281" y="272" type="curve" smooth="yes"/>
      <point x="260" y="164"/>
      <point x="233" y="35"/>
      <point x="230" y="21" type="curve" smooth="yes"/>
      <point x="216" y="-45"/>
      <point x="172" y="-164"/>
      <point x="62" y="-164" type="curve" smooth="yes"/>
      <point x="-42" y="-164"/>
      <point x="-66" y="-43"/>
      <point x="-69" y="-20" type="curve" smooth="yes"/>
      <point x="-69" y="-16"/>
      <point x="-69" y="-9"/>
      <point x="-68" y="-3" type="curve" smooth="yes"/>
      <point x="-63" y="22"/>
      <point x="-39" y="45"/>
      <point x="-10" y="45" type="curve" smooth="yes"/>
      <point x="15" y="45"/>
      <point x="27" y="31"/>
    </contour>
    <contour>
      <point x="363" y="631" type="curve" smooth="yes"/>
      <point x="349" y="588" type="line"/>
      <point x="342" y="562"/>
      <point x="313" y="549"/>
      <point x="292" y="549" type="curve" smooth="yes"/>
      <point x="268.804" y="549"/>
      <point x="255.216" y="566.157"/>
      <point x="255.216" y="586.258" type="curve" smooth="yes"/>
      <point x="255.216" y="590.421"/>
      <point x="255.799" y="594.711"/>
      <point x="257" y="599" type="curve" smooth="yes"/>
      <point x="270" y="642" type="line" smooth="yes"/>
      <point x="278" y="667"/>
      <point x="303" y="682"/>
      <point x="326" y="682" type="curve" smooth="yes"/>
      <point x="351.527" y="682"/>
      <point x="364.848" y="663.692"/>
      <point x="364.848" y="643.828" type="curve" smooth="yes"/>
      <point x="364.848" y="639.568"/>
      <point x="364.236" y="635.237"/>
    </contour>
  </outline>
</glyph>
<glyph name="k" format="1">
  <advance width="520"/>
  <unicode hex="006B"/>
  <outline>
    <contour>
      <point x="417" y="84" type="curve"/>
      <point x="420.953" y="78.466"/>
      <point x="424.906" y="71.057"/>
      <point x="424.906" y="61.2789" type="curve" smooth="yes"/>
      <point x="424.906" y="58.6886"/>
      <point x="424.628" y="55.932"/>
      <point x="424" y="53" type="curve" smooth="yes"/>
      <point x="418" y="26"/>
      <point x="394" y="3"/>
      <point x="365" y="3" type="curve" smooth="yes"/>
      <point x="350" y="3"/>
      <point x="337" y="9"/>
      <point x="331" y="20" type="curve" smooth="yes"/>
      <point x="291" y="94"/>
      <point x="233" y="197"/>
      <point x="212" y="233" type="curve"/>
      <point x="186" y="216"/>
      <point x="161" y="202"/>
      <point x="146" y="193" type="curve"/>
      <point x="115" y="48" type="line" smooth="yes"/>
      <point x="109" y="23"/>
      <point x="84" y="0"/>
      <point x="56" y="0" type="curve" smooth="yes"/>
      <point x="34.1509" y="0"/>
      <point x="16.8847" y="17.5677"/>
      <point x="16.8847" y="38.6846" type="curve" smooth="yes"/>
      <point x="16.8847" y="41.73"/>
      <point x="17.2438" y="44.8491"/>
      <point x="18" y="48" type="curve"/>
      <point x="138" y="625" type="line" smooth="yes"/>
      <point x="144" y="651"/>
      <point x="171" y="672"/>
      <point x="197" y="672" type="curve" smooth="yes"/>
      <point x="222.13" y="672"/>
      <point x="235.996" y="654.729"/>
      <point x="235.996" y="633.202" type="curve" smooth="yes"/>
      <point x="235.996" y="629.886"/>
      <point x="235.667" y="626.47"/>
      <point x="235" y="623" type="curve" smooth="yes"/>
      <point x="167" y="299" type="line"/>
      <point x="232" y="346"/>
      <point x="335" y="432"/>
      <point x="402" y="496" type="curve" smooth="yes"/>
      <point x="413" y="507"/>
      <point x="427" y="516"/>
      <point x="445" y="516" type="curve" smooth="yes"/>
      <point x="468.183" y="516"/>
      <point x="483.257" y="501.255"/>
      <point x="483.257" y="480.627" type="curve" smooth="yes"/>
      <point x="483.257" y="477.231"/>
      <point x="482.848" y="473.675"/>
      <point x="482" y="470" type="curve"/>
      <point x="480" y="457"/>
      <point x="473" y="447"/>
      <point x="466" y="441" type="curve"/>
      <point x="419" y="392"/>
      <point x="345" y="329"/>
      <point x="296" y="291" type="curve"/>
      <point x="346" y="206"/>
      <point x="392" y="128"/>
    </contour>
  </outline>
</glyph>
<glyph name="l" format="1">
  <advance width="252"/>
  <unicode hex="006C"/>
  <outline>
    <contour>
      <point x="247" y="625" type="curve" smooth="yes"/>
      <point x="124" y="45" type="line" smooth="yes"/>
      <point x="119" y="20"/>
      <point x="90" y="0"/>
      <point x="67" y="0" type="curve" smooth="yes"/>
      <point x="44.7147" y="0"/>
      <point x="27.1971" y="15.8923"/>
      <point x="27.1971" y="37.0519" type="curve" smooth="yes"/>
      <point x="27.1971" y="39.6295"/>
      <point x="27.4571" y="42.2853"/>
      <point x="28" y="45" type="curve" smooth="yes"/>
      <point x="151" y="625" type="line" smooth="yes"/>
      <point x="157" y="651"/>
      <point x="181" y="672"/>
      <point x="209" y="672" type="curve" smooth="yes"/>
      <point x="230.849" y="672"/>
      <point x="248.115" y="655.96"/>
      <point x="248.115" y="634.561" type="curve" smooth="yes"/>
      <point x="248.115" y="631.474"/>
      <point x="247.756" y="628.277"/>
    </contour>
  </outline>
</glyph>
<glyph name="n" format="1">
  <advance width="561"/>
  <unicode hex="006E"/>
  <outline>
    <contour>
      <point x="199" y="452" type="curve"/>
      <point x="186" y="395" type="line"/>
      <point x="236" y="451"/>
      <point x="306" y="499"/>
      <point x="374" y="499" type="curve" smooth="yes"/>
      <point x="455.372" y="499"/>
      <point x="486.211" y="458.947"/>
      <point x="486.211" y="374.948" type="curve" smooth="yes"/>
      <point x="486.211" y="321.653"/>
      <point x="473.797" y="250.669"/>
      <point x="454" y="161" type="curve" smooth="yes"/>
      <point x="429" y="48" type="line" smooth="yes"/>
      <point x="423" y="23"/>
      <point x="400" y="0"/>
      <point x="373" y="0" type="curve" smooth="yes"/>
      <point x="349.934" y="0"/>
      <point x="333.164" y="18.1019"/>
      <point x="333.164" y="38.9447" type="curve" smooth="yes"/>
      <point x="333.164" y="41.596"/>
      <point x="333.436" y="44.2916"/>
      <point x="334" y="47" type="curve" smooth="yes"/>
      <point x="362" y="178" type="line" smooth="yes"/>
      <point x="379.984" y="262.179"/>
      <point x="386.987" y="315.027"/>
      <point x="386.987" y="348.196" type="curve" smooth="yes"/>
      <point x="386.987" y="401.713"/>
      <point x="368.756" y="404"/>
      <point x="349" y="404" type="curve" smooth="yes"/>
      <point x="317" y="404"/>
      <point x="274" y="387"/>
      <point x="214" y="308" type="curve" smooth="yes"/>
      <point x="173" y="254"/>
      <point x="143" y="194"/>
      <point x="130" y="134" type="curve" smooth="yes"/>
      <point x="112" y="50" type="line" smooth="yes"/>
      <point x="106" y="22"/>
      <point x="85" y="0"/>
      <point x="55" y="0" type="curve" smooth="yes"/>
      <point x="31.9341" y="0"/>
      <point x="15.1644" y="17.3148"/>
      <point x="15.1644" y="37.9801" type="curve" smooth="yes"/>
      <point x="15.1644" y="40.6088"/>
      <point x="15.4358" y="43.2916"/>
      <point x="16" y="46" type="curve" smooth="yes"/>
      <point x="103" y="452" type="line"/>
      <point x="108" y="479"/>
      <point x="137" y="500"/>
      <point x="163" y="500" type="curve" smooth="yes"/>
      <point x="184.915" y="500"/>
      <point x="199.914" y="483.863"/>
      <point x="199.914" y="461.693" type="curve" smooth="yes"/>
      <point x="199.914" y="458.572"/>
      <point x="199.617" y="455.332"/>
    </contour>
  </outline>
</glyph>
<glyph name="o" format="1">
  <advance width="561"/>
  <unicode hex="006F"/>
  <outline>
    <contour>
      <point x="199" y="0" type="curve" smooth="yes"/>
      <point x="99.4095" y="0"/>
      <point x="36.0461" y="75.3525"/>
      <point x="36.0461" y="176.719" type="curve" smooth="yes"/>
      <point x="36.0461" y="194.439"/>
      <point x="37.9824" y="212.954"/>
      <point x="42" y="232" type="curve" smooth="yes"/>
      <point x="73" y="377"/>
      <point x="206" y="500"/>
      <point x="333" y="500" type="curve" smooth="yes"/>
      <point x="432.591" y="500"/>
      <point x="495.954" y="421.749"/>
      <point x="495.954" y="321.987" type="curve" smooth="yes"/>
      <point x="495.954" y="304.548"/>
      <point x="494.018" y="286.451"/>
      <point x="490" y="268" type="curve" smooth="yes"/>
      <point x="459" y="122"/>
      <point x="326" y="0"/>
    </contour>
    <contour>
      <point x="310" y="411" type="curve" smooth="yes"/>
      <point x="238" y="411"/>
      <point x="159" y="328"/>
      <point x="139" y="233" type="curve" smooth="yes"/>
      <point x="135.851" y="218.552"/>
      <point x="134.315" y="204.516"/>
      <point x="134.315" y="191.234" type="curve" smooth="yes"/>
      <point x="134.315" y="132.814"/>
      <point x="164.04" y="89"/>
      <point x="217" y="89" type="curve" smooth="yes"/>
      <point x="288" y="89"/>
      <point x="371" y="170"/>
      <point x="390" y="263" type="curve" smooth="yes"/>
      <point x="392.898" y="276.465"/>
      <point x="394.284" y="289.64"/>
      <point x="394.284" y="302.232" type="curve" smooth="yes"/>
      <point x="394.284" y="363.517"/>
      <point x="361.432" y="411"/>
    </contour>
  </outline>
</glyph>
<glyph name="p" format="1">
  <advance width="546"/>
  <unicode hex="0070"/>
  <outline>
    <contour>
      <point x="358" y="500" type="curve" smooth="yes"/>
      <point x="447.066" y="500"/>
      <point x="484.625" y="422.739"/>
      <point x="484.625" y="336.927" type="curve" smooth="yes"/>
      <point x="484.625" y="315.794"/>
      <point x="482.347" y="294.143"/>
      <point x="478" y="273" type="curve" smooth="yes"/>
      <point x="454" y="160"/>
      <point x="377" y="7"/>
      <point x="199" y="7" type="curve" smooth="yes"/>
      <point x="164" y="7"/>
      <point x="133" y="15"/>
      <point x="108" y="24" type="curve"/>
      <point x="75" y="-129" type="line" smooth="yes"/>
      <point x="70" y="-154"/>
      <point x="42" y="-177"/>
      <point x="17" y="-177" type="curve" smooth="yes"/>
      <point x="-5.93898" y="-177"/>
      <point x="-21.8724" y="-159.097"/>
      <point x="-21.8724" y="-137.712" type="curve" smooth="yes"/>
      <point x="-21.8724" y="-134.859"/>
      <point x="-21.5887" y="-131.943"/>
      <point x="-21" y="-129" type="curve" smooth="yes"/>
      <point x="102" y="451" type="line" smooth="yes"/>
      <point x="108" y="479"/>
      <point x="134" y="500"/>
      <point x="162" y="500" type="curve" smooth="yes"/>
      <point x="185" y="500"/>
      <point x="199" y="482"/>
      <point x="199" y="460" type="curve"/>
      <point x="241" y="483"/>
      <point x="294" y="500"/>
    </contour>
    <contour>
      <point x="226" y="104" type="curve" smooth="yes"/>
      <point x="319" y="104"/>
      <point x="366" y="177"/>
      <point x="387" y="273" type="curve" smooth="yes"/>
      <point x="389.865" y="287.039"/>
      <point x="391.991" y="304.279"/>
      <point x="391.991" y="321.733" type="curve" smooth="yes"/>
      <point x="391.991" y="365.201"/>
      <point x="378.804" y="410"/>
      <point x="331" y="410" type="curve" smooth="yes"/>
      <point x="253" y="410"/>
      <point x="199" y="368"/>
      <point x="176" y="345" type="curve"/>
      <point x="130" y="128" type="line"/>
      <point x="151" y="119"/>
      <point x="188" y="104"/>
    </contour>
  </outline>
</glyph>
<glyph name="r" format="1">
  <advance width="422"/>
  <unicode hex="0072"/>
  <outline>
    <contour>
      <point x="418" y="406" type="curve" smooth="yes"/>
      <point x="411" y="376" type="line" smooth="yes"/>
      <point x="406" y="350"/>
      <point x="381" y="329"/>
      <point x="354" y="329" type="curve" smooth="yes"/>
      <point x="325.856" y="329"/>
      <point x="316.463" y="345.165"/>
      <point x="316.463" y="363.457" type="curve" smooth="yes"/>
      <point x="316.463" y="367.913"/>
      <point x="317.021" y="372.495"/>
      <point x="318" y="377" type="curve" smooth="yes"/>
      <point x="320" y="390" type="line"/>
      <point x="323" y="400"/>
      <point x="322" y="406"/>
      <point x="310" y="406" type="curve" smooth="yes"/>
      <point x="278" y="406"/>
      <point x="237" y="373"/>
      <point x="198" y="333" type="curve" smooth="yes"/>
      <point x="179" y="314"/>
      <point x="161" y="281"/>
      <point x="155" y="250" type="curve"/>
      <point x="110" y="46" type="line" smooth="yes"/>
      <point x="105" y="22"/>
      <point x="78" y="0"/>
      <point x="53" y="0" type="curve" smooth="yes"/>
      <point x="30.6089" y="3.55271e-15"/>
      <point x="12.2287" y="17.6479"/>
      <point x="12.2287" y="38.5744" type="curve" smooth="yes"/>
      <point x="12.2287" y="41.0127"/>
      <point x="12.4782" y="43.4955"/>
      <point x="13" y="46" type="curve" smooth="yes"/>
      <point x="99" y="451" type="line" smooth="yes"/>
      <point x="105" y="478"/>
      <point x="133" y="499"/>
      <point x="159" y="499" type="curve" smooth="yes"/>
      <point x="182.338" y="499"/>
      <point x="198.204" y="483.31"/>
      <point x="198.204" y="461.618" type="curve" smooth="yes"/>
      <point x="198.204" y="458.214"/>
      <point x="197.814" y="454.662"/>
      <point x="197" y="451" type="curve" smooth="yes"/>
      <point x="194" y="437" type="line"/>
      <point x="233" y="472"/>
      <point x="283" y="501"/>
      <point x="342" y="501" type="curve" smooth="yes"/>
      <point x="402.589" y="501"/>
      <point x="420.757" y="467.064"/>
      <point x="420.757" y="431.351" type="curve" smooth="yes"/>
      <point x="420.757" y="422.857"/>
      <point x="419.729" y="414.262"/>
    </contour>
  </outline>
</glyph>
<glyph name="t" format="1">
  <advance width="413"/>
  <unicode hex="0074"/>
  <outline>
    <contour>
      <point x="296" y="500" type="line"/>
      <point x="381" y="500" type="line" smooth="yes"/>
      <point x="404.183" y="500"/>
      <point x="419.257" y="484.517"/>
      <point x="419.257" y="462.415" type="curve" smooth="yes"/>
      <point x="419.257" y="458.776"/>
      <point x="418.848" y="454.958"/>
      <point x="418" y="451" type="curve" smooth="yes"/>
      <point x="413" y="426"/>
      <point x="387" y="403"/>
      <point x="360" y="403" type="curve" smooth="yes"/>
      <point x="275" y="403" type="line"/>
      <point x="199" y="46" type="line" smooth="yes"/>
      <point x="194" y="20"/>
      <point x="167" y="-1"/>
      <point x="141" y="-1" type="curve" smooth="yes"/>
      <point x="118.829" y="-1"/>
      <point x="102.163" y="15.5166"/>
      <point x="102.163" y="37.3896" type="curve" smooth="yes"/>
      <point x="102.163" y="40.1803"/>
      <point x="102.434" y="43.0581"/>
      <point x="103" y="46" type="curve" smooth="yes"/>
      <point x="179" y="403" type="line"/>
      <point x="95" y="403" type="line" smooth="yes"/>
      <point x="71.311" y="403"/>
      <point x="56.0895" y="420.705"/>
      <point x="56.0895" y="441.932" type="curve" smooth="yes"/>
      <point x="56.0895" y="444.899"/>
      <point x="56.3869" y="447.934"/>
      <point x="57" y="451" type="curve" smooth="yes"/>
      <point x="64" y="481"/>
      <point x="92" y="500"/>
      <point x="118" y="500" type="curve" smooth="yes"/>
      <point x="200" y="500" type="line"/>
      <point x="223" y="607" type="line" smooth="yes"/>
      <point x="228" y="632"/>
      <point x="254" y="656"/>
      <point x="281" y="656" type="curve" smooth="yes"/>
      <point x="306.13" y="656"/>
      <point x="319.996" y="637.978"/>
      <point x="319.996" y="616.901" type="curve" smooth="yes"/>
      <point x="319.996" y="613.655"/>
      <point x="319.667" y="610.336"/>
      <point x="319" y="607" type="curve" smooth="yes"/>
    </contour>
  </outline>
</glyph>
<glyph name="u" format="1">
  <advance width="538"/>
  <unicode hex="0075"/>
  <outline>
    <contour>
      <point x="494" y="454" type="curve" smooth="yes"/>
      <point x="408" y="48" type="line"/>
      <point x="402" y="23"/>
      <point x="376" y="0"/>
      <point x="350" y="0" type="curve" smooth="yes"/>
      <point x="323" y="0"/>
      <point x="307" y="17"/>
      <point x="307" y="40" type="curve"/>
      <point x="268" y="16"/>
      <point x="217" y="-3"/>
      <point x="166" y="-3" type="curve" smooth="yes"/>
      <point x="94.1654" y="-3"/>
      <point x="46.0233" y="10.1624"/>
      <point x="46.0233" y="118.623" type="curve" smooth="yes"/>
      <point x="46.0233" y="159.64"/>
      <point x="52.9081" y="214.284"/>
      <point x="68" y="287" type="curve"/>
      <point x="82" y="360"/>
      <point x="100" y="414"/>
      <point x="113" y="449" type="curve" smooth="yes"/>
      <point x="128" y="492"/>
      <point x="146" y="500"/>
      <point x="171" y="500" type="curve" smooth="yes"/>
      <point x="192.567" y="500"/>
      <point x="210.413" y="488.837"/>
      <point x="210.413" y="465.225" type="curve" smooth="yes"/>
      <point x="210.413" y="461.467"/>
      <point x="209.961" y="457.394"/>
      <point x="209" y="453" type="curve" smooth="yes"/>
      <point x="207" y="445"/>
      <point x="205" y="439"/>
      <point x="202" y="431" type="curve" smooth="yes"/>
      <point x="193" y="401"/>
      <point x="175" y="351"/>
      <point x="162" y="288" type="curve" smooth="yes"/>
      <point x="148.922" y="226.499"/>
      <point x="143.465" y="183.362"/>
      <point x="143.465" y="153.292" type="curve" smooth="yes"/>
      <point x="143.465" y="98.2865"/>
      <point x="161.724" y="87"/>
      <point x="185" y="87" type="curve" smooth="yes"/>
      <point x="239" y="87"/>
      <point x="304" y="125"/>
      <point x="325" y="144" type="curve" smooth="yes"/>
      <point x="330" y="148"/>
      <point x="334" y="158"/>
      <point x="336" y="169" type="curve" smooth="yes"/>
      <point x="399" y="454" type="line" smooth="yes"/>
      <point x="405" y="481"/>
      <point x="432" y="500"/>
      <point x="456" y="500" type="curve" smooth="yes"/>
      <point x="477.849" y="500"/>
      <point x="495.115" y="485.488"/>
      <point x="495.115" y="463.806" type="curve" smooth="yes"/>
      <point x="495.115" y="460.679"/>
      <point x="494.756" y="457.403"/>
    </contour>
  </outline>
</glyph>
<glyph name="w" format="1">
  <advance width="620"/>
  <unicode hex="0077"/>
  <outline>
    <contour>
      <point x="393" y="202" type="line"/>
      <point x="528" y="462" type="line" smooth="yes"/>
      <point x="538" y="482"/>
      <point x="561" y="499"/>
      <point x="583" y="499" type="curve" smooth="yes"/>
      <point x="604.849" y="499"/>
      <point x="622.115" y="484.488"/>
      <point x="622.115" y="463.473" type="curve" smooth="yes"/>
      <point x="622.115" y="460.443"/>
      <point x="621.756" y="457.277"/>
      <point x="621" y="454" type="curve" smooth="yes"/>
      <point x="619" y="446"/>
      <point x="617" y="441"/>
      <point x="614" y="435" type="curve" smooth="yes"/>
      <point x="401" y="36" type="line" smooth="yes"/>
      <point x="390" y="15"/>
      <point x="372" y="0"/>
      <point x="348" y="0" type="curve" smooth="yes"/>
      <point x="325" y="0"/>
      <point x="310" y="11"/>
      <point x="308" y="37" type="curve"/>
      <point x="297" y="299" type="line"/>
      <point x="145" y="35" type="line" smooth="yes"/>
      <point x="132" y="12"/>
      <point x="113" y="0"/>
      <point x="92" y="0" type="curve" smooth="yes"/>
      <point x="64" y="0"/>
      <point x="52" y="15"/>
      <point x="52" y="39" type="curve" smooth="yes"/>
      <point x="53" y="434" type="line" smooth="yes"/>
      <point x="53" y="444"/>
      <point x="53" y="450"/>
      <point x="55" y="458" type="curve" smooth="yes"/>
      <point x="59" y="479"/>
      <point x="85" y="500"/>
      <point x="111" y="500" type="curve" smooth="yes"/>
      <point x="137" y="500"/>
      <point x="150" y="483"/>
      <point x="149" y="460" type="curve"/>
      <point x="146" y="207" type="line"/>
      <point x="291" y="465" type="line" smooth="yes"/>
      <point x="303" y="486"/>
      <point x="325" y="500"/>
      <point x="347" y="500" type="curve" smooth="yes"/>
      <point x="371" y="500"/>
      <point x="386" y="489"/>
      <point x="387" y="465" type="curve" smooth="yes"/>
    </contour>
  </outline>
</glyph>
<glyph name="x" format="1">
  <advance width="536"/>
  <unicode hex="0078"/>
  <outline>
    <contour>
      <point x="520" y="417" type="curve" smooth="yes"/>
      <point x="325" y="253" type="line"/>
      <point x="434" y="78" type="line" smooth="yes"/>
      <point x="439" y="69"/>
      <point x="440" y="59"/>
      <point x="438" y="48" type="curve" smooth="yes"/>
      <point x="432" y="21"/>
      <point x="406" y="0"/>
      <point x="380" y="0" type="curve" smooth="yes"/>
      <point x="368" y="0"/>
      <point x="355" y="5"/>
      <point x="348" y="15" type="curve"/>
      <point x="243" y="189" type="line"/>
      <point x="42" y="15" type="line" smooth="yes"/>
      <point x="28" y="3"/>
      <point x="16" y="1"/>
      <point x="4" y="1" type="curve" smooth="yes"/>
      <point x="-18.8017" y="1"/>
      <point x="-33.9123" y="18.6895"/>
      <point x="-33.9123" y="39.9041" type="curve" smooth="yes"/>
      <point x="-33.9123" y="42.8797"/>
      <point x="-33.6151" y="45.9247"/>
      <point x="-33" y="49" type="curve" smooth="yes"/>
      <point x="-31" y="61"/>
      <point x="-26" y="72"/>
      <point x="-12" y="84" type="curve" smooth="yes"/>
      <point x="196" y="259" type="line"/>
      <point x="96" y="419" type="line"/>
      <point x="90.6985" y="425.816"/>
      <point x="88.2649" y="434.353"/>
      <point x="88.2649" y="442.873" type="curve" smooth="yes"/>
      <point x="88.2649" y="445.603"/>
      <point x="88.5147" y="448.331"/>
      <point x="89" y="451" type="curve" smooth="yes"/>
      <point x="95" y="477"/>
      <point x="121" y="500"/>
      <point x="147" y="500" type="curve" smooth="yes"/>
      <point x="159" y="500"/>
      <point x="171" y="497"/>
      <point x="179" y="484" type="curve" smooth="yes"/>
      <point x="277" y="322" type="line"/>
      <point x="465" y="483" type="line" smooth="yes"/>
      <point x="479" y="494"/>
      <point x="491" y="498"/>
      <point x="503" y="498" type="curve" smooth="yes"/>
      <point x="525.171" y="498"/>
      <point x="541.837" y="479.91"/>
      <point x="541.837" y="458.379" type="curve" smooth="yes"/>
      <point x="541.837" y="455.632"/>
      <point x="541.566" y="452.829"/>
      <point x="541" y="450" type="curve" smooth="yes"/>
      <point x="538" y="437"/>
      <point x="530" y="425"/>
    </contour>
  </outline>
</glyph>
<glyph name="y" format="1">
  <advance width="515"/>
  <unicode hex="0079"/>
  <outline>
    <contour>
      <point x="505" y="432" type="curve" smooth="yes"/>
      <point x="115" y="-148" type="line" smooth="yes"/>
      <point x="103" y="-165"/>
      <point x="84" y="-179"/>
      <point x="63" y="-179" type="curve" smooth="yes"/>
      <point x="40.5378" y="-179"/>
      <point x="24.793" y="-162.58"/>
      <point x="24.793" y="-140.701" type="curve" smooth="yes"/>
      <point x="24.793" y="-137.255"/>
      <point x="25.1836" y="-133.674"/>
      <point x="26" y="-130" type="curve" smooth="yes"/>
      <point x="27" y="-124"/>
      <point x="31" y="-116"/>
      <point x="35" y="-109" type="curve" smooth="yes"/>
      <point x="160" y="78" type="line"/>
      <point x="61" y="427" type="line"/>
      <point x="60" y="433"/>
      <point x="58" y="442"/>
      <point x="60" y="451" type="curve" smooth="yes"/>
      <point x="66" y="478"/>
      <point x="92" y="500"/>
      <point x="119" y="500" type="curve" smooth="yes"/>
      <point x="140" y="500"/>
      <point x="152" y="485"/>
      <point x="156" y="470" type="curve" smooth="yes"/>
      <point x="236" y="191" type="line"/>
      <point x="423" y="470" type="line" smooth="yes"/>
      <point x="435" y="487"/>
      <point x="455" y="501"/>
      <point x="476" y="501" type="curve" smooth="yes"/>
      <point x="497.849" y="501"/>
      <point x="515.115" y="484.96"/>
      <point x="515.115" y="462.225" type="curve" smooth="yes"/>
      <point x="515.115" y="458.947"/>
      <point x="514.756" y="455.529"/>
      <point x="514" y="452" type="curve" smooth="yes"/>
      <point x="512" y="446"/>
      <point x="510" y="439"/>
    </contour>
  </outline>
</glyph>
<glyph name="braceleft" format="1">
  <advance width="402"/>
  <unicode hex="007B"/>
  <outline>
    <contour>
      <point x="103" y="383" type="curve"/>
      <point x="146" y="403"/>
      <point x="159" y="423"/>
      <point x="166" y="452" type="curve"/>
      <point x="202" y="624" type="line" smooth="yes"/>
      <point x="224" y="726"/>
      <point x="318" y="769"/>
      <point x="385" y="779" type="curve"/>
      <point x="388.448" y="779.609"/>
      <point x="391.722" y="779.898"/>
      <point x="394.814" y="779.898" type="curve" smooth="yes"/>
      <point x="418.165" y="779.898"/>
      <point x="431.188" y="763.382"/>
      <point x="431.188" y="742.926" type="curve" smooth="yes"/>
      <point x="431.188" y="739.38"/>
      <point x="430.796" y="735.717"/>
      <point x="430" y="732" type="curve" smooth="yes"/>
      <point x="425" y="707"/>
      <point x="407" y="691"/>
      <point x="378" y="685" type="curve" smooth="yes"/>
      <point x="352" y="680"/>
      <point x="305" y="665"/>
      <point x="296" y="624" type="curve" smooth="yes"/>
      <point x="260" y="453" type="line" smooth="yes"/>
      <point x="250" y="406"/>
      <point x="226" y="368"/>
      <point x="194" y="340" type="curve"/>
      <point x="206.533" y="319.357"/>
      <point x="215.805" y="292.735"/>
      <point x="215.805" y="262.138" type="curve" smooth="yes"/>
      <point x="215.805" y="251.233"/>
      <point x="214.628" y="239.824"/>
      <point x="212" y="228" type="curve" smooth="yes"/>
      <point x="173" y="43" type="line" smooth="yes"/>
      <point x="172.135" y="39.0601"/>
      <point x="171.732" y="35.3511"/>
      <point x="171.732" y="31.8614" type="curve" smooth="yes"/>
      <point x="171.732" y="-0.96422"/>
      <point x="207.402" y="-14.3844"/>
      <point x="230" y="-18" type="curve"/>
      <point x="249.7" y="-22.2827"/>
      <point x="262.064" y="-36.8366"/>
      <point x="262.064" y="-55.3776" type="curve" smooth="yes"/>
      <point x="262.064" y="-58.483"/>
      <point x="261.717" y="-61.7004"/>
      <point x="261" y="-65" type="curve" smooth="yes"/>
      <point x="253.984" y="-94.8171"/>
      <point x="230.049" y="-113.098"/>
      <point x="202.008" y="-113.098" type="curve" smooth="yes"/>
      <point x="198.074" y="-113.098"/>
      <point x="194.06" y="-112.738"/>
      <point x="190" y="-112" type="curve"/>
      <point x="136.678" y="-100.636"/>
      <point x="74.951" y="-68.6418"/>
      <point x="74.951" y="7.36086" type="curve" smooth="yes"/>
      <point x="74.951" y="18.3048"/>
      <point x="76.2309" y="30.1613"/>
      <point x="79" y="43" type="curve" smooth="yes"/>
      <point x="118" y="229" type="line" smooth="yes"/>
      <point x="119.423" y="235.226"/>
      <point x="120.087" y="241.071"/>
      <point x="120.087" y="246.532" type="curve" smooth="yes"/>
      <point x="120.087" y="271.771"/>
      <point x="105.909" y="288.779"/>
      <point x="87" y="297" type="curve"/>
      <point x="69.8357" y="303.242"/>
      <point x="63.6281" y="313.744"/>
      <point x="63.6281" y="327.083" type="curve" smooth="yes"/>
      <point x="63.6281" y="330.841"/>
      <point x="64.1208" y="334.824"/>
      <point x="65" y="339" type="curve" smooth="yes"/>
      <point x="70" y="364"/>
      <point x="79" y="373"/>
    </contour>
  </outline>
</glyph>
<glyph name="bar" format="1">
  <advance width="219"/>
  <unicode hex="007C"/>
  <outline>
    <contour>
      <point x="17" y="-153" type="curve" smooth="yes"/>
      <point x="-5.73214" y="-153"/>
      <point x="-23.1133" y="-136.947"/>
      <point x="-23.1133" y="-114.198" type="curve" smooth="yes"/>
      <point x="-23.1133" y="-110.928"/>
      <point x="-22.7541" y="-107.519"/>
      <point x="-22" y="-104" type="curve" smooth="yes"/>
      <point x="162" y="760" type="line" smooth="yes"/>
      <point x="168" y="786"/>
      <point x="195" y="808"/>
      <point x="221" y="808" type="curve" smooth="yes"/>
      <point x="244.338" y="808"/>
      <point x="260.204" y="791.563"/>
      <point x="260.204" y="770.314" type="curve" smooth="yes"/>
      <point x="260.204" y="766.979"/>
      <point x="259.814" y="763.526"/>
      <point x="259" y="760" type="curve" smooth="yes"/>
      <point x="75" y="-104" type="line" smooth="yes"/>
      <point x="69" y="-132"/>
      <point x="44" y="-153"/>
    </contour>
  </outline>
</glyph>
<glyph name="braceright" format="1">
  <advance width="402"/>
  <unicode hex="007D"/>
  <outline>
    <contour>
      <point x="306" y="284" type="curve"/>
      <point x="263" y="264"/>
      <point x="249" y="244"/>
      <point x="243" y="215" type="curve" smooth="yes"/>
      <point x="207" y="43" type="line" smooth="yes"/>
      <point x="185" y="-59"/>
      <point x="91" y="-102"/>
      <point x="24" y="-112" type="curve" smooth="yes"/>
      <point x="20.4503" y="-112.609"/>
      <point x="17.0961" y="-112.898"/>
      <point x="13.9404" y="-112.898" type="curve" smooth="yes"/>
      <point x="-9.73595" y="-112.898"/>
      <point x="-22.235" y="-96.5932"/>
      <point x="-22.235" y="-76.3195" type="curve" smooth="yes"/>
      <point x="-22.235" y="-72.6519"/>
      <point x="-21.8259" y="-68.8544"/>
      <point x="-21" y="-65" type="curve" smooth="yes"/>
      <point x="-16" y="-40"/>
      <point x="1" y="-24"/>
      <point x="31" y="-18" type="curve" smooth="yes"/>
      <point x="57" y="-13"/>
      <point x="104" y="2"/>
      <point x="113" y="43" type="curve" smooth="yes"/>
      <point x="149" y="214" type="line" smooth="yes"/>
      <point x="159" y="261"/>
      <point x="183" y="299"/>
      <point x="215" y="327" type="curve"/>
      <point x="202.467" y="347.643"/>
      <point x="193.195" y="374.265"/>
      <point x="193.195" y="404.862" type="curve" smooth="yes"/>
      <point x="193.195" y="415.767"/>
      <point x="194.372" y="427.176"/>
      <point x="197" y="439" type="curve" smooth="yes"/>
      <point x="236" y="624" type="line" smooth="yes"/>
      <point x="236.865" y="627.94"/>
      <point x="237.268" y="631.649"/>
      <point x="237.268" y="635.139" type="curve" smooth="yes"/>
      <point x="237.268" y="667.964"/>
      <point x="201.598" y="681.384"/>
      <point x="179" y="685" type="curve"/>
      <point x="159.3" y="689.283"/>
      <point x="146.936" y="703.837"/>
      <point x="146.936" y="722.378" type="curve" smooth="yes"/>
      <point x="146.936" y="725.483"/>
      <point x="147.283" y="728.7"/>
      <point x="148" y="732" type="curve" smooth="yes"/>
      <point x="154.139" y="761.817"/>
      <point x="177.966" y="780.098"/>
      <point x="206.668" y="780.098" type="curve" smooth="yes"/>
      <point x="210.695" y="780.098"/>
      <point x="214.817" y="779.738"/>
      <point x="219" y="779" type="curve"/>
      <point x="271.523" y="767.62"/>
      <point x="334.008" y="735.55"/>
      <point x="334.008" y="659.312" type="curve" smooth="yes"/>
      <point x="334.008" y="648.459"/>
      <point x="332.742" y="636.711"/>
      <point x="330" y="624" type="curve" smooth="yes"/>
      <point x="291" y="438" type="line" smooth="yes"/>
      <point x="289.577" y="431.774"/>
      <point x="288.913" y="425.929"/>
      <point x="288.913" y="420.468" type="curve" smooth="yes"/>
      <point x="288.913" y="395.229"/>
      <point x="303.091" y="378.221"/>
      <point x="322" y="370" type="curve" smooth="yes"/>
      <point x="338.679" y="363.646"/>
      <point x="345.265" y="352.876"/>
      <point x="345.265" y="339.194" type="curve" smooth="yes"/>
      <point x="345.265" y="335.649"/>
      <point x="344.823" y="331.909"/>
      <point x="344" y="328" type="curve" smooth="yes"/>
      <point x="339" y="303"/>
      <point x="330" y="294"/>
    </contour>
  </outline>
</glyph>
<glyph name="asciitilde" format="1">
  <advance width="666"/>
  <unicode hex="007E"/>
  <outline>
    <contour>
      <point x="570" y="280" type="curve" smooth="yes"/>
      <point x="541" y="232"/>
      <point x="476" y="136"/>
      <point x="380" y="136" type="curve" smooth="yes"/>
      <point x="312" y="136"/>
      <point x="289" y="182"/>
      <point x="268" y="223" type="curve" smooth="yes"/>
      <point x="253" y="253"/>
      <point x="242" y="271"/>
      <point x="223" y="271" type="curve" smooth="yes"/>
      <point x="189" y="271"/>
      <point x="157" y="229"/>
      <point x="143" y="201" type="curve" smooth="yes"/>
      <point x="132" y="181"/>
      <point x="114" y="167"/>
      <point x="90" y="167" type="curve" smooth="yes"/>
      <point x="67.6881" y="167"/>
      <point x="52.7405" y="182.465"/>
      <point x="52.7405" y="203.283" type="curve" smooth="yes"/>
      <point x="52.7405" y="206.724"/>
      <point x="53.1489" y="210.312"/>
      <point x="54" y="214" type="curve" smooth="yes"/>
      <point x="55" y="221"/>
      <point x="58" y="226"/>
      <point x="62" y="233" type="curve" smooth="yes"/>
      <point x="103" y="304"/>
      <point x="163" y="365"/>
      <point x="243" y="365" type="curve" smooth="yes"/>
      <point x="311" y="365"/>
      <point x="336" y="320"/>
      <point x="356" y="279" type="curve" smooth="yes"/>
      <point x="371" y="249"/>
      <point x="382" y="231"/>
      <point x="401" y="231" type="curve" smooth="yes"/>
      <point x="437" y="231"/>
      <point x="469" y="282"/>
      <point x="486" y="310" type="curve" smooth="yes"/>
      <point x="501" y="335"/>
      <point x="521" y="348"/>
      <point x="541" y="348" type="curve" smooth="yes"/>
      <point x="563.462" y="348"/>
      <point x="579.207" y="332.326"/>
      <point x="579.207" y="311.295" type="curve" smooth="yes"/>
      <point x="579.207" y="307.983"/>
      <point x="578.816" y="304.538"/>
      <point x="578" y="301" type="curve" smooth="yes"/>
      <point x="577" y="296"/>
      <point x="575" y="287"/>
    </contour>
  </outline>
</glyph>
<glyph name="sterling" format="1">
  <advance width="770"/>
  <unicode hex="00A3"/>
  <outline>
    <contour>
      <point x="609" y="188" type="curve" smooth="yes"/>
      <point x="634.607" y="188"/>
      <point x="647.1" y="170.514"/>
      <point x="647.1" y="149.224" type="curve" smooth="yes"/>
      <point x="647.1" y="145.571"/>
      <point x="646.732" y="141.807"/>
      <point x="646" y="138" type="curve" smooth="yes"/>
      <point x="631" y="67"/>
      <point x="531" y="-9"/>
      <point x="453" y="-9" type="curve" smooth="yes"/>
      <point x="401" y="-9"/>
      <point x="344" y="13"/>
      <point x="301" y="51" type="curve" smooth="yes"/>
      <point x="291" y="60"/>
      <point x="277" y="64"/>
      <point x="264" y="64" type="curve" smooth="yes"/>
      <point x="226" y="64"/>
      <point x="187" y="38"/>
      <point x="160" y="21" type="curve" smooth="yes"/>
      <point x="140" y="8"/>
      <point x="126" y="0"/>
      <point x="114" y="0" type="curve" smooth="yes"/>
      <point x="91.061" y="0"/>
      <point x="75.1276" y="16.3463"/>
      <point x="75.1276" y="38.051" type="curve" smooth="yes"/>
      <point x="75.1276" y="40.9473"/>
      <point x="75.4113" y="43.939"/>
      <point x="76" y="47" type="curve" smooth="yes"/>
      <point x="80" y="63"/>
      <point x="91" y="77"/>
      <point x="104" y="85" type="curve"/>
      <point x="151" y="118"/>
      <point x="185" y="174"/>
      <point x="194" y="214" type="curve" smooth="yes"/>
      <point x="197.192" y="228.685"/>
      <point x="199.57" y="245.001"/>
      <point x="199.57" y="263.469" type="curve" smooth="yes"/>
      <point x="199.57" y="273.925"/>
      <point x="198.808" y="285.07"/>
      <point x="197" y="297" type="curve"/>
      <point x="121" y="297" type="line" smooth="yes"/>
      <point x="97.311" y="297"/>
      <point x="82.0895" y="314.705"/>
      <point x="82.0895" y="335.256" type="curve" smooth="yes"/>
      <point x="82.0895" y="338.129"/>
      <point x="82.3869" y="341.057"/>
      <point x="83" y="344" type="curve" smooth="yes"/>
      <point x="88" y="371"/>
      <point x="114" y="392"/>
      <point x="141" y="392" type="curve" smooth="yes"/>
      <point x="196" y="392" type="line"/>
      <point x="197" y="414"/>
      <point x="202" y="439"/>
      <point x="206" y="461" type="curve"/>
      <point x="241" y="623"/>
      <point x="341" y="705"/>
      <point x="511" y="705" type="curve" smooth="yes"/>
      <point x="640.56" y="705"/>
      <point x="677.031" y="601.305"/>
      <point x="677.031" y="522.933" type="curve" smooth="yes"/>
      <point x="677.031" y="490.799"/>
      <point x="654.246" y="463"/>
      <point x="619" y="463" type="curve" smooth="yes"/>
      <point x="594" y="463"/>
      <point x="580" y="480"/>
      <point x="580" y="506" type="curve" smooth="yes"/>
      <point x="581" y="569"/>
      <point x="545" y="610"/>
      <point x="479" y="610" type="curve" smooth="yes"/>
      <point x="379" y="610"/>
      <point x="324" y="565"/>
      <point x="301" y="461" type="curve" smooth="yes"/>
      <point x="297" y="441"/>
      <point x="294" y="418"/>
      <point x="292" y="392" type="curve"/>
      <point x="488" y="392" type="line" smooth="yes"/>
      <point x="510.802" y="392"/>
      <point x="525.912" y="375.849"/>
      <point x="525.912" y="353.664" type="curve" smooth="yes"/>
      <point x="525.912" y="350.552"/>
      <point x="525.615" y="347.321"/>
      <point x="525" y="344" type="curve" smooth="yes"/>
      <point x="520" y="320"/>
      <point x="494" y="297"/>
      <point x="468" y="297" type="curve" smooth="yes"/>
      <point x="292" y="297" type="line"/>
      <point x="292.462" y="284.976"/>
      <point x="293.139" y="272.524"/>
      <point x="293.139" y="259.743" type="curve" smooth="yes"/>
      <point x="293.139" y="244.888"/>
      <point x="292.225" y="229.588"/>
      <point x="289" y="214" type="curve" smooth="yes"/>
      <point x="286" y="198"/>
      <point x="280" y="179"/>
      <point x="271" y="159" type="curve"/>
      <point x="284" y="159" type="line" smooth="yes"/>
      <point x="319" y="159"/>
      <point x="349" y="148"/>
      <point x="373" y="126" type="curve" smooth="yes"/>
      <point x="403" y="100"/>
      <point x="438" y="85"/>
      <point x="471" y="85" type="curve" smooth="yes"/>
      <point x="505" y="85"/>
      <point x="535" y="106"/>
      <point x="553" y="145" type="curve" smooth="yes"/>
      <point x="566" y="172"/>
      <point x="584" y="188"/>
    </contour>
  </outline>
</glyph>
<glyph name="yen" format="1">
  <advance width="599"/>
  <unicode hex="00A5"/>
  <outline>
    <contour>
      <point x="540" y="676" type="curve" smooth="yes"/>
      <point x="561.967" y="676"/>
      <point x="580.073" y="659.787"/>
      <point x="580.073" y="637.536" type="curve" smooth="yes"/>
      <point x="580.073" y="634.463"/>
      <point x="579.728" y="631.276"/>
      <point x="579" y="628" type="curve" smooth="yes"/>
      <point x="577" y="621"/>
      <point x="575" y="612"/>
      <point x="565" y="599" type="curve" smooth="yes"/>
      <point x="380" y="356" type="line"/>
      <point x="427" y="356" type="line" smooth="yes"/>
      <point x="450.338" y="356"/>
      <point x="466.204" y="340.31"/>
      <point x="466.204" y="319.264" type="curve" smooth="yes"/>
      <point x="466.204" y="315.961"/>
      <point x="465.814" y="312.526"/>
      <point x="465" y="309" type="curve" smooth="yes"/>
      <point x="460" y="283"/>
      <point x="434" y="262"/>
      <point x="407" y="262" type="curve" smooth="yes"/>
      <point x="324" y="262" type="line"/>
      <point x="314" y="216" type="line"/>
      <point x="397" y="216" type="line" smooth="yes"/>
      <point x="420.338" y="216"/>
      <point x="436.204" y="200.31"/>
      <point x="436.204" y="179.264" type="curve" smooth="yes"/>
      <point x="436.204" y="175.961"/>
      <point x="435.814" y="172.526"/>
      <point x="435" y="169" type="curve" smooth="yes"/>
      <point x="430" y="143"/>
      <point x="404" y="122"/>
      <point x="377" y="122" type="curve" smooth="yes"/>
      <point x="294" y="122" type="line"/>
      <point x="279" y="48" type="line"/>
      <point x="273" y="23"/>
      <point x="248" y="0"/>
      <point x="221" y="0" type="curve" smooth="yes"/>
      <point x="198.398" y="-7.10543e-15"/>
      <point x="181.842" y="17.381"/>
      <point x="181.842" y="38.3473" type="curve" smooth="yes"/>
      <point x="181.842" y="41.4995"/>
      <point x="182.216" y="44.7327"/>
      <point x="183" y="48" type="curve"/>
      <point x="198" y="122" type="line"/>
      <point x="115" y="122" type="line" smooth="yes"/>
      <point x="92.1983" y="122"/>
      <point x="77.0877" y="138.151"/>
      <point x="77.0877" y="159.662" type="curve" smooth="yes"/>
      <point x="77.0877" y="162.679"/>
      <point x="77.3849" y="165.802"/>
      <point x="78" y="169" type="curve" smooth="yes"/>
      <point x="84" y="195"/>
      <point x="109" y="216"/>
      <point x="135" y="216" type="curve" smooth="yes"/>
      <point x="218" y="216" type="line"/>
      <point x="228" y="262" type="line"/>
      <point x="145" y="262" type="line" smooth="yes"/>
      <point x="122.198" y="262"/>
      <point x="107.088" y="278.151"/>
      <point x="107.088" y="299.662" type="curve" smooth="yes"/>
      <point x="107.088" y="302.679"/>
      <point x="107.385" y="305.802"/>
      <point x="108" y="309" type="curve" smooth="yes"/>
      <point x="114" y="335"/>
      <point x="139" y="356"/>
      <point x="165" y="356" type="curve" smooth="yes"/>
      <point x="215" y="356" type="line"/>
      <point x="144" y="605" type="line"/>
      <point x="143" y="612"/>
      <point x="142" y="620"/>
      <point x="144" y="626" type="curve" smooth="yes"/>
      <point x="149" y="650"/>
      <point x="174" y="674"/>
      <point x="203" y="674" type="curve" smooth="yes"/>
      <point x="220" y="674"/>
      <point x="234" y="665"/>
      <point x="239" y="648" type="curve" smooth="yes"/>
      <point x="309" y="406" type="line"/>
      <point x="493" y="650" type="line" smooth="yes"/>
      <point x="505" y="667"/>
      <point x="522" y="676"/>
    </contour>
  </outline>
</glyph>
<glyph name="section" format="1">
  <advance width="483"/>
  <unicode hex="00A7"/>
  <outline>
    <contour>
      <point x="126" y="154" type="curve" smooth="yes"/>
      <point x="130" y="116"/>
      <point x="161" y="90"/>
      <point x="209" y="90" type="curve" smooth="yes"/>
      <point x="273" y="90"/>
      <point x="302" y="131"/>
      <point x="308" y="156" type="curve" smooth="yes"/>
      <point x="308.499" y="158.395"/>
      <point x="308.759" y="160.731"/>
      <point x="308.759" y="163.017" type="curve" smooth="yes"/>
      <point x="308.759" y="183.633"/>
      <point x="287.612" y="200.196"/>
      <point x="230" y="220" type="curve" smooth="yes"/>
      <point x="146.916" y="247.695"/>
      <point x="102.781" y="283.629"/>
      <point x="102.781" y="341.415" type="curve" smooth="yes"/>
      <point x="102.781" y="350.398"/>
      <point x="103.847" y="359.909"/>
      <point x="106" y="370" type="curve" smooth="yes"/>
      <point x="112" y="396"/>
      <point x="123" y="416"/>
      <point x="138" y="433" type="curve"/>
      <point x="132.9" y="445.112"/>
      <point x="129.832" y="458.442"/>
      <point x="129.832" y="472.992" type="curve" smooth="yes"/>
      <point x="129.832" y="481.267"/>
      <point x="130.825" y="489.936"/>
      <point x="133" y="499" type="curve"/>
      <point x="155" y="604"/>
      <point x="264" y="630"/>
      <point x="338" y="630" type="curve" smooth="yes"/>
      <point x="430.485" y="630"/>
      <point x="478.056" y="592.698"/>
      <point x="478.056" y="533.372" type="curve" smooth="yes"/>
      <point x="478.056" y="524.702"/>
      <point x="477.04" y="515.563"/>
      <point x="475" y="506" type="curve" smooth="yes"/>
      <point x="466" y="464"/>
      <point x="447" y="441"/>
      <point x="413" y="441" type="curve" smooth="yes"/>
      <point x="385.884" y="441"/>
      <point x="373.847" y="455.361"/>
      <point x="373.847" y="473.131" type="curve" smooth="yes"/>
      <point x="373.847" y="476.332"/>
      <point x="374.237" y="479.643"/>
      <point x="375" y="483" type="curve" smooth="yes"/>
      <point x="377" y="493"/>
      <point x="381" y="499"/>
      <point x="382" y="507" type="curve"/>
      <point x="382.535" y="509.139"/>
      <point x="382.806" y="511.21"/>
      <point x="382.806" y="513.202" type="curve" smooth="yes"/>
      <point x="382.806" y="529.835"/>
      <point x="363.866" y="541"/>
      <point x="321" y="541" type="curve" smooth="yes"/>
      <point x="270" y="541"/>
      <point x="231" y="525"/>
      <point x="226" y="499" type="curve" smooth="yes"/>
      <point x="225.398" y="496.365"/>
      <point x="225.113" y="493.844"/>
      <point x="225.113" y="491.43" type="curve" smooth="yes"/>
      <point x="225.113" y="461.776"/>
      <point x="268.108" y="448.323"/>
      <point x="294" y="440" type="curve" smooth="yes"/>
      <point x="370.143" y="414.042"/>
      <point x="430.564" y="394.074"/>
      <point x="430.564" y="319.201" type="curve" smooth="yes"/>
      <point x="430.564" y="307.542"/>
      <point x="429.099" y="294.552"/>
      <point x="426" y="280" type="curve" smooth="yes"/>
      <point x="422" y="260"/>
      <point x="412" y="239"/>
      <point x="398" y="220" type="curve"/>
      <point x="401.407" y="209.212"/>
      <point x="403.201" y="197.136"/>
      <point x="403.201" y="183.769" type="curve" smooth="yes"/>
      <point x="403.201" y="173.593"/>
      <point x="402.161" y="162.67"/>
      <point x="400" y="151" type="curve"/>
      <point x="384" y="79"/>
      <point x="299" y="0"/>
      <point x="190" y="0" type="curve" smooth="yes"/>
      <point x="73.2474" y="0"/>
      <point x="30.0215" y="87.0488"/>
      <point x="30.0215" y="130.62" type="curve" smooth="yes"/>
      <point x="30.0215" y="134.444"/>
      <point x="30.3545" y="137.934"/>
      <point x="31" y="141" type="curve" smooth="yes"/>
      <point x="37" y="167"/>
      <point x="62" y="188"/>
      <point x="88" y="188" type="curve" smooth="yes"/>
      <point x="111" y="188"/>
      <point x="124" y="173"/>
    </contour>
    <contour>
      <point x="335" y="272" type="curve"/>
      <point x="342" y="281"/>
      <point x="345" y="290"/>
      <point x="346" y="296" type="curve" smooth="yes"/>
      <point x="347.095" y="300.851"/>
      <point x="347.726" y="305.311"/>
      <point x="347.726" y="309.474" type="curve" smooth="yes"/>
      <point x="347.726" y="331.915"/>
      <point x="329.419" y="345.756"/>
      <point x="267" y="366" type="curve" smooth="yes"/>
      <point x="253" y="371"/>
      <point x="223" y="381"/>
      <point x="202" y="387" type="curve"/>
      <point x="192" y="379"/>
      <point x="189" y="372"/>
      <point x="187" y="364" type="curve" smooth="yes"/>
      <point x="186.129" y="359.995"/>
      <point x="185.721" y="356.278"/>
      <point x="185.721" y="352.824" type="curve" smooth="yes"/>
      <point x="185.721" y="316.599"/>
      <point x="230.612" y="309.216"/>
      <point x="258" y="301" type="curve" smooth="yes"/>
      <point x="288" y="291"/>
      <point x="315" y="284"/>
    </contour>
  </outline>
</glyph>
<glyph name="dieresis" format="1">
  <advance width="526"/>
  <unicode hex="00A8"/>
  <outline>
    <contour>
      <point x="294" y="586" type="curve" smooth="yes"/>
      <point x="287" y="551"/>
      <point x="251" y="523"/>
      <point x="212" y="523" type="curve" smooth="yes"/>
      <point x="181.237" y="523"/>
      <point x="159.745" y="541.541"/>
      <point x="159.745" y="569.116" type="curve" smooth="yes"/>
      <point x="159.745" y="572.914"/>
      <point x="160.153" y="576.884"/>
      <point x="161" y="581" type="curve" smooth="yes"/>
      <point x="168" y="614"/>
      <point x="204" y="644"/>
      <point x="243" y="644" type="curve" smooth="yes"/>
      <point x="271.444" y="644"/>
      <point x="295.148" y="624.247"/>
      <point x="295.148" y="596.68" type="curve" smooth="yes"/>
      <point x="295.148" y="593.235"/>
      <point x="294.778" y="589.667"/>
    </contour>
    <contour>
      <point x="479" y="586" type="curve" smooth="yes"/>
      <point x="472" y="551"/>
      <point x="436" y="523"/>
      <point x="397" y="523" type="curve" smooth="yes"/>
      <point x="365.349" y="523"/>
      <point x="343.747" y="541.552"/>
      <point x="343.747" y="569.141" type="curve" smooth="yes"/>
      <point x="343.747" y="572.931"/>
      <point x="344.154" y="576.893"/>
      <point x="345" y="581" type="curve" smooth="yes"/>
      <point x="352" y="614"/>
      <point x="389" y="644"/>
      <point x="427" y="644" type="curve" smooth="yes"/>
      <point x="456.34" y="644"/>
      <point x="480.147" y="624.238"/>
      <point x="480.147" y="596.661" type="curve" smooth="yes"/>
      <point x="480.147" y="593.221"/>
      <point x="479.776" y="589.66"/>
    </contour>
  </outline>
</glyph>
<glyph name="ordfeminine" format="1">
  <advance width="276"/>
  <unicode hex="00AA"/>
  <outline>
    <contour>
      <point x="236" y="311" type="curve" smooth="yes"/>
      <point x="222" y="311"/>
      <point x="209" y="317"/>
      <point x="203" y="327" type="curve"/>
      <point x="185" y="321"/>
      <point x="165" y="315"/>
      <point x="137" y="315" type="curve" smooth="yes"/>
      <point x="73.3465" y="315"/>
      <point x="34.1837" y="360.38"/>
      <point x="34.1837" y="424.852" type="curve" smooth="yes"/>
      <point x="34.1837" y="436.344"/>
      <point x="35.4281" y="448.443"/>
      <point x="38" y="461" type="curve"/>
      <point x="58" y="551"/>
      <point x="134" y="652"/>
      <point x="235" y="652" type="curve" smooth="yes"/>
      <point x="282" y="652"/>
      <point x="327" y="630"/>
      <point x="343" y="615" type="curve"/>
      <point x="289" y="356" type="line" smooth="yes"/>
      <point x="284" y="332"/>
      <point x="260" y="311"/>
    </contour>
    <contour>
      <point x="220" y="561" type="curve" smooth="yes"/>
      <point x="171" y="561"/>
      <point x="139" y="504"/>
      <point x="130" y="463" type="curve" smooth="yes"/>
      <point x="128.63" y="457.065"/>
      <point x="127.886" y="450.816"/>
      <point x="127.886" y="444.708" type="curve" smooth="yes"/>
      <point x="127.886" y="424.057"/>
      <point x="136.392" y="405"/>
      <point x="158" y="405" type="curve" smooth="yes"/>
      <point x="174" y="405"/>
      <point x="197" y="416"/>
      <point x="211" y="423" type="curve"/>
      <point x="242" y="558" type="line"/>
      <point x="237" y="560"/>
      <point x="226" y="561"/>
    </contour>
  </outline>
</glyph>
<glyph name="macron" format="1">
  <advance width="526"/>
  <unicode hex="00AF"/>
  <outline>
    <contour>
      <point x="406" y="545" type="curve" smooth="yes"/>
      <point x="216" y="545" type="line" smooth="yes"/>
      <point x="194.229" y="545"/>
      <point x="180.042" y="561.684"/>
      <point x="180.042" y="581.843" type="curve" smooth="yes"/>
      <point x="180.042" y="584.833"/>
      <point x="180.354" y="587.9"/>
      <point x="181" y="591" type="curve" smooth="yes"/>
      <point x="187" y="617"/>
      <point x="211" y="637"/>
      <point x="236" y="637" type="curve" smooth="yes"/>
      <point x="426" y="637" type="line" smooth="yes"/>
      <point x="447.441" y="637"/>
      <point x="462.262" y="622.289"/>
      <point x="462.262" y="601.698" type="curve" smooth="yes"/>
      <point x="462.262" y="598.281"/>
      <point x="461.854" y="594.701"/>
      <point x="461" y="591" type="curve" smooth="yes"/>
      <point x="456" y="567"/>
      <point x="431" y="545"/>
    </contour>
  </outline>
</glyph>
<glyph name="degree" format="1">
  <advance width="269"/>
  <unicode hex="00B0"/>
  <outline>
    <contour>
      <point x="163" y="422" type="curve" smooth="yes"/>
      <point x="99.1647" y="422"/>
      <point x="55.2109" y="467.116"/>
      <point x="55.2109" y="527.926" type="curve" smooth="yes"/>
      <point x="55.2109" y="536.656"/>
      <point x="56.1168" y="545.71"/>
      <point x="58" y="555" type="curve" smooth="yes"/>
      <point x="74" y="629"/>
      <point x="147" y="689"/>
      <point x="220" y="689" type="curve" smooth="yes"/>
      <point x="284.088" y="689"/>
      <point x="327.174" y="643.998"/>
      <point x="327.174" y="583.873" type="curve" smooth="yes"/>
      <point x="327.174" y="574.574"/>
      <point x="326.143" y="564.912"/>
      <point x="324" y="555" type="curve" smooth="yes"/>
      <point x="309" y="481"/>
      <point x="237" y="422"/>
    </contour>
    <contour>
      <point x="201" y="601" type="curve" smooth="yes"/>
      <point x="176" y="601"/>
      <point x="150" y="580"/>
      <point x="144" y="555" type="curve" smooth="yes"/>
      <point x="143.434" y="552.171"/>
      <point x="143.163" y="549.394"/>
      <point x="143.163" y="546.692" type="curve" smooth="yes"/>
      <point x="143.163" y="525.517"/>
      <point x="159.829" y="509"/>
      <point x="182" y="509" type="curve" smooth="yes"/>
      <point x="208" y="509"/>
      <point x="233" y="530"/>
      <point x="238" y="555" type="curve" smooth="yes"/>
      <point x="238.816" y="558.402"/>
      <point x="239.207" y="561.729"/>
      <point x="239.207" y="564.94" type="curve" smooth="yes"/>
      <point x="239.207" y="585.326"/>
      <point x="223.462" y="601"/>
    </contour>
  </outline>
</glyph>
<glyph name="plusminus" format="1">
  <advance width="467"/>
  <unicode hex="00B1"/>
  <outline>
    <contour>
      <point x="60" y="292" type="curve" smooth="yes"/>
      <point x="65" y="316"/>
      <point x="92" y="339"/>
      <point x="116" y="339" type="curve" smooth="yes"/>
      <point x="193" y="339" type="line"/>
      <point x="207" y="405" type="line"/>
      <point x="211" y="428"/>
      <point x="233" y="451"/>
      <point x="263" y="451" type="curve" smooth="yes"/>
      <point x="286.2" y="451"/>
      <point x="300.641" y="432.688"/>
      <point x="300.641" y="412.403" type="curve" smooth="yes"/>
      <point x="300.641" y="409.954"/>
      <point x="300.431" y="407.477"/>
      <point x="300" y="405" type="curve"/>
      <point x="286" y="339" type="line"/>
      <point x="363" y="339" type="line" smooth="yes"/>
      <point x="383.49" y="339"/>
      <point x="400.805" y="322.333"/>
      <point x="400.805" y="300.313" type="curve" smooth="yes"/>
      <point x="400.805" y="297.615"/>
      <point x="400.546" y="294.837"/>
      <point x="400" y="292" type="curve"/>
      <point x="394" y="267"/>
      <point x="366" y="245"/>
      <point x="343" y="245" type="curve" smooth="yes"/>
      <point x="266" y="245" type="line"/>
      <point x="250" y="170" type="line" smooth="yes"/>
      <point x="244" y="145"/>
      <point x="217" y="124"/>
      <point x="194" y="124" type="curve" smooth="yes"/>
      <point x="171.198" y="124"/>
      <point x="156.088" y="140.92"/>
      <point x="156.088" y="161.271" type="curve" smooth="yes"/>
      <point x="156.088" y="164.126"/>
      <point x="156.385" y="167.048"/>
      <point x="157" y="170" type="curve" smooth="yes"/>
      <point x="173" y="245" type="line"/>
      <point x="96" y="245" type="line" smooth="yes"/>
      <point x="73.6881" y="245"/>
      <point x="58.7405" y="260.465"/>
      <point x="58.7405" y="281.283" type="curve" smooth="yes"/>
      <point x="58.7405" y="284.724"/>
      <point x="59.1489" y="288.312"/>
    </contour>
    <contour>
      <point x="22" y="46" type="curve" smooth="yes"/>
      <point x="28" y="73"/>
      <point x="54" y="93"/>
      <point x="78" y="93" type="curve" smooth="yes"/>
      <point x="295" y="93" type="line" smooth="yes"/>
      <point x="316.587" y="93"/>
      <point x="332.21" y="76.5965"/>
      <point x="332.21" y="56.0223" type="curve" smooth="yes"/>
      <point x="332.21" y="52.7697"/>
      <point x="331.819" y="49.4128"/>
      <point x="331" y="46" type="curve" smooth="yes"/>
      <point x="325" y="18"/>
      <point x="300" y="-1"/>
      <point x="275" y="-1" type="curve" smooth="yes"/>
      <point x="58" y="-1" type="line" smooth="yes"/>
      <point x="37.1556" y="-1"/>
      <point x="20.8371" y="11.8235"/>
      <point x="20.8371" y="34.8499" type="curve" smooth="yes"/>
      <point x="20.8371" y="38.3358"/>
      <point x="21.2111" y="42.0555"/>
    </contour>
  </outline>
</glyph>
<glyph name="twosuperior" format="1">
  <advance width="266"/>
  <unicode hex="00B2"/>
  <outline>
    <contour>
      <point x="241" y="402" type="curve" smooth="yes"/>
      <point x="28" y="402" type="line"/>
      <point x="37" y="446" type="line" smooth="yes"/>
      <point x="59" y="547"/>
      <point x="110" y="588"/>
      <point x="218" y="644" type="curve" smooth="yes"/>
      <point x="235.376" y="652.688"/>
      <point x="253.455" y="667.521"/>
      <point x="253.455" y="687.2" type="curve" smooth="yes"/>
      <point x="253.455" y="699.317"/>
      <point x="241.762" y="709"/>
      <point x="222" y="709" type="curve" smooth="yes"/>
      <point x="201" y="709"/>
      <point x="179" y="694"/>
      <point x="168" y="685" type="curve" smooth="yes"/>
      <point x="151" y="670"/>
      <point x="142" y="663"/>
      <point x="124" y="663" type="curve" smooth="yes"/>
      <point x="101.564" y="663"/>
      <point x="89.4858" y="674.048"/>
      <point x="89.4858" y="693.274" type="curve" smooth="yes"/>
      <point x="89.4858" y="697.186"/>
      <point x="89.9857" y="701.436"/>
      <point x="91" y="706" type="curve"/>
      <point x="92" y="715"/>
      <point x="96" y="725"/>
      <point x="107" y="735" type="curve" smooth="yes"/>
      <point x="130" y="757"/>
      <point x="183" y="796"/>
      <point x="240" y="796" type="curve" smooth="yes"/>
      <point x="296.361" y="796"/>
      <point x="342.64" y="764.203"/>
      <point x="342.64" y="707.439" type="curve" smooth="yes"/>
      <point x="342.64" y="699.746"/>
      <point x="341.79" y="691.594"/>
      <point x="340" y="683" type="curve" smooth="yes"/>
      <point x="325" y="614"/>
      <point x="273" y="585"/>
      <point x="222" y="559" type="curve"/>
      <point x="193" y="543"/>
      <point x="156" y="519"/>
      <point x="142" y="491" type="curve"/>
      <point x="260" y="491" type="line" smooth="yes"/>
      <point x="276.745" y="491"/>
      <point x="295.044" y="477.796"/>
      <point x="295.044" y="455.494" type="curve" smooth="yes"/>
      <point x="295.044" y="452.491"/>
      <point x="294.712" y="449.323"/>
      <point x="294" y="446" type="curve" smooth="yes"/>
      <point x="289" y="423"/>
      <point x="262" y="402"/>
    </contour>
  </outline>
</glyph>
<glyph name="threesuperior" format="1">
  <advance width="262"/>
  <unicode hex="00B3"/>
  <outline>
    <contour>
      <point x="46" y="468" type="curve" smooth="yes"/>
      <point x="43" y="476"/>
      <point x="44" y="486"/>
      <point x="45" y="491" type="curve" smooth="yes"/>
      <point x="50" y="516"/>
      <point x="71" y="536"/>
      <point x="96" y="536" type="curve" smooth="yes"/>
      <point x="117" y="536"/>
      <point x="126" y="524"/>
      <point x="131" y="511" type="curve" smooth="yes"/>
      <point x="137" y="496"/>
      <point x="154" y="487"/>
      <point x="172" y="487" type="curve" smooth="yes"/>
      <point x="188" y="487"/>
      <point x="217" y="494"/>
      <point x="223" y="526" type="curve" smooth="yes"/>
      <point x="223.737" y="529.391"/>
      <point x="224.126" y="532.586"/>
      <point x="224.126" y="535.582" type="curve" smooth="yes"/>
      <point x="224.126" y="552.91"/>
      <point x="211.103" y="563.59"/>
      <point x="177" y="567" type="curve" smooth="yes"/>
      <point x="156.069" y="568.674"/>
      <point x="143.55" y="578.059"/>
      <point x="143.55" y="596.915" type="curve" smooth="yes"/>
      <point x="143.55" y="600.581"/>
      <point x="144.023" y="604.605"/>
      <point x="145" y="609" type="curve" smooth="yes"/>
      <point x="151" y="638"/>
      <point x="169" y="649"/>
      <point x="195" y="651" type="curve" smooth="yes"/>
      <point x="227" y="654"/>
      <point x="246" y="667"/>
      <point x="250" y="685" type="curve" smooth="yes"/>
      <point x="250.51" y="687.296"/>
      <point x="250.76" y="689.429"/>
      <point x="250.76" y="691.403" type="curve" smooth="yes"/>
      <point x="250.76" y="704.911"/>
      <point x="239.067" y="711"/>
      <point x="219" y="711" type="curve" smooth="yes"/>
      <point x="199" y="711"/>
      <point x="185" y="705"/>
      <point x="176" y="699" type="curve" smooth="yes"/>
      <point x="166" y="692"/>
      <point x="153" y="688"/>
      <point x="141" y="688" type="curve" smooth="yes"/>
      <point x="123.033" y="688"/>
      <point x="108.726" y="698.98"/>
      <point x="108.726" y="719.688" type="curve" smooth="yes"/>
      <point x="108.726" y="723.184"/>
      <point x="109.133" y="726.956"/>
      <point x="110" y="731" type="curve" smooth="yes"/>
      <point x="116" y="762"/>
      <point x="175" y="799"/>
      <point x="237" y="799" type="curve" smooth="yes"/>
      <point x="292.298" y="799"/>
      <point x="341.232" y="768.771"/>
      <point x="341.232" y="715.409" type="curve" smooth="yes"/>
      <point x="341.232" y="708.942"/>
      <point x="340.513" y="702.134"/>
      <point x="339" y="695" type="curve" smooth="yes"/>
      <point x="331" y="658"/>
      <point x="308" y="627"/>
      <point x="284" y="613" type="curve"/>
      <point x="303.2" y="602.6"/>
      <point x="315.36" y="580.68"/>
      <point x="315.36" y="552.872" type="curve" smooth="yes"/>
      <point x="315.36" y="545.92"/>
      <point x="314.6" y="538.6"/>
      <point x="313" y="531" type="curve" smooth="yes"/>
      <point x="297" y="452"/>
      <point x="223" y="400"/>
      <point x="154" y="400" type="curve" smooth="yes"/>
      <point x="87" y="400"/>
      <point x="57" y="441"/>
    </contour>
  </outline>
</glyph>
<glyph name="acute" format="1">
  <advance width="526"/>
  <unicode hex="00B4"/>
  <outline>
    <contour>
      <point x="235" y="592" type="curve" smooth="yes"/>
      <point x="370" y="685" type="line" smooth="yes"/>
      <point x="382" y="693"/>
      <point x="398" y="704"/>
      <point x="415" y="704" type="curve" smooth="yes"/>
      <point x="440.635" y="704"/>
      <point x="457.508" y="686.476"/>
      <point x="457.508" y="662.035" type="curve" smooth="yes"/>
      <point x="457.508" y="657.873"/>
      <point x="457.019" y="653.511"/>
      <point x="456" y="649" type="curve" smooth="yes"/>
      <point x="453" y="634"/>
      <point x="445" y="619"/>
      <point x="429" y="609" type="curve" smooth="yes"/>
      <point x="287" y="524" type="line" smooth="yes"/>
      <point x="275" y="517"/>
      <point x="262" y="511"/>
      <point x="251" y="511" type="curve" smooth="yes"/>
      <point x="229.842" y="511"/>
      <point x="214.124" y="527.321"/>
      <point x="214.124" y="549.686" type="curve" smooth="yes"/>
      <point x="214.124" y="552.69"/>
      <point x="214.408" y="555.803"/>
      <point x="215" y="559" type="curve"/>
      <point x="218" y="570"/>
      <point x="222" y="583"/>
    </contour>
  </outline>
</glyph>
<glyph name="mu" format="1">
  <advance width="526"/>
  <unicode hex="00B5"/>
  <outline>
    <contour>
      <point x="27" y="22" type="curve" smooth="yes"/>
      <point x="35" y="89"/>
      <point x="44" y="147"/>
      <point x="62" y="252" type="curve" smooth="yes"/>
      <point x="75" y="325"/>
      <point x="102" y="414"/>
      <point x="115" y="449" type="curve" smooth="yes"/>
      <point x="130" y="492"/>
      <point x="149" y="500"/>
      <point x="174" y="500" type="curve" smooth="yes"/>
      <point x="200.466" y="500"/>
      <point x="212.567" y="487.004"/>
      <point x="212.567" y="466.669" type="curve" smooth="yes"/>
      <point x="212.567" y="462.416"/>
      <point x="212.038" y="457.843"/>
      <point x="211" y="453" type="curve" smooth="yes"/>
      <point x="209" y="445"/>
      <point x="207" y="439"/>
      <point x="204" y="431" type="curve" smooth="yes"/>
      <point x="195" y="401"/>
      <point x="177" y="351"/>
      <point x="164" y="288" type="curve" smooth="yes"/>
      <point x="149.905" y="223.077"/>
      <point x="142.195" y="176.945"/>
      <point x="142.195" y="145.396" type="curve" smooth="yes"/>
      <point x="142.195" y="103.081"/>
      <point x="156.065" y="87"/>
      <point x="187" y="87" type="curve" smooth="yes"/>
      <point x="241" y="87"/>
      <point x="306" y="123"/>
      <point x="327" y="144" type="curve" smooth="yes"/>
      <point x="332" y="149"/>
      <point x="336" y="156"/>
      <point x="338" y="169" type="curve"/>
      <point x="404" y="454" type="line" smooth="yes"/>
      <point x="410" y="481"/>
      <point x="436" y="500"/>
      <point x="460" y="500" type="curve" smooth="yes"/>
      <point x="481.723" y="500"/>
      <point x="498.161" y="485.655"/>
      <point x="498.161" y="464.181" type="curve" smooth="yes"/>
      <point x="498.161" y="460.941"/>
      <point x="497.787" y="457.539"/>
      <point x="497" y="454" type="curve" smooth="yes"/>
      <point x="411" y="48" type="line"/>
      <point x="405" y="23"/>
      <point x="378" y="0"/>
      <point x="352" y="0" type="curve" smooth="yes"/>
      <point x="325" y="0"/>
      <point x="309" y="17"/>
      <point x="309" y="40" type="curve"/>
      <point x="270" y="16"/>
      <point x="219" y="-3"/>
      <point x="168" y="-3" type="curve" smooth="yes"/>
      <point x="147" y="-3"/>
      <point x="118" y="4"/>
      <point x="118" y="4" type="curve"/>
      <point x="114" y="-33"/>
      <point x="110" y="-76"/>
      <point x="109" y="-109" type="curve" smooth="yes"/>
      <point x="109" y="-135"/>
      <point x="88" y="-164"/>
      <point x="52" y="-164" type="curve" smooth="yes"/>
      <point x="30.5851" y="-164"/>
      <point x="12.9602" y="-148.84"/>
      <point x="12.9602" y="-126.82" type="curve" smooth="yes"/>
      <point x="12.9602" y="-95.0716"/>
      <point x="17.8578" y="-54.1853"/>
    </contour>
  </outline>
</glyph>
<glyph name="paragraph" format="1">
  <advance width="585"/>
  <unicode hex="00B6"/>
  <outline>
    <contour>
      <point x="584" y="673" type="curve"/>
      <point x="579" y="649"/>
      <point x="574" y="622"/>
      <point x="569" y="599" type="curve" smooth="yes"/>
      <point x="521" y="375"/>
      <point x="455" y="163"/>
      <point x="370" y="-35" type="curve" smooth="yes"/>
      <point x="361" y="-56"/>
      <point x="343" y="-72"/>
      <point x="315" y="-72" type="curve" smooth="yes"/>
      <point x="291.27" y="-72"/>
      <point x="283.459" y="-62.7441"/>
      <point x="283.459" y="-48.5125" type="curve" smooth="yes"/>
      <point x="283.459" y="-39.355"/>
      <point x="286.693" y="-28.1374"/>
      <point x="291" y="-16" type="curve"/>
      <point x="360" y="162"/>
      <point x="432" y="362"/>
      <point x="483" y="599" type="curve" smooth="yes"/>
      <point x="488" y="622"/>
      <point x="492" y="645"/>
      <point x="497" y="669" type="curve" smooth="yes"/>
      <point x="502" y="694"/>
      <point x="522" y="719"/>
      <point x="549" y="719" type="curve" smooth="yes"/>
      <point x="573.129" y="719"/>
      <point x="584.48" y="703.027"/>
      <point x="584.48" y="681.074" type="curve" smooth="yes"/>
      <point x="584.48" y="678.462"/>
      <point x="584.319" y="675.765"/>
    </contour>
    <contour>
      <point x="475" y="715" type="curve"/>
      <point x="469" y="683"/>
      <point x="450" y="670"/>
      <point x="430" y="665" type="curve"/>
      <point x="414" y="589" type="line" smooth="yes"/>
      <point x="367" y="368"/>
      <point x="294" y="149"/>
      <point x="218" y="-35" type="curve"/>
      <point x="208" y="-57"/>
      <point x="190" y="-73"/>
      <point x="164" y="-73" type="curve" smooth="yes"/>
      <point x="139.968" y="-73"/>
      <point x="130.734" y="-62.2013"/>
      <point x="130.734" y="-45.9155" type="curve" smooth="yes"/>
      <point x="130.734" y="-36.4497"/>
      <point x="133.854" y="-25.1302"/>
      <point x="139" y="-13" type="curve" smooth="yes"/>
      <point x="165" y="48"/>
      <point x="230" y="230"/>
      <point x="257" y="317" type="curve"/>
      <point x="161.477" y="318.753"/>
      <point x="82.0815" y="359.674"/>
      <point x="82.0815" y="456.59" type="curve" smooth="yes"/>
      <point x="82.0815" y="470.263"/>
      <point x="83.6618" y="485.051"/>
      <point x="87" y="501" type="curve" smooth="yes"/>
      <point x="118" y="646"/>
      <point x="274" y="730"/>
      <point x="433" y="759" type="curve" smooth="yes"/>
      <point x="437.143" y="759.829"/>
      <point x="441.095" y="760.238"/>
      <point x="444.809" y="760.238" type="curve" smooth="yes"/>
      <point x="463.953" y="760.238"/>
      <point x="476.771" y="749.371"/>
      <point x="476.771" y="729.08" type="curve" smooth="yes"/>
      <point x="476.771" y="724.801"/>
      <point x="476.201" y="720.103"/>
    </contour>
  </outline>
</glyph>
<glyph name="periodcentered" format="1">
  <advance width="198"/>
  <unicode hex="00B7"/>
  <outline>
    <contour>
      <point x="76" y="191" type="curve" smooth="yes"/>
      <point x="50.7099" y="191"/>
      <point x="35.369" y="208.766"/>
      <point x="35.369" y="233.516" type="curve" smooth="yes"/>
      <point x="35.369" y="238.125"/>
      <point x="35.901" y="242.976"/>
      <point x="37" y="248" type="curve" smooth="yes"/>
      <point x="44" y="281"/>
      <point x="79" y="312"/>
      <point x="110" y="312" type="curve" smooth="yes"/>
      <point x="134.604" y="312"/>
      <point x="150.571" y="294.004"/>
      <point x="150.571" y="269.617" type="curve" smooth="yes"/>
      <point x="150.571" y="265.26"/>
      <point x="150.061" y="260.699"/>
      <point x="149" y="256" type="curve" smooth="yes"/>
      <point x="141" y="220"/>
      <point x="107" y="191"/>
    </contour>
  </outline>
</glyph>
<glyph name="cedilla" format="1">
  <advance width="526"/>
  <unicode hex="00B8"/>
  <outline>
    <contour>
      <point x="155" y="-126" type="curve" smooth="yes"/>
      <point x="159" y="-130"/>
      <point x="164" y="-132"/>
      <point x="173" y="-132" type="curve" smooth="yes"/>
      <point x="189" y="-132"/>
      <point x="199" y="-118"/>
      <point x="202" y="-106" type="curve" smooth="yes"/>
      <point x="202.457" y="-104.172"/>
      <point x="202.682" y="-102.437"/>
      <point x="202.682" y="-100.798" type="curve" smooth="yes"/>
      <point x="202.682" y="-91.6789"/>
      <point x="195.715" y="-85.543"/>
      <point x="183" y="-83" type="curve" smooth="yes"/>
      <point x="136" y="-73" type="line" smooth="yes"/>
      <point x="125.801" y="-70.7335"/>
      <point x="121.702" y="-64.6143"/>
      <point x="121.702" y="-56.4615" type="curve" smooth="yes"/>
      <point x="121.702" y="-50.2259"/>
      <point x="124.1" y="-42.8008"/>
      <point x="128" y="-35" type="curve" smooth="yes"/>
      <point x="151" y="13"/>
      <point x="166" y="41"/>
      <point x="189" y="41" type="curve" smooth="yes"/>
      <point x="197.711" y="41"/>
      <point x="205.075" y="39.2041"/>
      <point x="205.075" y="18.7649" type="curve" smooth="yes"/>
      <point x="205.075" y="8.70061"/>
      <point x="203.289" y="-5.8839"/>
      <point x="199" y="-27" type="curve"/>
      <point x="248.29" y="-35.4983"/>
      <point x="274.469" y="-54.1074"/>
      <point x="274.469" y="-89.5788" type="curve" smooth="yes"/>
      <point x="274.469" y="-95.8469"/>
      <point x="273.652" y="-102.642"/>
      <point x="272" y="-110" type="curve" smooth="yes"/>
      <point x="260" y="-168"/>
      <point x="207" y="-196"/>
      <point x="149" y="-196" type="curve" smooth="yes"/>
      <point x="114.08" y="-196"/>
      <point x="79.1608" y="-182.489"/>
      <point x="79.1608" y="-155.467" type="curve" smooth="yes"/>
      <point x="79.1608" y="-153.083"/>
      <point x="79.4326" y="-150.594"/>
      <point x="80" y="-148" type="curve" smooth="yes"/>
      <point x="84" y="-131"/>
      <point x="101" y="-109"/>
      <point x="124" y="-109" type="curve" smooth="yes"/>
      <point x="141" y="-109"/>
      <point x="146" y="-118"/>
    </contour>
  </outline>
</glyph>
<glyph name="onesuperior" format="1">
  <advance width="192"/>
  <unicode hex="00B9"/>
  <outline>
    <contour>
      <point x="177" y="403" type="curve" smooth="yes"/>
      <point x="70" y="403" type="line" smooth="yes"/>
      <point x="45.1372" y="403"/>
      <point x="34.6981" y="417.424"/>
      <point x="34.6981" y="435.456" type="curve" smooth="yes"/>
      <point x="34.6981" y="439.182"/>
      <point x="35.1438" y="443.061"/>
      <point x="36" y="447" type="curve" smooth="yes"/>
      <point x="41" y="473"/>
      <point x="66" y="491"/>
      <point x="89" y="491" type="curve" smooth="yes"/>
      <point x="102" y="491" type="line"/>
      <point x="138" y="645" type="line"/>
      <point x="131" y="643"/>
      <point x="125" y="642"/>
      <point x="118" y="642" type="curve" smooth="yes"/>
      <point x="101.011" y="642"/>
      <point x="83.2217" y="656.392"/>
      <point x="83.2217" y="677.311" type="curve" smooth="yes"/>
      <point x="83.2217" y="679.787"/>
      <point x="83.4709" y="682.354"/>
      <point x="84" y="685" type="curve" smooth="yes"/>
      <point x="86" y="696"/>
      <point x="91" y="706"/>
      <point x="101" y="715" type="curve" smooth="yes"/>
      <point x="180" y="784" type="line" smooth="yes"/>
      <point x="191" y="794"/>
      <point x="203" y="799"/>
      <point x="214" y="799" type="curve" smooth="yes"/>
      <point x="235.587" y="799"/>
      <point x="251.21" y="788.561"/>
      <point x="251.21" y="765.753" type="curve" smooth="yes"/>
      <point x="251.21" y="762.147"/>
      <point x="250.819" y="758.232"/>
      <point x="250" y="754" type="curve"/>
      <point x="189" y="491" type="line"/>
      <point x="201" y="491" type="line" smooth="yes"/>
      <point x="220.013" y="491"/>
      <point x="230.81" y="475.316"/>
      <point x="230.81" y="456.211" type="curve" smooth="yes"/>
      <point x="230.81" y="453.21"/>
      <point x="230.543" y="450.123"/>
      <point x="230" y="447" type="curve" smooth="yes"/>
      <point x="224" y="419"/>
      <point x="198" y="403"/>
    </contour>
  </outline>
</glyph>
<glyph name="ordmasculine" format="1">
  <advance width="303"/>
  <unicode hex="00BA"/>
  <outline>
    <contour>
      <point x="148" y="315" type="curve" smooth="yes"/>
      <point x="83.3808" y="315"/>
      <point x="37.3199" y="364.737"/>
      <point x="37.3199" y="434.149" type="curve" smooth="yes"/>
      <point x="37.3199" y="445.3"/>
      <point x="38.5086" y="456.958"/>
      <point x="41" y="469" type="curve" smooth="yes"/>
      <point x="59" y="553"/>
      <point x="138" y="648"/>
      <point x="236" y="648" type="curve" smooth="yes"/>
      <point x="299.313" y="648"/>
      <point x="347.254" y="601.882"/>
      <point x="347.254" y="529.689" type="curve" smooth="yes"/>
      <point x="347.254" y="517.503"/>
      <point x="345.888" y="504.575"/>
      <point x="343" y="491" type="curve" smooth="yes"/>
      <point x="328" y="422"/>
      <point x="254" y="315"/>
    </contour>
    <contour>
      <point x="215" y="561" type="curve" smooth="yes"/>
      <point x="183" y="561"/>
      <point x="143" y="521"/>
      <point x="133" y="471" type="curve" smooth="yes"/>
      <point x="131.44" y="463.59"/>
      <point x="130.679" y="456.446"/>
      <point x="130.679" y="449.746" type="curve" smooth="yes"/>
      <point x="130.679" y="422.089"/>
      <point x="143.655" y="402"/>
      <point x="167" y="402" type="curve" smooth="yes"/>
      <point x="198" y="402"/>
      <point x="240" y="439"/>
      <point x="251" y="491" type="curve" smooth="yes"/>
      <point x="252.196" y="496.979"/>
      <point x="252.779" y="502.959"/>
      <point x="252.779" y="508.763" type="curve" smooth="yes"/>
      <point x="252.779" y="536.937"/>
      <point x="239.046" y="561"/>
    </contour>
  </outline>
</glyph>
<glyph name="guillemotright" format="1">
  <advance width="617"/>
  <unicode hex="00BB"/>
  <outline>
    <contour>
      <point x="506" y="213" type="curve" smooth="yes"/>
      <point x="330" y="81" type="line" smooth="yes"/>
      <point x="317" y="72"/>
      <point x="306" y="69"/>
      <point x="294" y="69" type="curve" smooth="yes"/>
      <point x="271.829" y="69"/>
      <point x="255.163" y="85.5166"/>
      <point x="255.163" y="107.39" type="curve" smooth="yes"/>
      <point x="255.163" y="110.18"/>
      <point x="255.434" y="113.058"/>
      <point x="256" y="116" type="curve" smooth="yes"/>
      <point x="259" y="129"/>
      <point x="267" y="143"/>
      <point x="280" y="153" type="curve" smooth="yes"/>
      <point x="408" y="249" type="line"/>
      <point x="309" y="354" type="line" smooth="yes"/>
      <point x="301.392" y="361.608"/>
      <point x="298.608" y="368.412"/>
      <point x="298.608" y="376.195" type="curve" smooth="yes"/>
      <point x="298.608" y="380.689"/>
      <point x="299.536" y="385.51"/>
      <point x="301" y="391" type="curve"/>
      <point x="306" y="418"/>
      <point x="335" y="439"/>
      <point x="359" y="439" type="curve" smooth="yes"/>
      <point x="370" y="439"/>
      <point x="378" y="436"/>
      <point x="387" y="427" type="curve" smooth="yes"/>
      <point x="520" y="286" type="line" smooth="yes"/>
      <point x="527.235" y="278.765"/>
      <point x="530.592" y="267.654"/>
      <point x="530.592" y="257.34" type="curve" smooth="yes"/>
      <point x="530.592" y="254.823"/>
      <point x="530.392" y="252.354"/>
      <point x="530" y="250" type="curve" smooth="yes"/>
      <point x="527" y="237"/>
      <point x="519" y="223"/>
    </contour>
    <contour>
      <point x="276" y="213" type="curve" smooth="yes"/>
      <point x="100" y="81" type="line" smooth="yes"/>
      <point x="87" y="72"/>
      <point x="76" y="69"/>
      <point x="64" y="69" type="curve" smooth="yes"/>
      <point x="41.8287" y="69"/>
      <point x="25.163" y="85.5166"/>
      <point x="25.163" y="107.39" type="curve" smooth="yes"/>
      <point x="25.163" y="110.18"/>
      <point x="25.4343" y="113.058"/>
      <point x="26" y="116" type="curve" smooth="yes"/>
      <point x="29" y="129"/>
      <point x="37" y="143"/>
      <point x="50" y="153" type="curve" smooth="yes"/>
      <point x="178" y="249" type="line"/>
      <point x="79" y="354" type="line" smooth="yes"/>
      <point x="71.3923" y="361.608"/>
      <point x="68.6077" y="368.412"/>
      <point x="68.6077" y="376.195" type="curve" smooth="yes"/>
      <point x="68.6077" y="380.689"/>
      <point x="69.5359" y="385.51"/>
      <point x="71" y="391" type="curve"/>
      <point x="76" y="418"/>
      <point x="105" y="439"/>
      <point x="129" y="439" type="curve" smooth="yes"/>
      <point x="140" y="439"/>
      <point x="148" y="436"/>
      <point x="157" y="427" type="curve" smooth="yes"/>
      <point x="290" y="286" type="line" smooth="yes"/>
      <point x="297.235" y="278.765"/>
      <point x="300.592" y="267.654"/>
      <point x="300.592" y="257.34" type="curve" smooth="yes"/>
      <point x="300.592" y="254.823"/>
      <point x="300.392" y="252.354"/>
      <point x="300" y="250" type="curve" smooth="yes"/>
      <point x="297" y="237"/>
      <point x="289" y="223"/>
    </contour>
  </outline>
</glyph>
<glyph name="questiondown" format="1">
  <advance width="559"/>
  <unicode hex="00BF"/>
  <outline>
    <contour>
      <point x="350" y="259" type="curve" smooth="yes"/>
      <point x="334" y="248"/>
      <point x="312" y="235"/>
      <point x="290" y="219" type="curve" smooth="yes"/>
      <point x="196" y="153"/>
      <point x="116" y="103"/>
      <point x="100" y="28" type="curve" smooth="yes"/>
      <point x="98.775" y="22.0113"/>
      <point x="98.1058" y="15.7262"/>
      <point x="98.1058" y="9.33639" type="curve" smooth="yes"/>
      <point x="98.1058" y="-31.2213"/>
      <point x="125.066" y="-76"/>
      <point x="208" y="-76" type="curve" smooth="yes"/>
      <point x="260" y="-76"/>
      <point x="302" y="-42"/>
      <point x="333" y="-14" type="curve" smooth="yes"/>
      <point x="342" y="-5"/>
      <point x="355" y="-1"/>
      <point x="367" y="-1" type="curve" smooth="yes"/>
      <point x="388.849" y="-1"/>
      <point x="406.115" y="-15.5124"/>
      <point x="406.115" y="-38.5294" type="curve" smooth="yes"/>
      <point x="406.115" y="-41.8487"/>
      <point x="405.756" y="-45.3449"/>
      <point x="405" y="-49" type="curve" smooth="yes"/>
      <point x="402" y="-65"/>
      <point x="385" y="-81"/>
      <point x="370" y="-95" type="curve" smooth="yes"/>
      <point x="331" y="-129"/>
      <point x="259" y="-170"/>
      <point x="183" y="-170" type="curve" smooth="yes"/>
      <point x="69.3442" y="-170"/>
      <point x="3.15561" y="-112.309"/>
      <point x="3.15561" y="-16.8971" type="curve" smooth="yes"/>
      <point x="3.15561" y="-0.65799"/>
      <point x="5.07297" y="16.6739"/>
      <point x="9" y="35" type="curve" smooth="yes"/>
      <point x="28" y="127"/>
      <point x="106" y="186"/>
      <point x="173" y="236" type="curve" smooth="yes"/>
      <point x="313" y="340"/>
      <point x="325" y="342"/>
      <point x="337" y="342" type="curve" smooth="yes"/>
      <point x="359.462" y="342"/>
      <point x="375.207" y="326.326"/>
      <point x="375.207" y="305.295" type="curve" smooth="yes"/>
      <point x="375.207" y="301.983"/>
      <point x="374.816" y="298.538"/>
      <point x="374" y="295" type="curve" smooth="yes"/>
      <point x="371" y="282"/>
      <point x="362" y="268"/>
    </contour>
    <contour>
      <point x="402" y="501" type="curve" smooth="yes"/>
      <point x="428.151" y="501"/>
      <point x="443.627" y="483.21"/>
      <point x="443.627" y="458.434" type="curve" smooth="yes"/>
      <point x="443.627" y="453.84"/>
      <point x="443.095" y="449.006"/>
      <point x="442" y="444" type="curve" smooth="yes"/>
      <point x="435" y="411"/>
      <point x="399" y="380"/>
      <point x="369" y="380" type="curve" smooth="yes"/>
      <point x="343.198" y="380"/>
      <point x="327.752" y="398.493"/>
      <point x="327.752" y="423.392" type="curve" smooth="yes"/>
      <point x="327.752" y="427.442"/>
      <point x="328.16" y="431.662"/>
      <point x="329" y="436" type="curve" smooth="yes"/>
      <point x="337" y="472"/>
      <point x="371" y="501"/>
    </contour>
  </outline>
</glyph>
<glyph name="Ccedilla" format="1">
  <advance width="658"/>
  <unicode hex="00C7"/>
  <outline>
    <contour>
      <point x="283" y="-2" type="curve"/>
      <point x="282" y="-11"/>
      <point x="281" y="-18"/>
      <point x="279" y="-27" type="curve"/>
      <point x="328.29" y="-35.4983"/>
      <point x="354.469" y="-54.1074"/>
      <point x="354.469" y="-89.5788" type="curve" smooth="yes"/>
      <point x="354.469" y="-95.8469"/>
      <point x="353.652" y="-102.642"/>
      <point x="352" y="-110" type="curve" smooth="yes"/>
      <point x="340" y="-168"/>
      <point x="287" y="-196"/>
      <point x="229" y="-196" type="curve" smooth="yes"/>
      <point x="194.08" y="-196"/>
      <point x="159.161" y="-182.489"/>
      <point x="159.161" y="-155.467" type="curve" smooth="yes"/>
      <point x="159.161" y="-153.083"/>
      <point x="159.433" y="-150.594"/>
      <point x="160" y="-148" type="curve" smooth="yes"/>
      <point x="164" y="-131"/>
      <point x="181" y="-109"/>
      <point x="204" y="-109" type="curve" smooth="yes"/>
      <point x="221" y="-109"/>
      <point x="226" y="-118"/>
      <point x="235" y="-126" type="curve" smooth="yes"/>
      <point x="239" y="-130"/>
      <point x="244" y="-132"/>
      <point x="253" y="-132" type="curve" smooth="yes"/>
      <point x="269" y="-132"/>
      <point x="279" y="-118"/>
      <point x="282" y="-106" type="curve" smooth="yes"/>
      <point x="282.457" y="-104.172"/>
      <point x="282.682" y="-102.437"/>
      <point x="282.682" y="-100.798" type="curve" smooth="yes"/>
      <point x="282.682" y="-91.6789"/>
      <point x="275.715" y="-85.543"/>
      <point x="263" y="-83" type="curve" smooth="yes"/>
      <point x="216" y="-73" type="line" smooth="yes"/>
      <point x="205.801" y="-70.7335"/>
      <point x="201.702" y="-64.6143"/>
      <point x="201.702" y="-56.4615" type="curve" smooth="yes"/>
      <point x="201.702" y="-50.2259"/>
      <point x="204.1" y="-42.8008"/>
      <point x="208" y="-35" type="curve" smooth="yes"/>
      <point x="215" y="-20"/>
      <point x="221" y="-7"/>
      <point x="227" y="3" type="curve"/>
      <point x="119.448" y="25.8653"/>
      <point x="47.7554" y="113.994"/>
      <point x="47.7554" y="232.159" type="curve" smooth="yes"/>
      <point x="47.7554" y="253.527"/>
      <point x="50.0997" y="275.877"/>
      <point x="55" y="299" type="curve" smooth="yes"/>
      <point x="98" y="501"/>
      <point x="296" y="684"/>
      <point x="436" y="684" type="curve" smooth="yes"/>
      <point x="494" y="684"/>
      <point x="536" y="669"/>
      <point x="562" y="653" type="curve"/>
      <point x="573" y="659"/>
      <point x="580" y="660"/>
      <point x="590" y="660" type="curve" smooth="yes"/>
      <point x="614.214" y="660"/>
      <point x="630.202" y="644.295"/>
      <point x="630.202" y="621.939" type="curve" smooth="yes"/>
      <point x="630.202" y="618.443"/>
      <point x="629.811" y="614.786"/>
      <point x="629" y="611" type="curve" smooth="yes"/>
      <point x="617" y="551" type="line" smooth="yes"/>
      <point x="611" y="524"/>
      <point x="584" y="501"/>
      <point x="556" y="501" type="curve" smooth="yes"/>
      <point x="531.639" y="501"/>
      <point x="515.419" y="517.281"/>
      <point x="515.419" y="539.561" type="curve" smooth="yes"/>
      <point x="515.419" y="541.975"/>
      <point x="515.609" y="544.459"/>
      <point x="516" y="547" type="curve"/>
      <point x="501" y="564"/>
      <point x="477" y="584"/>
      <point x="415" y="584" type="curve" smooth="yes"/>
      <point x="322" y="584"/>
      <point x="185" y="441"/>
      <point x="155" y="299" type="curve" smooth="yes"/>
      <point x="151.375" y="281.723"/>
      <point x="149.707" y="265.687"/>
      <point x="149.707" y="250.844" type="curve" smooth="yes"/>
      <point x="149.707" y="142.832"/>
      <point x="238.061" y="98"/>
      <point x="304" y="98" type="curve" smooth="yes"/>
      <point x="364" y="98"/>
      <point x="425" y="119"/>
      <point x="481" y="177" type="curve" smooth="yes"/>
      <point x="497" y="193"/>
      <point x="509" y="197"/>
      <point x="524" y="197" type="curve" smooth="yes"/>
      <point x="546.563" y="197"/>
      <point x="565.361" y="183.444"/>
      <point x="565.361" y="158.946" type="curve" smooth="yes"/>
      <point x="565.361" y="155.215"/>
      <point x="564.925" y="151.23"/>
      <point x="564" y="147" type="curve" smooth="yes"/>
      <point x="562" y="137"/>
      <point x="557" y="127"/>
      <point x="548" y="117" type="curve" smooth="yes"/>
      <point x="474" y="41"/>
      <point x="380" y="-2"/>
    </contour>
  </outline>
</glyph>
